<?xml version="1.0" encoding="utf-8"?>
<!-- Generator: Adobe Illustrator 21.1.0, SVG Export Plug-In . SVG Version: 6.00 Build 0)  -->
<svg version="1.1" id="Layer_1" xmlns="http://www.w3.org/2000/svg" xmlns:xlink="http://www.w3.org/1999/xlink" x="0px" y="0px"
	 viewBox="0 0 1920 377" style="enable-background:new 0 0 1920 377;" xml:space="preserve">
<style type="text/css">
	.st0{fill:#E7E8EB;}
	.st1{fill:#F5F6F6;}
</style>
<g>
	<path class="st0" d="M663,0c171.7,0,343.3,0,515,0c-2.9,7.3-7.9,13.4-12,19.9c-28.2,44.2-56.4,88.4-84.7,132.5
		c-6.4,10-6.5,9.9-0.4,20.2c0.4,0.7,0.7,1.5,1.1,2.2c9.8,17.5,19.5,35.1,29.4,52.6c13.2,23.5,26.4,46.9,39.6,70.3
		c8.6,15.2,17.2,30.3,25.7,45.5c6.2,11.1,12.2,22.4,18.4,33.6c-238.7,0-477.3,0-716,0c-0.2-1.6,0.5-2.9,1.1-4.3
		c5-10.3,10-20.7,15-31c9.7-19.9,20-39.5,29.4-59.5c10.2-21.7,21.6-42.8,31.7-64.5c9.4-20,19.9-39.5,29.3-59.6
		c10.1-21.5,21.2-42.6,31.5-64c14.5-30.1,29.6-60,44.4-90C662.1,2.8,662.5,1.4,663,0z"/>
	<path class="st1" d="M663,0c-0.5,1.4-0.9,2.8-1.6,4.2c-14.8,30-29.9,59.8-44.4,90c-10.3,21.5-21.4,42.5-31.5,64
		c-9.4,20-19.9,39.5-29.3,59.6c-10.2,21.7-21.6,42.8-31.7,64.5c-9.4,20-19.7,39.6-29.4,59.5c-5,10.3-10,20.7-15,31
		c-0.7,1.4-1.3,2.7-1.1,4.3c-130,0-260,0-390,0c0.2-2.3-1-4.2-2-6.1c-12.1-22.6-24.2-45.1-36.3-67.7c-14.4-27-28.6-54.1-43.2-81
		c-2.1-3.9-3.1-8.8-7.5-11.3c0-38,0-76,0-114c1.6,0.2,2.8-0.6,4.1-1.4c7.7-4.5,15.6-8.9,23.3-13.3c20.9-12,41.8-23.9,62.6-35.9
		c21.1-12.2,42.3-24.2,63.3-36.6c5-3,11-4.6,14.6-9.7C333,0,498,0,663,0z"/>
	<path class="st1" d="M1195,377c-6.1-11.2-12.1-22.4-18.4-33.6c-8.5-15.2-17.1-30.4-25.7-45.5c-13.2-23.4-26.4-46.8-39.6-70.3
		c-9.8-17.5-19.6-35.1-29.4-52.6c-0.4-0.7-0.7-1.5-1.1-2.2c-6.1-10.4-6-10.3,0.4-20.2c28.3-44.1,56.5-88.3,84.7-132.5
		c4.2-6.5,9.1-12.6,12-19.9c62.3,0,124.7,0,187,0c0,1.9,1.7,2.2,3,3c19,11.6,38.1,22.9,57.2,34.2c24.7,14.6,49.3,29.5,74,44
		c8.7,5.1,18.5,9.1,23.6,19.1c3,5.9,7,11.2,10.7,16.7c9.4,14.2,19,28.4,28.4,42.7c12,18.3,23.7,36.8,35.7,55.1
		c11.7,17.7,23.6,35.2,35.3,53c17.4,26.5,34.7,53,52,79.5c6.4,9.8,13.5,19.3,19.1,29.6C1534.3,377,1364.7,377,1195,377z"/>
	<path class="st0" d="M1704,377c-5.6-10.3-12.7-19.8-19.1-29.6c-17.3-26.5-34.6-53.1-52-79.5c-11.7-17.7-23.7-35.2-35.3-53
		c-12-18.3-23.7-36.8-35.7-55.1c-9.3-14.3-18.9-28.4-28.4-42.7c-3.7-5.5-7.7-10.9-10.7-16.7c-5.1-10-14.8-14-23.6-19.1
		c-24.8-14.5-49.3-29.4-74-44c-19.1-11.3-38.3-22.6-57.2-34.2c-1.2-0.8-2.9-1.1-3-3c185,0,370,0,555,0c0,125.7,0,251.3,0,377
		C1848,377,1776,377,1704,377z"/>
	<path class="st0" d="M168,0c-3.6,5.1-9.6,6.7-14.6,9.7c-21,12.4-42.2,24.5-63.3,36.6c-20.9,12-41.7,24-62.6,35.9
		c-7.8,4.5-15.6,8.8-23.3,13.3C2.8,96.4,1.6,97.2,0,97C0,64.7,0,32.5,0,0C56,0,112,0,168,0z"/>
	<path class="st0" d="M0,211c4.4,2.5,5.4,7.4,7.5,11.3c14.6,26.9,28.8,54,43.2,81c12,22.6,24.2,45.1,36.3,67.7c1,1.9,2.3,3.7,2,6.1
		c-29.6,0-59.2,0-89,0C0,321.7,0,266.3,0,211z"/>
</g>
</svg>
