<?xml version="1.0" encoding="utf-8"?>
<!-- Generator: Adobe Illustrator 21.1.0, SVG Export Plug-In . SVG Version: 6.00 Build 0)  -->
<svg version="1.1" id="Layer_1" xmlns="http://www.w3.org/2000/svg" xmlns:xlink="http://www.w3.org/1999/xlink" x="0px" y="0px"
	 viewBox="0 0 32 32" style="enable-background:new 0 0 32 32;" xml:space="preserve">
<style type="text/css">
	.st0{fill:#4C5E90;}
</style>
<path class="st0" d="M0,32C0,21.3,0,10.7,0,0c10.7,0,21.3,0,32,0c0,10.7,0,21.3,0,32C21.3,32,10.7,32,0,32z M17.4,16
	c1.1,0,2.2,0,3.2,0c0.2,0,0.5-0.1,0.5-0.2c0.1-1.2,0.2-2.5,0.3-3.9c-1.4,0-2.7,0-4,0c-0.2-2.3,0.1-2.6,2.2-2.6c0.6,0,1.1,0,1.7,0
	c0-1.4,0-2.7,0-4.1c-1.3,0-2.6,0-3.8,0c-2.8,0-4.2,1.5-4.2,4.2c0,0.8,0,1.6,0,2.4c-0.9,0-1.8,0-2.6,0c0,1.4,0,2.7,0,4.1
	c0.9,0,1.7,0,2.6,0c0,3.6,0,7.1,0,10.6c1.4,0,2.7,0,4.1,0C17.4,23.1,17.4,19.6,17.4,16z"/>
</svg>
