<?xml version="1.0" encoding="utf-8"?>
<!-- Generator: Adobe Illustrator 21.1.0, SVG Export Plug-In . SVG Version: 6.00 Build 0)  -->
<svg version="1.1" id="Layer_1" xmlns="http://www.w3.org/2000/svg" xmlns:xlink="http://www.w3.org/1999/xlink" x="0px" y="0px"
	 viewBox="0 0 32 32" style="enable-background:new 0 0 32 32;" xml:space="preserve">
<style type="text/css">
	.st0{fill:#3F729B;}
</style>
<g>
	<path class="st0" d="M0,32C0,21.3,0,10.7,0,0c10.7,0,21.3,0,32,0c0,10.7,0,21.3,0,32C21.3,32,10.7,32,0,32z M26.6,16L26.6,16
		c0-1.8,0.1-3.6,0-5.3c-0.2-2.9-2.4-5.1-5.3-5.2c-3.5-0.1-7.1-0.1-10.6,0c-2.9,0.1-5.2,2.4-5.3,5.3c-0.1,3.5-0.1,7.1,0,10.6
		c0.1,2.9,2.4,5.1,5.3,5.2c3.5,0.1,7.1,0.1,10.6,0c2.9-0.1,5.1-2.4,5.3-5.3C26.7,19.5,26.6,17.8,26.6,16z"/>
</g>
<g>
	<path class="st0" d="M16,7.2c1.6,0,3.3-0.1,4.9,0.1c2.2,0.2,3.6,1.5,3.7,3.7c0.2,3.3,0.2,6.6,0,9.9c-0.2,2.2-1.5,3.6-3.7,3.7
		c-3.3,0.2-6.6,0.2-9.9,0c-2.2-0.2-3.5-1.5-3.7-3.7c-0.3-2.6-0.1-5.1-0.1-7.7c0-0.8,0-1.5,0.1-2.3C7.5,8.8,8.8,7.5,11,7.3
		c0.4,0,0.7-0.1,1.1-0.1C13.4,7.2,14.7,7.2,16,7.2z M16,10.6c-2.9-0.1-5.4,2.4-5.5,5.3s2.3,5.4,5.3,5.5c2.9,0.1,5.5-2.4,5.5-5.4
		C21.5,13.1,19,10.6,16,10.6z M21.7,11.4c0.7,0,1.2-0.5,1.2-1.2c0-0.6-0.6-1.2-1.2-1.2s-1.1,0.5-1.1,1.2
		C20.5,10.9,21,11.4,21.7,11.4z"/>
	<path class="st0" d="M15.9,19.6c-2,0-3.6-1.7-3.6-3.7s1.7-3.6,3.7-3.6s3.6,1.7,3.5,3.7C19.6,18,18,19.6,15.9,19.6z"/>
</g>
</svg>
