<?xml version="1.0" encoding="utf-8"?>
<!-- Generator: Adobe Illustrator 21.1.0, SVG Export Plug-In . SVG Version: 6.00 Build 0)  -->
<svg version="1.1" id="Layer_1" xmlns="http://www.w3.org/2000/svg" xmlns:xlink="http://www.w3.org/1999/xlink" x="0px" y="0px"
	 viewBox="0 0 32 32" style="enable-background:new 0 0 32 32;" xml:space="preserve">
<style type="text/css">
	.st0{fill:#44A3D7;}
</style>
<g>
	<path class="st0" d="M32,0c0,10.7,0,21.3,0,32c-10.7,0-21.3,0-32,0C0,21.3,0,10.7,0,0C10.7,0,21.4,0,32,0z M6.9,14.1
		c0.1,2.2,1.3,3.5,3.3,4.3c-0.7,0.2-1.2,0.1-1.7,0.1c0.5,1.5,1.1,2,3.8,3.1c-1.8,1.4-3.8,1.8-6,1.9c3.9,2.2,8,2.5,12,0.5
		c4.5-2.3,6.6-6.1,6.8-11.1c0-0.4,0.1-0.7,0.5-1c0.6-0.5,1.1-1,1.6-1.8c-0.8,0.2-1.4,0.6-2.3,0.5c0.8-0.6,1.4-1.3,1.7-2.3
		C26,8.7,25.4,9,24.8,9.2c-0.5,0.2-0.9,0.1-1.3-0.2c-2.5-2-6.2-0.7-6.9,2.5c-0.1,0.6-0.1,1.3-0.1,2c-3.6-0.2-6.6-1.8-9-4.6
		c-1,2.3-0.6,4.1,1.1,5.7C7.9,14.6,7.5,14.3,6.9,14.1z"/>
</g>
</svg>
