<?xml version="1.0" encoding="utf-8"?>
<!-- Generator: Adobe Illustrator 21.1.0, SVG Export Plug-In . SVG Version: 6.00 Build 0)  -->
<svg version="1.1" id="Layer_1" xmlns="http://www.w3.org/2000/svg" xmlns:xlink="http://www.w3.org/1999/xlink" x="0px" y="0px"
	 viewBox="0 0 32 32" style="enable-background:new 0 0 32 32;" xml:space="preserve">
<style type="text/css">
	.st0{fill:#B94F46;}
</style>
<g>
	<path class="st0" d="M32,32c-10.7,0-21.3,0-32,0C0,21.3,0,10.7,0,0c10.7,0,21.3,0,32,0C32,10.7,32,21.4,32,32z M16.8,24
		c1.4,0,3.6,0,5.8-0.1c2.5-0.1,3.5-1.1,3.9-3.5c0.3-2.3,0.3-4.7,0.2-7c0-0.8-0.1-1.7-0.3-2.5c-0.4-1.5-1.3-2.4-2.9-2.5
		c-4.8-0.4-9.6-0.4-14.4,0c-2.2,0.1-3.1,1.2-3.4,3.3c-0.4,2.4-0.3,4.8-0.2,7.2c0,0.8,0.1,1.7,0.4,2.5c0.4,1.5,1.3,2.3,2.8,2.5
		C11.1,24,13.5,24,16.8,24z"/>
	<path class="st0" d="M20.4,16c-2.4,1.2-4.7,2.4-7.1,3.5c0-2.4,0-4.7,0-7.1C15.7,13.6,18,14.8,20.4,16z"/>
</g>
</svg>
