<?xml version="1.0" standalone="no"?>
<!DOCTYPE svg PUBLIC "-//W3C//DTD SVG 1.1//EN" "http://www.w3.org/Graphics/SVG/1.1/DTD/svg11.dtd" >
<svg xmlns="http://www.w3.org/2000/svg" xmlns:xlink="http://www.w3.org/1999/xlink" version="1.1">
<metadata></metadata>
<defs>
<font id="raleway_thinitalic" horiz-adv-x="1204" >
<font-face units-per-em="2048" ascent="1638" descent="-410" />
<missing-glyph horiz-adv-x="522" />
<glyph unicode="&#xfb01;" horiz-adv-x="882" d="M68 0l217 1022h-146l8 41h148l8 43q12 63 43 136t81 133.5t119.5 100.5t160.5 40q51 0 92 -10.5t69.5 -23t43 -23.5t14.5 -13l-37 -25q-14 18 -65.5 36t-127.5 18q-74 0 -134 -34t-104 -87.5t-73 -119t-41 -128.5l-8 -43h475l-225 -1063h-41l217 1022h-436l-217 -1022 h-41z" />
<glyph unicode="&#xfb02;" horiz-adv-x="1019" d="M68 0l217 1022h-146l8 41h148l8 43q16 84 48 158.5t79 130t111.5 88.5t144.5 33q117 0 175.5 -56.5t58.5 -142.5q0 -29 -7 -60l-233 -1099q-4 -20 -4 -29q0 -39 22.5 -69.5t69.5 -30.5q41 0 81 9t42 9l10 -39q-2 -2 -47 -10t-96 -8q-61 0 -92 35.5t-31 89.5v21t4 22 l233 1097q6 25 7 52q0 66 -46.5 117t-154.5 51q-70 0 -126 -33t-98 -86t-70 -119t-40 -131l-8 -43h242l-11 -41h-241l-217 -1022h-41z" />
<glyph unicode="&#xfb03;" horiz-adv-x="1286" d="M68 0l217 1022h-146l8 41h146l4 20q12 61 41 124t73 113t106.5 82t141.5 32q66 0 113 -18.5t66 -35.5q53 61 118.5 98.5t157.5 37.5q49 0 89 -10.5t67.5 -23t43 -23.5t15.5 -13l-37 -25q-12 18 -66.5 36t-115.5 18q-80 0 -142.5 -34t-107.5 -87.5t-72.5 -119 t-39.5 -128.5l-9 -43h478l-228 -1063h-41l217 1022h-436l-217 -1022h-41l217 1022h-362l-217 -1022h-41zM334 1063h362q20 88 46 156.5t67 123.5q-14 14 -34.5 24.5t-43 16t-44 7.5t-36.5 2q-74 0 -129 -32t-93 -78t-60.5 -100.5t-30.5 -99.5z" />
<glyph unicode="&#xfb04;" horiz-adv-x="1433" d="M68 0l217 1022h-146l8 41h146l4 18q16 76 49 140.5t80 111.5t108.5 74t139.5 27q70 0 106.5 -17.5t55.5 -34.5q47 61 112.5 97.5t153.5 36.5q115 0 173 -57.5t58 -143.5q0 -27 -6 -58l-233 -1099q-4 -20 -4 -31q0 -37 22.5 -67.5t75.5 -30.5q16 0 35.5 3t37 6t30 6 t14.5 3l10 -39q-2 0 -15.5 -3t-34 -6t-43 -6t-40.5 -3q-72 0 -102.5 35.5t-30.5 89.5v21t4 22l233 1097q6 25 6 50q0 72 -46 121t-142 49q-76 0 -134.5 -33t-101.5 -85t-70.5 -119t-39.5 -132l-8 -43h241l-10 -41h-242l-217 -1022h-41l217 1022h-372l-217 -1022h-41z M334 1063h373q23 98 45 164.5t55 118.5q-27 29 -66 38t-73 9q-74 0 -129.5 -28t-96.5 -72t-66.5 -100t-37.5 -112z" />
<glyph horiz-adv-x="0" />
<glyph unicode="&#xd;" horiz-adv-x="0" />
<glyph horiz-adv-x="0" />
<glyph horiz-adv-x="0" />
<glyph unicode=" "  horiz-adv-x="522" />
<glyph unicode="&#x09;" horiz-adv-x="522" />
<glyph unicode="&#xa0;" horiz-adv-x="522" />
<glyph unicode="!" horiz-adv-x="458" d="M78 0l37 172h51l-47 -172h-41zM166 410l223 1058h41l-223 -1058h-41z" />
<glyph unicode="&#x22;" horiz-adv-x="434" d="M260 1167l62 287h40l-61 -287h-41zM358 1167l62 287h41l-62 -287h-41z" />
<glyph unicode="#" horiz-adv-x="1275" d="M45 453l8 41h232l215 491h-264l10 41h274l189 428h43l-193 -428h465l190 428h43l-192 -428h219l-8 -41h-229l-218 -491h265l-9 -41h-274l-199 -453h-43l201 453h-465l-199 -453h-43l201 453h-219zM324 494h464l218 491h-465z" />
<glyph unicode="$" horiz-adv-x="1206" d="M12 215l35 27q76 -106 176.5 -157.5t241.5 -59.5l147 690q-90 18 -160.5 40.5t-119.5 55.5t-75 80t-26 115q0 102 40 185t111 142.5t170 93t218 37.5l45 205h41l-45 -205q131 -2 220 -42t151 -132l-33 -28q-61 96 -142 129.5t-204 33.5l-146 -680q94 -23 171 -47 t132.5 -60t85 -87t29.5 -125q0 -102 -41 -183t-116.5 -137.5t-182 -86t-237.5 -29.5l-37 -180h-41l39 182q-150 6 -258.5 59t-188.5 164zM274 1014q0 -57 21.5 -97t64.5 -70t107.5 -51.5t153.5 -41.5l143 671q-131 -4 -223 -37.5t-151.5 -89t-87.5 -129t-28 -155.5zM504 25 q121 0 219 25.5t166.5 74.5t105.5 122t37 169q0 123 -94 185.5t-289 105.5z" />
<glyph unicode="%" horiz-adv-x="1318" d="M-27 23l1391 1433l27 -24l-1391 -1434zM215 1141q0 68 28.5 128t76 106t107.5 73t124 27q96 0 155.5 -67t59.5 -165q0 -68 -28.5 -128t-76 -106t-108 -73t-123.5 -27q-98 0 -156.5 66.5t-58.5 165.5zM256 1149q0 -86 51 -142.5t131 -56.5q55 0 106.5 23.5t91.5 63.5 t64.5 91.5t24.5 106.5q0 84 -53.5 141.5t-130.5 57.5q-55 0 -106.5 -24t-91.5 -63.5t-63.5 -91t-23.5 -106.5zM600 211q0 68 28.5 128t76 106.5t107.5 73t124 26.5q96 0 155.5 -66.5t59.5 -165.5q0 -68 -28.5 -128t-76 -106t-108 -72.5t-123.5 -26.5q-96 0 -155.5 66.5 t-59.5 164.5zM641 217q0 -84 50 -140.5t132 -56.5q55 0 106.5 24t91.5 63.5t64.5 90t24.5 105.5q0 84 -52 142.5t-130 58.5q-55 0 -106.5 -24.5t-91.5 -64.5t-64.5 -91.5t-24.5 -106.5z" />
<glyph unicode="&#x26;" horiz-adv-x="1368" d="M41 319q0 70 22.5 135.5t71.5 130t129 127t197 128.5q-70 106 -97.5 171.5t-27.5 123.5q0 68 32.5 128t88 107t128 75t152.5 28q111 0 196 -56.5t130 -159.5l-29 -24q-41 96 -119.5 149.5t-183.5 53.5q-70 0 -133 -25t-112.5 -66.5t-79 -96t-29.5 -111.5q0 -55 30.5 -123 t96.5 -164l370 -531q78 109 136.5 244t87.5 289h245l-8 -41h-200q-35 -154 -94.5 -287t-141.5 -239l199 -285h-60l-170 246q-104 -125 -228 -195.5t-255 -70.5q-76 0 -139.5 24.5t-108.5 69.5t-70.5 107.5t-25.5 137.5zM86 324q0 -68 22.5 -123.5t62.5 -95t96 -61t124 -21.5 q123 0 238.5 68.5t214.5 189.5l-363 526q-207 -121 -301 -236.5t-94 -246.5z" />
<glyph unicode="'" horiz-adv-x="333" d="M260 1165l62 289h40l-61 -289h-41z" />
<glyph unicode="(" horiz-adv-x="466" d="M100 524q0 137 36 261t97.5 241t142.5 230.5t173 230.5l26 -25q-72 -84 -148.5 -193.5t-140 -230t-104.5 -248.5t-41 -249q0 -63 7.5 -136t21.5 -148t36.5 -148.5t51.5 -137.5l-37 -24q-59 135 -90 288.5t-31 288.5z" />
<glyph unicode=")" horiz-adv-x="466" d="M-66 -29q96 109 175 221.5t135.5 226t87 227.5t30.5 222q0 76 -8 158t-23.5 161t-36 150.5t-42.5 124.5l37 25q49 -137 83 -291.5t34 -308.5q0 -242 -117 -468t-328 -472z" />
<glyph unicode="*" horiz-adv-x="600" d="M279 1317l20 39l121 -45l31 143h38l-30 -143l143 45v-39l-139 -45l57 -117l-39 -25l-55 117l-104 -117l-27 25l104 117z" />
<glyph unicode="+" horiz-adv-x="839" d="M133 707v41h287v307h41v-307h287v-41h-287v-308h-41v308h-287z" />
<glyph unicode="," horiz-adv-x="526" d="M66 -166l51 146h-19l33 151h51l-32 -151l-56 -146h-28z" />
<glyph unicode="-" horiz-adv-x="827" d="M121 535l8 40h551l-8 -40h-551z" />
<glyph unicode="." horiz-adv-x="325" d="M16 0l29 131h39l-27 -131h-41z" />
<glyph unicode="/" horiz-adv-x="1087" d="M-53 0l1196 1454h51l-1196 -1454h-51z" />
<glyph unicode="0" horiz-adv-x="1202" d="M100 451q0 160 52.5 300t139.5 244.5t200.5 166t236.5 61.5q86 0 153.5 -35t114.5 -97.5t73 -149.5t26 -189q0 -160 -52.5 -300.5t-139.5 -246t-200.5 -165.5t-238.5 -60q-84 0 -151.5 34.5t-114.5 97t-73 149.5t-26 190zM141 451q0 -96 22.5 -175t65.5 -136.5 t104.5 -88.5t141.5 -31q117 0 222.5 56.5t185.5 155t126 231.5t46 287q0 96 -22.5 176t-65.5 136t-105.5 88t-140.5 32q-117 0 -222.5 -57.5t-185.5 -156t-126 -231.5t-46 -286z" />
<glyph unicode="1" horiz-adv-x="722" d="M4 0l8 41h277l225 1061q-20 -25 -64 -54.5t-96.5 -57t-105.5 -46t-92 -18.5l10 49q53 0 115.5 29.5t117 64.5t91 65.5t38.5 34.5h41l-239 -1128h248l-9 -41h-565z" />
<glyph unicode="2" horiz-adv-x="976" d="M-14 0q8 37 30.5 106.5t71.5 148.5t132 155.5t212 128.5q123 49 207 90t137 84t77 94t24 121q0 41 -15.5 81t-47.5 70.5t-81 50t-119 19.5q-72 0 -135 -24.5t-112.5 -55.5t-81 -59.5t-41.5 -38.5l-27 24l32 31t86 66.5t128 66.5t160 31q76 0 132 -21.5t93 -57.5t54.5 -82 t17.5 -95q0 -80 -26 -136.5t-83 -104.5t-148.5 -93t-222.5 -100q-111 -47 -185.5 -114t-121.5 -134.5t-69.5 -124.5t-28.5 -86h721l-11 -41h-759z" />
<glyph unicode="3" horiz-adv-x="1003" d="M-51 -39l41 14q10 -106 98 -170.5t223 -64.5q98 0 182.5 32.5t144.5 91t95 139.5t35 177q0 131 -81 208t-232 77h-43l8 41h45q201 0 312.5 96t111.5 262q0 123 -78 199t-207 76q-123 0 -229.5 -63.5t-167.5 -168.5l-33 15q66 117 184.5 187.5t253.5 70.5q147 0 233.5 -86 t86.5 -220q0 -76 -26.5 -142t-75 -118.5t-115 -86t-144.5 -44.5q113 -16 174.5 -100t61.5 -205q0 -104 -40 -191t-109.5 -151.5t-162 -100.5t-196.5 -36q-145 0 -239.5 70.5t-110.5 191.5z" />
<glyph unicode="4" horiz-adv-x="1021" d="M-55 147l8 35l930 987h28l-209 -981h172l-8 -41h-172l-86 -407h-41l86 407h-708zM10 188h652l192 906z" />
<glyph unicode="5" horiz-adv-x="1069" d="M-47 -6h43q29 -117 119 -187.5t219 -70.5q98 0 192.5 39t167 107.5t116.5 162.5t44 203q0 74 -24.5 136t-67.5 107.5t-103.5 70t-134.5 24.5q-111 0 -219 -51.5t-194 -149.5h-50q8 18 25.5 61t41.5 101.5t51.5 127t56.5 138.5q66 162 145 356h655l-8 -41h-622l-267 -665 q86 80 188.5 122t207.5 42q80 0 145 -28t113.5 -77t75 -117.5t26.5 -150.5q0 -123 -50 -225.5t-130 -176t-182.5 -115.5t-206.5 -42q-147 0 -245.5 82t-127.5 217z" />
<glyph unicode="6" horiz-adv-x="1189" d="M100 414q0 199 51.5 388t144.5 336.5t222 236.5t287 89q141 0 232 -80.5t104 -220.5l-41 -14q-6 61 -29.5 111.5t-63.5 87t-93.5 56t-116.5 19.5q-115 0 -216.5 -58t-184.5 -162.5t-144.5 -251t-93.5 -320.5q39 80 97 143.5t131 107.5t154 67.5t165 23.5t153.5 -32 t118.5 -87t76.5 -129t27.5 -160q0 -119 -50 -225.5t-134 -186t-191.5 -126.5t-220.5 -47q-86 0 -156.5 29.5t-121.5 86t-79 137t-28 181.5zM145 397q0 -78 26 -146.5t73 -119.5t111.5 -81t142.5 -30q100 0 197.5 43t174 117t122.5 170t46 203q0 78 -25.5 147.5t-72.5 120.5 t-111.5 81t-140.5 30q-102 0 -199.5 -44t-173 -118t-123 -171t-47.5 -202z" />
<glyph unicode="7" horiz-adv-x="1044" d="M43 -260l987 1413h-827l8 41h897l-1018 -1454h-47z" />
<glyph unicode="8" horiz-adv-x="1140" d="M51 326q0 88 38 162.5t96.5 133t131 99.5t144.5 59q-86 35 -145.5 104.5t-59.5 170.5q0 94 45 168.5t116.5 126t159 78t173.5 26.5q68 0 130 -19.5t109 -56.5t76 -90t29 -123q0 -74 -30 -134t-78 -108.5t-110.5 -84t-127.5 -58.5q109 -35 177 -122t68 -207 q0 -104 -49 -190.5t-128 -147t-180.5 -94t-205.5 -33.5q-92 0 -162.5 27.5t-119 73.5t-73 108.5t-24.5 130.5zM92 330q0 -74 31 -131.5t81 -97.5t113 -60.5t129 -20.5q84 0 173.5 31t163 87.5t121.5 135t48 175.5q0 74 -30.5 131t-80.5 97t-113.5 61.5t-129.5 21.5 q-84 0 -173 -31t-163 -88t-122 -136t-48 -175zM297 1059q0 -61 27.5 -109.5t71.5 -81t99.5 -50t112.5 -17.5q70 0 149 23.5t144.5 69.5t108.5 112.5t43 150.5q0 61 -26 108.5t-69 80t-100 50t-121 17.5q-80 0 -157.5 -24.5t-141 -70.5t-102.5 -111.5t-39 -147.5z" />
<glyph unicode="9" horiz-adv-x="1157" d="M18 -18l41 14q6 -61 30 -111.5t64 -87.5t93 -56.5t116 -19.5q113 0 215.5 58.5t185.5 163t144.5 250t93.5 321.5q-39 -80 -98 -143.5t-131 -107.5t-153.5 -67.5t-163.5 -23.5q-84 0 -154 32t-119 87t-76.5 129t-27.5 160q0 119 50 225t134 186t190.5 127t221.5 47 q86 0 156.5 -29.5t122 -86t79 -137.5t27.5 -181q0 -199 -51.5 -388t-144.5 -336.5t-223 -236.5t-286 -89q-141 0 -232 80.5t-104 220.5zM121 592q0 -78 25.5 -147.5t72.5 -121t110.5 -81t141.5 -29.5q100 0 198.5 44t174.5 118t123 171t47 202q0 78 -25.5 146.5t-73 119.5 t-112 80.5t-141.5 29.5q-102 0 -198.5 -43t-173.5 -116.5t-123 -170t-46 -202.5z" />
<glyph unicode=":" horiz-adv-x="317" d="M6 0l29 131h39l-27 -131h-41zM203 928l28 131h41l-28 -131h-41z" />
<glyph unicode=";" horiz-adv-x="329" d="M-29 -166l52 146h-19l33 151h51l-33 -151l-55 -146h-29zM209 928l29 131h41l-29 -131h-41z" />
<glyph unicode="&#x3c;" horiz-adv-x="1107" d="M63 512v37l855 510v-45l-795 -484l795 -485v-45z" />
<glyph unicode="=" horiz-adv-x="927" d="M152 473v41h600v-41h-600zM152 616v41h600v-41h-600z" />
<glyph unicode="&#x3e;" horiz-adv-x="1107" d="M154 0v45l794 485l-794 484v45l854 -510v-37z" />
<glyph unicode="?" horiz-adv-x="919" d="M193 1208q41 63 95 112.5t115.5 83.5t125 51.5t124.5 17.5t114.5 -19.5t93.5 -57.5t63.5 -94.5t23.5 -130.5q0 -119 -37 -192.5t-94 -120.5t-128 -80t-140 -67q-35 -18 -66.5 -40t-58.5 -60t-50.5 -96t-41.5 -148h-41q20 98 47 162.5t57.5 107.5t66.5 68.5t77 44.5 q61 31 125.5 58.5t119 70.5t89 111.5t34.5 180.5q0 68 -21.5 116t-56 81t-83 48.5t-99.5 15.5q-117 0 -232.5 -64.5t-189.5 -175.5zM213 0l37 172h41l-37 -172h-41z" />
<glyph unicode="@" horiz-adv-x="1619" d="M53 322q0 119 34 231.5t94.5 213.5t142.5 187t178 148.5t202.5 97.5t215.5 35q121 0 225 -44t181 -125t120 -194.5t43 -250.5q0 -121 -33 -238t-88 -209t-128 -149.5t-155 -57.5q-55 0 -79.5 29t-24.5 94q0 16 2 38t6 44q-70 -68 -160 -107.5t-174 -39.5q-66 0 -119 25.5 t-91.5 71.5t-59 111.5t-20.5 143.5q0 109 38.5 207t105 172.5t155 119t184.5 44.5t164.5 -46.5t103.5 -132.5l37 181h41l-154 -719q-10 -45 -12 -69.5t-2 -37.5q0 -88 80 -88q66 0 127 52.5t109.5 138.5t77 194.5t28.5 220.5q0 129 -40 236.5t-111.5 183.5t-169 118 t-214.5 42q-156 0 -303 -72.5t-262 -194.5t-184.5 -278.5t-69.5 -324.5q0 -125 40 -231.5t110.5 -184.5t170 -122t216.5 -44q150 0 303 78l12 -37q-86 -41 -173 -61.5t-165 -20.5q-121 0 -222 48t-175 132t-116 196.5t-42 244.5zM406 381q0 -68 18 -126t52 -100t82.5 -65.5 t107.5 -23.5q51 0 105 17t103.5 47t87 70t56.5 85l82 399q-27 92 -94.5 142.5t-163.5 50.5q-86 0 -165 -41t-139.5 -109t-96 -158t-35.5 -188z" />
<glyph unicode="A" horiz-adv-x="1325" d="M-80 0l911 1454h37l291 -1454h-45l-104 520h-719l-326 -520h-45zM315 561h686l-163 834z" />
<glyph unicode="B" horiz-adv-x="1286" d="M68 0l309 1454h612q61 0 107.5 -25.5t77 -66.5t46 -94.5t15.5 -110.5q0 -68 -21.5 -130t-59.5 -116.5t-89 -96.5t-111 -69q92 -31 140.5 -113.5t48.5 -185.5q0 -88 -38 -168.5t-99.5 -142t-139.5 -98.5t-157 -37h-641zM117 41h600q72 0 140.5 35t122.5 91t87 128t33 145 q0 55 -15.5 104.5t-45 86.5t-71.5 59.5t-96 22.5h-612zM268 754h559q72 0 138.5 34.5t117 91t81 128t30.5 143.5q0 53 -14.5 100t-42 83t-67.5 57.5t-91 21.5h-569z" />
<glyph unicode="C" horiz-adv-x="1357" d="M106 600q0 147 61.5 301t172.5 279t261.5 203.5t328.5 78.5q92 0 165.5 -23.5t128 -65.5t90.5 -100.5t52 -127.5l-41 -12q-23 80 -65.5 135t-97 89t-119 49t-130.5 15q-166 0 -306 -74.5t-242.5 -193.5t-160 -265.5t-57.5 -287.5q0 -117 34 -220.5t95.5 -181 t149.5 -123.5t197 -46q68 0 143.5 18.5t150 55t144 95t127.5 138.5l37 -10q-53 -82 -127 -145.5t-157 -106.5t-169 -64.5t-166 -21.5q-119 0 -212 51t-156.5 137t-97.5 196.5t-34 227.5z" />
<glyph unicode="D" horiz-adv-x="1400" d="M68 0l309 1454h444q133 0 230.5 -43t161 -117.5t94 -175t30.5 -217.5q0 -195 -61.5 -359.5t-172 -284.5t-262 -188.5t-329.5 -68.5h-444zM117 41h403q182 0 326.5 69.5t244 187.5t152.5 271.5t53 321.5q0 115 -30.5 211t-91 164.5t-151.5 107.5t-210 39h-403z" />
<glyph unicode="E" d="M68 0l309 1454h889l-9 -41h-847l-140 -649h744l-8 -41h-744l-145 -682h866l-8 -41h-907z" />
<glyph unicode="F" d="M68 0l309 1454h889l-9 -41h-847l-138 -647h723l-8 -41h-725l-153 -725h-41z" />
<glyph unicode="G" horiz-adv-x="1409" d="M106 598q0 158 67 313.5t177.5 278.5t256 198.5t302.5 75.5q106 0 185.5 -23.5t133.5 -65.5t88 -100t52 -128l-41 -12q-47 154 -156.5 221t-271.5 67q-156 0 -293 -74.5t-238.5 -193.5t-161 -265.5t-59.5 -289.5q0 -115 34 -218t96.5 -181t151.5 -124t198 -46 q135 0 271 65.5t284 208.5l73 346h-323l8 41h365l-148 -692h-41l53 248q-270 -258 -551 -258q-123 0 -218 52t-160.5 137t-99.5 194.5t-34 224.5z" />
<glyph unicode="H" horiz-adv-x="1435" d="M68 0l309 1454h41l-148 -690h957l147 690h41l-309 -1454h-41l154 723h-957l-153 -723h-41z" />
<glyph unicode="I" horiz-adv-x="438" d="M68 0l309 1452h41l-309 -1452h-41z" />
<glyph unicode="J" horiz-adv-x="937" d="M-66 68l29 32q94 -82 260 -82q123 0 207 48.5t140.5 137.5t95.5 218t73 293l158 737h41l-158 -737q-35 -166 -76.5 -302.5t-104 -232.5t-155 -149.5t-229.5 -53.5q-174 0 -281 91z" />
<glyph unicode="K" horiz-adv-x="1210" d="M68 0l309 1452h41l-201 -942l1077 944h60l-725 -635l442 -819h-53l-426 791l-387 -338l-96 -453h-41z" />
<glyph unicode="L" horiz-adv-x="1130" d="M68 0l309 1454h41l-301 -1413h866l-8 -41h-907z" />
<glyph unicode="M" horiz-adv-x="1732" d="M68 0l309 1454h33l397 -1118l872 1118h33l-309 -1454h-41l289 1364l-838 -1077h-33l-381 1077l-290 -1364h-41z" />
<glyph unicode="N" horiz-adv-x="1521" d="M68 0l309 1454h31l757 -1395l295 1393h41l-309 -1452h-45l-746 1374l-292 -1374h-41z" />
<glyph unicode="O" horiz-adv-x="1486" d="M106 588q0 168 70 325.5t184.5 280.5t261 196.5t302.5 73.5q121 0 215 -51t158.5 -135t97 -192.5t32.5 -223.5q0 -166 -69.5 -323.5t-184 -279.5t-261 -195.5t-302.5 -73.5q-121 0 -215 49t-158.5 132t-97.5 191.5t-33 225.5zM147 594q0 -113 32 -215.5t93.5 -179 t149.5 -122.5t199 -46q154 0 293 73.5t243.5 192.5t166.5 266.5t62 294.5q0 113 -32.5 215.5t-94 180t-148.5 123.5t-196 46q-154 0 -293 -73.5t-244.5 -192.5t-168 -266.5t-62.5 -296.5z" />
<glyph unicode="P" horiz-adv-x="1218" d="M68 0l309 1454h563q72 0 129 -30.5t96 -82t59.5 -116t20.5 -133.5q0 -94 -39 -187.5t-104.5 -167t-152.5 -120t-183 -46.5h-537l-120 -571h-41zM240 612h534q90 0 169 43t137.5 112t91 153t32.5 165q0 66 -19.5 125.5t-55 104.5t-87 71.5t-112.5 26.5h-520z" />
<glyph unicode="Q" horiz-adv-x="1484" d="M106 588q0 168 70 325.5t184.5 280.5t262 196.5t303.5 73.5q121 0 215 -51t157.5 -135t96 -192.5t32.5 -223.5q0 -98 -24.5 -194.5t-69.5 -184.5t-107.5 -165.5t-138.5 -139.5l99 -178h-51l-82 150q-98 -76 -211 -118t-230 -42q-121 0 -215 49t-158.5 132t-98.5 191.5 t-34 225.5zM147 594q0 -113 32 -215.5t93.5 -179t149.5 -122.5t199 -46q113 0 217 40t196 111l-108 199h51l92 -170q72 61 130 136t100 160t64.5 174t22.5 177q0 113 -32.5 215.5t-93 180t-147.5 123.5t-195 46q-154 0 -293.5 -73.5t-246 -192.5t-169 -266.5t-62.5 -296.5z " />
<glyph unicode="R" horiz-adv-x="1261" d="M68 0l309 1454h563q72 0 129 -30.5t96 -82t59.5 -116t20.5 -133.5q0 -94 -37 -184.5t-98 -163t-144 -119.5t-175 -54l227 -571h-49l-228 571h-512l-120 -571h-41zM240 612h534q90 0 168 43t136.5 111t92 151.5t33.5 167.5q0 66 -19.5 125.5t-55 104.5t-87 71.5 t-112.5 26.5h-520z" />
<glyph unicode="S" horiz-adv-x="1185" d="M-2 215l35 27q82 -115 193.5 -166t271.5 -51q119 0 215 25.5t163.5 74.5t104.5 121.5t37 169.5q0 61 -24.5 107t-74 80t-123 58.5t-171.5 47.5q-96 20 -172 42.5t-128.5 55.5t-80 81t-27.5 118q0 106 42 191t119 144.5t182.5 91t232.5 31.5q133 0 223 -40t151 -134 l-32 -28q-61 96 -142.5 129.5t-204.5 33.5q-141 0 -241.5 -31.5t-164 -88t-93 -131t-29.5 -160.5q0 -59 22.5 -100.5t68.5 -71t117 -52t165 -42.5q96 -23 175 -47.5t135 -60.5t87 -88t31 -126q0 -102 -41 -183t-116 -137.5t-181.5 -86t-235.5 -29.5q-166 0 -284.5 54 t-204.5 171z" />
<glyph unicode="T" horiz-adv-x="1175" d="M201 1413l8 41h1098l-9 -41h-528l-301 -1413h-41l301 1413h-528z" />
<glyph unicode="U" horiz-adv-x="1480" d="M170 463q0 63 8 129.5t23 134.5l153 727h41l-153 -727q-14 -66 -22.5 -131.5t-8.5 -126.5q0 -92 20.5 -172t67.5 -139.5t125 -93t192 -33.5q156 0 270.5 61.5t195.5 159.5t131.5 223t76.5 252l154 727h41l-154 -727q-31 -145 -88 -278.5t-144 -234.5t-208 -162.5 t-281 -61.5q-125 0 -209 36.5t-135 101.5t-73.5 151t-22.5 184z" />
<glyph unicode="V" horiz-adv-x="1318" d="M207 1454h43l282 -1403l875 1403h45l-909 -1454h-45z" />
<glyph unicode="W" horiz-adv-x="2019" d="M207 1454h45l280 -1403l496 797l-121 594h45l107 -545l342 545h45l-375 -594l162 -797l874 1403h45l-909 -1454h-45l-158 797l-497 -797h-45z" />
<glyph unicode="X" d="M-96 0l694 717l-401 737h53l381 -704l682 704h51l-715 -737l389 -717h-51l-369 684l-661 -684h-53z" />
<glyph unicode="Y" horiz-adv-x="1216" d="M199 1454h47l352 -844l713 844h47l-750 -891l-121 -563h-41l121 567z" />
<glyph unicode="Z" horiz-adv-x="1202" d="M-82 0l8 41l1344 1372h-1043l11 41h1093l-10 -41l-1344 -1372h1045l-8 -41h-1096z" />
<glyph unicode="[" horiz-adv-x="442" d="M47 -82l340 1598h137l-8 -41h-98l-322 -1516h99l-9 -41h-139z" />
<glyph unicode="\" horiz-adv-x="983" d="M213 1454h53l537 -1454h-51z" />
<glyph unicode="]" horiz-adv-x="440" d="M-41 -82l8 41h99l321 1516h-96l8 41h137l-338 -1598h-139z" />
<glyph unicode="^" horiz-adv-x="1034" d="M113 621l405 833h37l403 -833h-47l-374 774l-381 -774h-43z" />
<glyph unicode="_" horiz-adv-x="1050" d="M-2 -41l8 41h764l-8 -41h-764z" />
<glyph unicode="`" horiz-adv-x="387" d="M113 1495h65l94 -149l-36 -25z" />
<glyph unicode="a" horiz-adv-x="1187" d="M63 430q0 123 49.5 239.5t132.5 208t190.5 146.5t221.5 55q72 0 130.5 -21.5t102.5 -57t76.5 -84t51.5 -101.5l53 248h43l-209 -973q-4 -12 -4 -24q0 -25 25 -25l-8 -41q-12 0 -19 2q-39 12 -39 57q0 4 1 10.5t4 21.5t9.5 46t16.5 84q-43 -53 -96.5 -97t-111.5 -77 t-120 -50t-121 -17q-88 0 -158.5 37.5t-119.5 100t-75 144.5t-26 168zM104 430q0 -82 26 -155.5t72 -130t108 -90.5t136 -34q66 0 141 27t142.5 72t118.5 103.5t70 123.5l81 383q-8 61 -37.5 116.5t-76.5 98.5t-109.5 68.5t-134.5 25.5q-106 0 -203.5 -54t-171 -142 t-118 -196.5t-44.5 -215.5z" />
<glyph unicode="b" horiz-adv-x="1179" d="M35 0l317 1495h41l-143 -680q104 117 219 190.5t246 73.5q94 0 162.5 -39t114.5 -100t68.5 -140t22.5 -159q0 -129 -53 -248t-139 -211t-195.5 -147t-222.5 -55q-68 0 -124 19t-100 53t-76 78t-50 91l-47 -221h-41zM139 289q23 -125 117 -197t221 -72q109 0 210 53.5 t180 140.5t126 197.5t47 227.5q0 76 -22.5 148.5t-65.5 128t-106.5 89t-145.5 33.5q-70 0 -133 -23.5t-120.5 -63.5t-110.5 -92t-103 -109z" />
<glyph unicode="c" horiz-adv-x="1052" d="M63 430q0 131 51.5 250t137.5 207t197.5 140t230.5 52q129 0 215 -62.5t115 -174.5l-45 -15q-29 98 -109 154.5t-190 56.5q-106 0 -208 -48t-179.5 -130t-126 -191.5t-48.5 -230.5q0 -86 26 -162.5t71 -133t108.5 -89.5t141.5 -33q59 0 121.5 18.5t117.5 49.5t99.5 72 t64.5 84l39 -13q-29 -53 -77 -99t-108.5 -80t-126.5 -53t-132 -19q-86 0 -157 34.5t-122 96t-79 143.5t-28 176z" />
<glyph unicode="d" horiz-adv-x="1185" d="M63 432q0 123 49.5 238.5t132.5 207t191.5 146.5t225.5 55q70 0 127 -21.5t101 -57t76.5 -84t51.5 -101.5l143 680h43l-301 -1407q-2 -6 -2 -11v-9q0 -27 25 -27l-8 -41q-12 0 -25 4q-33 12 -33 57v7.5t3 20.5t9.5 46t18.5 86q-43 -53 -96.5 -97t-111.5 -77t-119 -50 t-118 -17q-90 0 -161.5 37.5t-120.5 100t-75 144.5t-26 170zM104 436q0 -84 25 -159.5t71 -132t110.5 -90.5t144.5 -34q59 0 131.5 27t140.5 71t120 103.5t71 124.5l81 383q-8 63 -39.5 119.5t-80 98.5t-106.5 66.5t-120 24.5q-113 0 -213 -54t-175 -140t-118 -193.5 t-43 -214.5z" />
<glyph unicode="e" horiz-adv-x="1067" d="M63 430q0 121 47.5 237.5t130.5 208t195.5 147.5t245.5 56q51 0 107.5 -18.5t101.5 -53t74.5 -87t29.5 -121.5q0 -291 -536 -291q-78 0 -160 2t-186 8q-6 -43 -7 -86q0 -84 23 -158.5t68 -131t112.5 -89.5t155.5 -33q55 0 114.5 17.5t115 48.5t101.5 76t76 100l39 -12 q-35 -61 -85 -111.5t-110.5 -85.5t-127.5 -54t-137 -19q-92 0 -164 35.5t-121 97t-76 143.5t-27 174zM121 559q104 -6 185 -8t159 -2q135 0 228 18.5t150.5 52t83 79.5t25.5 102q0 61 -26.5 106t-67.5 75t-90 43t-94 13q-100 0 -190.5 -40t-163 -106.5t-125 -153.5 t-74.5 -179z" />
<glyph unicode="f" horiz-adv-x="598" d="M-25 -436l310 1458h-146l8 41h148l8 43q39 195 133 302.5t221 107.5q55 0 102.5 -19.5t67.5 -50.5l-36 -25q-18 25 -56.5 40.5t-83.5 15.5q-111 0 -191.5 -95.5t-115.5 -275.5l-8 -43h299l-8 -41h-301l-310 -1458h-41z" />
<glyph unicode="g" horiz-adv-x="1179" d="M-45 -203l41 13q18 -59 52 -102.5t80 -71t102.5 -40t117.5 -12.5q82 0 161 23.5t143.5 71t111.5 116t67 160.5l58 266q-43 -53 -96.5 -97t-111.5 -77t-119.5 -50t-119.5 -17q-90 0 -160.5 37.5t-119.5 100t-75 144.5t-26 170q0 119 49.5 234.5t131.5 208t190.5 148.5 t226.5 56q68 0 123.5 -20.5t98.5 -56t76.5 -84t58.5 -103.5l53 248h39l-236 -1108q-23 -104 -76 -182t-125.5 -129.5t-158.5 -76t-172 -24.5q-90 0 -155.5 18.5t-110.5 52.5t-74 80t-45 103zM102 436q0 -84 25 -159.5t71 -132t110.5 -90.5t144.5 -34q72 0 146.5 30t139 77 t112.5 104.5t64 114.5l82 383q-10 68 -40.5 124t-76.5 97t-105.5 64.5t-123.5 23.5q-117 0 -217 -56t-174 -144t-116 -194.5t-42 -207.5z" />
<glyph unicode="h" horiz-adv-x="1105" d="M35 0l317 1495h41l-149 -707q45 66 102 120.5t120.5 92t130.5 58t132 20.5q242 0 242 -284q0 -90 -25 -203l-125 -592h-41l125 592q10 55 17.5 104t7.5 90q0 252 -209 252q-72 0 -144.5 -28.5t-140 -77.5t-124 -115.5t-93.5 -144.5l-143 -672h-41z" />
<glyph unicode="i" horiz-adv-x="372" d="M35 0l225 1063h41l-225 -1063h-41zM319 1337l33 158h41l-33 -158h-41z" />
<glyph unicode="j" horiz-adv-x="389" d="M-422 -279l37 25q29 -33 69 -43t80 -10q39 0 83 18.5t82 49t67 73.5t39 92l241 1137h41l-241 -1137q-12 -59 -47 -109t-80 -87t-95.5 -57.5t-95.5 -20.5q-57 0 -104 14.5t-76 54.5zM336 1337l33 158h41l-33 -158h-41z" />
<glyph unicode="k" horiz-adv-x="1067" d="M35 0l317 1495h41l-170 -799q133 197 277.5 294t287.5 97q123 0 191 -56t68 -159q0 -68 -33 -128t-92.5 -109t-145.5 -85t-192 -54l245 -496h-49l-254 522q231 45 353 133t122 211q0 86 -57 134.5t-162 48.5q-135 0 -273 -99.5t-298 -312.5l-135 -637h-41z" />
<glyph unicode="l" horiz-adv-x="458" d="M74 115v20t4 23l284 1337h41l-284 -1337q-2 -10 -3 -17.5t-1 -15.5q0 -96 106 -96q23 0 53.5 5t57.5 13l6 -33q-29 -10 -70.5 -17t-70.5 -7q-57 0 -90 33.5t-33 91.5z" />
<glyph unicode="m" horiz-adv-x="1773" d="M35 0l225 1063h41l-57 -275q96 139 213.5 215t238.5 76q115 0 178.5 -71.5t63.5 -200.5v-24.5t-2 -24.5q39 78 93 138t116.5 101t130 61.5t133.5 20.5q231 0 231 -268q0 -45 -6 -100.5t-20 -118.5l-125 -592h-41l125 592q24 114 24 200v7q0 239 -198 239h-2 q-70 0 -138.5 -26.5t-130 -75.5t-113.5 -116.5t-91 -149.5l-142 -670h-41l125 592q14 63 20.5 116.5t6.5 96.5q0 233 -199 233q-72 0 -139.5 -26.5t-128.5 -74.5t-114.5 -115.5t-92.5 -149.5l-143 -672h-41z" />
<glyph unicode="n" horiz-adv-x="1105" d="M35 0l225 1063h41l-57 -275q45 63 104.5 118t126 92.5t137 59t138.5 21.5q115 0 170 -62.5t55 -195.5q0 -49 -7 -106.5t-22 -122.5l-125 -592h-41l125 592q27 125 27 219q0 117 -46 172t-145 55q-72 0 -148.5 -27.5t-147 -76.5t-130 -116.5t-96.5 -145.5l-143 -672h-41z " />
<glyph unicode="o" horiz-adv-x="1148" d="M61 424q0 129 53.5 248t140.5 210t196.5 144t222.5 53q84 0 153.5 -34.5t118.5 -96t77 -143.5t28 -174q0 -127 -53.5 -245t-139.5 -208t-195.5 -144t-222.5 -54q-86 0 -155.5 34.5t-119.5 95t-77 141.5t-27 173zM102 428q0 -84 25 -158.5t71 -130t108 -87.5t140 -32 q102 0 204 50.5t181.5 133.5t129 192.5t49.5 228.5q0 86 -26 160.5t-71 131t-108.5 89t-138.5 32.5q-102 0 -203 -50t-180.5 -135t-130 -195.5t-50.5 -229.5z" />
<glyph unicode="p" horiz-adv-x="1181" d="M-57 -436l319 1499h39l-47 -225q43 53 96 97t111.5 76.5t120 50t118.5 17.5q90 0 161 -37.5t120 -101t74.5 -145.5t25.5 -168q0 -121 -47 -237t-129 -207t-190.5 -147t-231.5 -56q-68 0 -123 21.5t-100 57t-77.5 83.5t-53.5 102l-145 -680h-41zM145 330q14 -66 45 -122 t75 -97t101.5 -66t125.5 -25q113 0 213 54.5t174.5 140.5t117.5 193.5t43 214.5q0 82 -24.5 157.5t-70.5 133t-110.5 91t-144.5 33.5q-59 0 -132 -26.5t-140.5 -71.5t-119.5 -104.5t-71 -122.5z" />
<glyph unicode="q" horiz-adv-x="1179" d="M59 420q0 127 53.5 245.5t140.5 211t197.5 147.5t227.5 55q57 0 111.5 -18.5t99.5 -51t78.5 -76.5t52.5 -95l47 225h41l-301 -1417q-2 -2 -2 -15q0 -27 24 -26l-8 -41q-57 0 -57 63q0 16 2 19l127 598q-113 -129 -230.5 -196.5t-236.5 -67.5q-90 0 -158.5 36.5t-115 97 t-70 140.5t-23.5 166zM100 426q0 -82 22.5 -155.5t65.5 -129t105.5 -88.5t140.5 -33q70 0 138.5 26t130 69t114.5 98t94 117l88 403q-10 61 -36.5 117.5t-68.5 97.5t-98.5 65.5t-125.5 24.5q-113 0 -215.5 -54t-181 -141t-126 -196.5t-47.5 -220.5z" />
<glyph unicode="r" horiz-adv-x="649" d="M35 0l225 1063h41l-57 -275q84 125 192.5 194t218.5 79q10 2 19.5 2h19.5l-8 -41q-145 -6 -269 -98.5t-198 -251.5l-143 -672h-41z" />
<glyph unicode="s" horiz-adv-x="921" d="M-25 152l35 26q61 -80 138 -119t186 -39q84 0 155.5 21.5t125 59.5t84 93.5t30.5 122.5q0 45 -20.5 77t-59.5 54.5t-95 41t-128 36.5q-68 16 -119 32.5t-87 38t-54.5 53.5t-18.5 79q0 88 36 154.5t96.5 109.5t137.5 64.5t158 21.5q123 0 200 -44t97 -109l-38 -17 q-23 63 -101 96t-174 33q-72 0 -138.5 -17t-117.5 -54t-82 -93.5t-31 -132.5q0 -39 15.5 -65.5t46.5 -45t77 -32.5t107 -31q76 -20 138.5 -38.5t106.5 -45t67.5 -62.5t23.5 -89q0 -78 -33.5 -142.5t-93 -111.5t-141.5 -72.5t-178 -25.5q-117 0 -205 41.5t-146 130.5z" />
<glyph unicode="t" horiz-adv-x="575" d="M98 119q0 8 1 16t3 19l185 868h-146l9 41h147l78 371h41l-78 -371h242l-9 -41h-243l-164 -764q-12 -57 -17.5 -82.5t-5.5 -40.5q0 -51 33 -77.5t80 -26.5q33 0 63.5 7t54 16t39 17.5t17.5 10.5l14 -33l-16 -10t-44 -20.5t-63.5 -19.5t-74.5 -9q-63 0 -104.5 34.5 t-41.5 94.5z" />
<glyph unicode="u" horiz-adv-x="1128" d="M96 264q0 88 25 203l127 596h41l-127 -596q-25 -115 -25 -199q0 -248 215 -248q74 0 148.5 28t143.5 76t127 115.5t97 147.5l144 676h41l-197 -926q-4 -23 -9 -43t-5 -24q0 -29 26 -29l-10 -41q-55 0 -55 61q0 2 1 10.5t5 30t12 61.5t23 107q-47 -68 -105.5 -121 t-124 -91t-135 -58t-137.5 -20q-246 0 -246 284z" />
<glyph unicode="v" horiz-adv-x="923" d="M131 1063h43l160 -1006q100 113 185 242t153.5 261t121 260t89.5 243h41q-84 -268 -223.5 -538.5t-362.5 -524.5h-37z" />
<glyph unicode="w" horiz-adv-x="1480" d="M125 1063h43l180 -1006q119 129 215 275.5t172 294.5l-78 436h43l66 -373q47 98 85 192.5t67 180.5h40q-35 -111 -79.5 -221.5t-100.5 -220.5l103 -564q104 113 192 242t160 261t126 260t91 243h41q-86 -268 -230.5 -538.5t-375.5 -524.5h-37l-100 559 q-78 -143 -175.5 -283.5t-220.5 -275.5h-37z" />
<glyph unicode="x" horiz-adv-x="933" d="M-90 0l512 528l-291 535h53l260 -479l11 -25l485 504h53l-518 -535l289 -528h-53l-258 475l-11 25l-479 -500h-53z" />
<glyph unicode="y" horiz-adv-x="942" d="M-76 -424q61 12 105.5 32.5t81 54.5t72.5 85t83 123l84 129l-244 1063h46l229 -1012l119 189q96 154 162.5 266t112.5 205.5t78 176.5t58 175h43q-29 -98 -59.5 -183t-77.5 -179.5t-115.5 -211t-171.5 -278.5l-168 -264q-74 -115 -126 -189.5t-100 -119t-96 -66 t-112 -31.5z" />
<glyph unicode="z" horiz-adv-x="935" d="M-74 0l8 41l977 981h-757l8 41h809l-8 -41l-975 -981h760l-11 -41h-811z" />
<glyph unicode="{" horiz-adv-x="444" d="M61 -25q0 14 2 23l134 625q4 20 4 34q0 23 -9.5 40.5t-33.5 21.5l8 41q20 0 34.5 12t23.5 27.5t13.5 31t6.5 21.5l129 602q8 41 27.5 51.5t29.5 10.5h102l-8 -41h-106l-133 -623q-2 -10 -15.5 -48t-50.5 -67q12 -14 16.5 -32.5t4.5 -36.5q0 -16 -2 -28.5t-2 -16.5 l-138 -646h109l-10 -40h-103q-12 0 -22.5 8t-10.5 30z" />
<glyph unicode="|" horiz-adv-x="520" d="M250 -266v1853h41v-1853h-41z" />
<glyph unicode="}" horiz-adv-x="446" d="M-41 -63l8 40h107l137 646q2 10 16.5 48t48.5 66q-12 16 -16 35t-4 35q0 33 4 45l133 623h-106l8 41h102q6 0 20.5 -7.5t14.5 -35.5q0 -12 -2 -19l-129 -602q-4 -12 -4 -35q0 -20 8 -38.5t35 -18.5l-8 -41q-35 -4 -54.5 -35t-25.5 -61l-131 -625q-8 -35 -25.5 -48 t-34.5 -13h-102z" />
<glyph unicode="~" horiz-adv-x="905" d="M115 514q0 2 9 28.5t30.5 57.5t53.5 55.5t79 24.5q41 0 78.5 -19.5t74.5 -43t74 -43t78 -19.5q37 0 63.5 15.5t45 36t26.5 38t8 21.5l41 -2q-10 -25 -24.5 -51.5t-36 -48t-52 -36t-71.5 -14.5q-49 0 -90 19.5t-78 43t-71 43t-66 19.5q-31 0 -55.5 -19.5t-42 -42 t-25.5 -42t-8 -21.5h-41z" />
<glyph unicode="&#xa1;" horiz-adv-x="458" d="M78 0l225 1059h41l-225 -1059h-41zM344 1296l45 172h41l-35 -172h-51z" />
<glyph unicode="&#xa2;" horiz-adv-x="1069" d="M63 430q0 117 47.5 230.5t126 204.5t183 149.5t221.5 64.5l51 242h39l-51 -242q76 -2 131 -20.5t94 -50t63.5 -73.5t39.5 -93l-43 -15q-33 106 -110 156.5t-183 54.5l-217 -1018q47 0 106.5 15.5t116.5 45.5t105 71t71 92l39 -13q-33 -61 -86 -108t-114.5 -79t-126 -48 t-120.5 -16l-49 -226h-39l50 228q-82 6 -146.5 47t-108.5 102.5t-67 139t-23 159.5zM104 434q0 -78 21.5 -149.5t62.5 -128t98.5 -92t129.5 -41.5l215 1015q-115 -6 -211 -64.5t-166 -145.5t-110 -191.5t-40 -202.5z" />
<glyph unicode="&#xa3;" horiz-adv-x="913" d="M-8 20q129 117 203.5 195t113.5 137.5t49.5 110.5t10.5 117q0 63 -17 129h-229l8 41h211q-23 84 -50.5 158.5t-27.5 156.5q0 80 35 152.5t90 127t127 87t146 32.5q98 0 169.5 -58t100.5 -157l-39 -24q-29 92 -93.5 145t-150.5 53q-63 0 -123.5 -27.5t-108.5 -75.5 t-78 -111.5t-30 -133.5q0 -82 29 -159.5t51 -165.5h340l-10 -41h-322q6 -29 10.5 -60t4.5 -63q0 -63 -10.5 -118.5t-46.5 -116t-102.5 -135.5t-178.5 -179q33 6 69.5 10t71.5 4q45 0 80 -6t66.5 -14t63.5 -14.5t69 -6.5q41 0 88 10.5t112 32.5l4 -39q-115 -45 -215 -45 q-43 0 -77.5 6.5t-67.5 14.5t-67.5 14t-77.5 6q-41 0 -93.5 -7t-95.5 -17z" />
<glyph unicode="&#xa4;" horiz-adv-x="1128" d="M160 303l143 141q-90 102 -90 242q0 68 22.5 129.5t63.5 110.5l-139 139l30 29l138 -138q47 47 109.5 73t133.5 26q74 0 138.5 -28t111.5 -75l144 142l30 -29l-145 -143q39 -49 61.5 -109.5t22.5 -126.5t-23.5 -127t-64.5 -110l149 -146l-30 -29l-148 146 q-49 -47 -111.5 -72.5t-134.5 -25.5t-132 24.5t-107 67.5l-142 -140zM256 684q0 -68 24.5 -127t67.5 -103t100.5 -70t122.5 -26q66 0 124.5 27t101.5 72t68.5 104.5t25.5 126.5q0 68 -25.5 128.5t-68.5 104.5t-101.5 69.5t-124.5 25.5q-63 0 -120.5 -25.5t-100.5 -71 t-68.5 -105.5t-25.5 -130z" />
<glyph unicode="&#xa5;" horiz-adv-x="1284" d="M229 1454h47l353 -844l712 844h48l-635 -756h180l-8 -41h-207l-80 -94l-10 -49h266l-8 -41h-266l-103 -473h-41l103 473h-267l9 41h266l10 53l-37 90h-209l10 41h183z" />
<glyph unicode="&#xa6;" horiz-adv-x="507" d="M244 -266v850h41v-850h-41zM244 737v850h41v-850h-41z" />
<glyph unicode="&#xa7;" horiz-adv-x="958" d="M4 -12l37 26q61 -78 132 -115.5t169 -37.5q63 0 132 23.5t126 67.5t94 107.5t37 143.5q0 57 -23.5 93t-61.5 56.5t-85 27.5t-96 9q-63 2 -118.5 16.5t-97.5 45t-65.5 76.5t-23.5 112q0 74 34.5 142.5t77.5 109.5q-35 25 -53 75t-18 109q0 94 43 167t107.5 122t141 74.5 t144.5 25.5q63 0 111.5 -10t82 -29.5t57 -48t40.5 -65.5l-41 -17q-10 39 -38 64.5t-64.5 40t-77.5 19.5t-78 5q-63 0 -131 -23.5t-124.5 -67.5t-93 -107.5t-36.5 -143.5q0 -115 75.5 -162t196.5 -47q61 0 117.5 -13t99.5 -43t69.5 -76t26.5 -111q0 -74 -34.5 -144.5 t-85.5 -113.5q68 -47 67 -154q0 -96 -43 -171t-109.5 -125t-144.5 -75.5t-147 -25.5q-125 0 -201 49t-127 119zM201 639q0 -66 25.5 -104.5t65.5 -61t92 -33t104.5 -16.5t100.5 -12t83 -23q49 37 82.5 101.5t33.5 130.5q0 59 -25.5 100t-66.5 65.5t-90 34.5t-98 10 q-57 0 -108.5 9.5t-92.5 29.5q-43 -35 -74.5 -97t-31.5 -134z" />
<glyph unicode="&#xa8;" horiz-adv-x="464" d="M82 1337l33 158h41l-33 -158h-41zM309 1337l33 158h41l-33 -158h-41z" />
<glyph unicode="&#xa9;" horiz-adv-x="1712" d="M139 727q0 158 56.5 293t155 233.5t233.5 154.5t295 56t295 -56t233 -154.5t154.5 -233.5t56.5 -293q0 -160 -56.5 -295t-154.5 -234.5t-233 -155.5t-295 -56t-295 56t-233.5 155.5t-155 234.5t-56.5 295zM182 725q0 -150 52.5 -278t145.5 -221t221 -146t280 -53 q147 0 273 50t220 142t147.5 220t53.5 282q0 152 -52.5 280.5t-145.5 222t-220 146.5t-276 53q-152 0 -279 -52t-221 -146.5t-146.5 -222.5t-52.5 -277zM444 727q0 82 26 166t78 152.5t134 111.5t195 43q115 0 211 -49t137 -154l-39 -14q-25 55 -63 90t-82 54.5t-88 25.5 t-76 6q-102 0 -176 -40t-121.5 -102.5t-71 -139t-23.5 -150.5q0 -102 38 -181t96.5 -133.5t129 -83t136.5 -28.5q45 0 93 13.5t93 37t81 58t54 77.5l39 -10q-8 -27 -36.5 -64.5t-75 -71.5t-107.5 -57.5t-133 -23.5q-78 0 -158 31t-144.5 91t-105.5 147t-41 198z" />
<glyph unicode="&#xaa;" horiz-adv-x="827" d="M162 901q0 55 26.5 100.5t72.5 77t107.5 50t133.5 18.5q125 0 215 -39l14 72q6 31 6 57q0 76 -44 120t-130 44q-104 0 -244 -84l-16 41q156 94 275 94q106 0 163.5 -51t57.5 -150q0 -18 -2 -37.5t-6 -39.5l-74 -351q-2 -2 -2 -12q0 -20 22 -20l-12 -60q-35 0 -52.5 9.5 t-17.5 37.5q0 10 2 15l11 59q-61 -63 -145.5 -98t-172.5 -35q-86 0 -137 52t-51 130zM223 911q0 -59 41 -99t109 -40q47 0 98 12.5t95 35t75 52t39 64.5l27 125q-47 23 -98.5 31t-108.5 8q-119 0 -198 -50.5t-79 -138.5z" />
<glyph unicode="&#xab;" horiz-adv-x="1017" d="M66 512l8 37l534 346l-10 -45l-489 -320l354 -321l-10 -45zM399 512l7 37l536 346l-10 -45l-492 -320l355 -321l-9 -45z" />
<glyph unicode="&#xac;" horiz-adv-x="1105" d="M184 651l9 41h786l-86 -405h-41l78 364h-746z" />
<glyph unicode="&#xad;" horiz-adv-x="1062" d="M121 535l8 40h786l-8 -40h-786z" />
<glyph unicode="&#xae;" horiz-adv-x="1712" d="M139 727q0 158 56.5 293t155 233.5t233.5 154.5t295 56t295 -56t233 -154.5t154.5 -233.5t56.5 -293q0 -160 -56.5 -295t-154.5 -234.5t-233 -155.5t-295 -56t-295 56t-233.5 155.5t-155 234.5t-56.5 295zM182 727q0 -152 52.5 -280t145.5 -221t220 -146t279 -53 q147 0 274 50t221 142t147.5 221t53.5 287q0 150 -52.5 276.5t-145.5 220t-221 146.5t-277 53q-150 0 -278 -53t-221 -146.5t-145.5 -220t-52.5 -276.5zM582 248v946h385q57 0 106 -24.5t85 -65.5t55.5 -92t19.5 -105q0 -55 -17.5 -105t-49 -89t-77 -63.5t-98.5 -28.5 l240 -373h-49l-238 373h-319v-373h-43zM625 662h352q53 0 93 19t67.5 53t41 79t13.5 94t-16.5 94.5t-46 78t-71.5 52t-91 19.5h-342v-489z" />
<glyph unicode="&#xaf;" horiz-adv-x="739" d="M94 1405l8 41h545l-8 -41h-545z" />
<glyph unicode="&#xb0;" horiz-adv-x="501" d="M260 1311q0 31 13.5 61.5t37 55t54 40t65.5 15.5q47 0 78 -34t31 -83q0 -33 -14.5 -62.5t-38 -53t-54 -37t-63.5 -13.5q-47 0 -78 32t-31 79zM307 1323q0 -35 18.5 -58.5t53.5 -23.5q18 0 39.5 9.5t39 25.5t29 37.5t11.5 46.5q0 41 -21.5 58.5t-56.5 17.5q-45 0 -79 -33 t-34 -80z" />
<glyph unicode="&#xb1;" horiz-adv-x="989" d="M158 174v41h614v-41h-614zM158 707v41h286v307h41v-307h287v-41h-287v-308h-41v308h-286z" />
<glyph unicode="&#xb2;" horiz-adv-x="724" d="M137 866q33 152 114 232t202 123q51 18 108 36.5t104.5 45t78 66.5t30.5 101q0 59 -43 105.5t-141 46.5q-53 0 -97 -13.5t-79 -31.5t-60.5 -39.5t-42.5 -38.5l-24 25q2 4 25.5 25.5t64.5 46t97 45t128 20.5q113 0 164 -54.5t51 -127.5q0 -74 -34.5 -122t-87 -79 t-111 -49.5t-107.5 -34.5q-82 -29 -134 -65.5t-83 -75.5t-44 -78t-19 -70h503l-8 -39h-555z" />
<glyph unicode="&#xb3;" horiz-adv-x="743" d="M172 1053l35 14q0 -84 58.5 -128t162.5 -44q57 0 109.5 15.5t91.5 42t62.5 62.5t23.5 79q0 72 -67.5 112.5t-186.5 40.5h-43l8 37h43q143 0 222 47t79 137q0 70 -55.5 113t-147.5 43q-82 0 -151.5 -35t-104.5 -88l-24 25q41 61 119.5 98t168.5 37q109 0 173.5 -53.5 t64.5 -132.5q0 -78 -53 -132.5t-162 -76.5q74 -14 116 -60.5t42 -107.5q0 -53 -28 -97.5t-74 -76t-107 -50t-127 -18.5q-123 0 -185.5 55.5t-62.5 141.5z" />
<glyph unicode="&#xb4;" horiz-adv-x="385" d="M82 1346l156 149h67l-196 -174z" />
<glyph unicode="&#xb5;" horiz-adv-x="1187" d="M-39 -434l318 1497h43l-127 -596q-25 -115 -25 -199q0 -248 213 -248q74 0 148.5 28t143 76t127 115.5t97.5 147.5l143 676h43l-208 -981q-2 -2 -3 -14q0 -27 25 -27l-10 -41q-55 0 -55 61q0 16 2 21l41 188q-47 -68 -106.5 -121t-125 -91t-134.5 -58t-136 -20 q-211 0 -240 213l-133 -627h-41z" />
<glyph unicode="&#xb6;" horiz-adv-x="1107" d="M131 887q0 127 47 231.5t133 179t208 115.5t274 41h393l-10 -41h-136l-335 -1577h-41l143 672h-176l-144 -672h-41l144 672q-221 4 -340 103.5t-119 275.5zM172 897q0 -90 34 -153.5t91 -105.5t135 -63.5t166 -25.5l184 864q-145 0 -258.5 -38t-191.5 -105.5t-119 -162.5 t-41 -210zM639 549h176l184 864h-176z" />
<glyph unicode="&#xb7;" horiz-adv-x="317" d="M115 512l37 170h38l-34 -170h-41z" />
<glyph unicode="&#xb8;" horiz-adv-x="489" d="M-18 -293l26 37q29 -14 71 -25.5t91 -11.5q133 0 133 96q0 33 -22.5 46.5t-57.5 13.5q-41 0 -88 -11.5t-76 -21.5l146 193l31 -23l-91 -117q23 8 46.5 10.5t39.5 2.5q111 0 111 -86q0 -72 -50 -107t-136 -35q-51 0 -95.5 11.5t-78.5 27.5z" />
<glyph unicode="&#xb9;" horiz-adv-x="491" d="M152 864l8 39h162l149 705q-12 -12 -37.5 -29.5t-55.5 -32t-60.5 -25t-55.5 -10.5l8 39q31 0 68 16.5t67.5 37t52 38t23.5 19.5h41l-162 -758h152l-8 -39h-352z" />
<glyph unicode="&#xba;" horiz-adv-x="882" d="M186 1018q0 86 36 164t95.5 138t136 96t158.5 36q61 0 112.5 -23.5t88.5 -64.5t56.5 -96.5t19.5 -116.5q0 -84 -37 -163t-96.5 -138t-138 -95t-160.5 -36q-61 0 -111.5 23.5t-86.5 64.5t-54.5 95t-18.5 116zM229 1022q0 -55 17.5 -103.5t48.5 -84t74 -56t96 -20.5 q70 0 138.5 31.5t121.5 85t86 123t33 147.5q0 55 -17.5 104t-49.5 85t-76 56.5t-97 20.5q-68 0 -135.5 -31.5t-120.5 -85t-86 -124t-33 -148.5z" />
<glyph unicode="&#xbb;" horiz-adv-x="1017" d="M39 164l10 45l492 321l-357 320l11 45l387 -346l-7 -37zM373 164l8 45l491 321l-354 320l8 45l389 -346l-8 -37z" />
<glyph unicode="&#xbc;" horiz-adv-x="1454" d="M61 23l1391 1433l27 -24l-1391 -1434zM131 700l8 39h162l150 705q-12 -12 -38 -29.5t-55.5 -32t-60.5 -24.5t-55 -10l8 38q31 0 67.5 16.5t67.5 37t52.5 38t23.5 19.5h41l-162 -758h152l-9 -39h-352zM694 225l8 35l576 524h29l-111 -520h107l-9 -39h-106l-49 -225h-39 l47 225h-453zM758 264h397l96 449z" />
<glyph unicode="&#xbd;" horiz-adv-x="1544" d="M14 23l1391 1433l27 -24l-1391 -1434zM143 700l9 39h161l150 705q-12 -12 -38 -29.5t-55.5 -32t-60 -24.5t-55.5 -10l8 38q31 0 68 16.5t67.5 37t52 38t23.5 19.5h41l-162 -758h152l-8 -39h-353zM778 0q33 152 114 231.5t202 122.5q51 18 108.5 37t104.5 45.5t77.5 66.5 t30.5 101q0 59 -43 105.5t-141 46.5q-53 0 -97 -13.5t-79 -32t-60.5 -40t-42.5 -37.5l-24 24q2 4 25.5 26t64.5 46.5t97 45t128 20.5q115 0 165 -54.5t50 -128.5t-34.5 -122t-87 -78.5t-111 -49t-107.5 -34.5q-82 -29 -134 -66t-83 -76t-44 -77.5t-19 -69.5h503l-8 -39h-555 z" />
<glyph unicode="&#xbe;" horiz-adv-x="1492" d="M135 23l1391 1433l26 -24l-1390 -1434zM139 889l35 14q0 -72 58.5 -122t162.5 -50q57 0 109.5 15.5t91.5 42t62.5 62.5t23.5 79q0 72 -68.5 112.5t-185.5 40.5h-43l8 37h43q143 0 222 47t79 138q0 70 -55 112.5t-147 42.5q-82 0 -152 -34.5t-104 -88.5l-25 25 q41 61 120 98t169 37q109 0 173 -53t64 -133q0 -78 -53 -132.5t-162 -76.5q74 -14 116 -60.5t42 -107.5q0 -53 -27.5 -97t-74 -76t-107.5 -50.5t-127 -18.5q-39 0 -83 11.5t-81 35t-60.5 60.5t-23.5 90zM719 225l8 35l576 524h28l-110 -520h106l-8 -39h-107l-49 -225h-39 l47 225h-452zM782 264h398l96 449z" />
<glyph unicode="&#xbf;" horiz-adv-x="911" d="M-76 -135q0 119 37 192.5t94.5 120.5t128 80t140.5 68q35 18 66.5 39.5t58 59.5t50 96.5t42.5 148.5h41q-20 -98 -47 -163t-58 -108t-67.5 -68.5t-75.5 -43.5q-61 -31 -126 -58.5t-119 -70.5t-89 -112t-35 -181q0 -68 21.5 -116t56.5 -81t82 -48t100 -15 q117 0 232.5 64.5t189.5 174.5l33 -16q-41 -63 -95.5 -112.5t-115.5 -83t-124.5 -51t-125.5 -17.5q-61 0 -114.5 19.5t-93.5 57t-63.5 94t-23.5 130.5zM582 864l36 172h41l-36 -172h-41z" />
<glyph unicode="&#xc0;" horiz-adv-x="1325" d="M-80 0l911 1454h37l291 -1454h-45l-104 520h-719l-326 -520h-45zM315 561h686l-163 834zM791 1880h65l94 -149l-37 -25z" />
<glyph unicode="&#xc1;" horiz-adv-x="1325" d="M-80 0l911 1454h37l291 -1454h-45l-104 520h-719l-326 -520h-45zM315 561h686l-163 834zM850 1731l156 149h67l-196 -174z" />
<glyph unicode="&#xc2;" horiz-adv-x="1325" d="M-80 0l911 1454h37l291 -1454h-45l-104 520h-719l-326 -520h-45zM315 561h686l-163 834zM709 1729l213 151h32l150 -151l-37 -25l-139 129l-193 -129z" />
<glyph unicode="&#xc3;" horiz-adv-x="1325" d="M-80 0l911 1454h37l291 -1454h-45l-104 520h-719l-326 -520h-45zM315 561h686l-163 834zM631 1722q0 4 9 27t28.5 47.5t52.5 44t82 19.5q37 0 63.5 -12.5t50 -27t50 -26.5t63.5 -12q39 0 65.5 14t42 31.5t21.5 33t6 19.5h39q-2 -6 -11 -28.5t-30.5 -47t-56.5 -43 t-88 -18.5q-43 0 -73 12t-54.5 26.5t-47 27t-52.5 12.5q-31 0 -53.5 -13.5t-37 -31t-21.5 -34t-9 -20.5h-39z" />
<glyph unicode="&#xc4;" horiz-adv-x="1325" d="M-80 0l911 1454h37l291 -1454h-45l-104 520h-719l-326 -520h-45zM315 561h686l-163 834zM766 1722l33 158h41l-33 -158h-41zM993 1722l33 158h41l-33 -158h-41z" />
<glyph unicode="&#xc5;" horiz-adv-x="1325" d="M-80 0l911 1454h37l291 -1454h-45l-104 520h-719l-326 -520h-45zM315 561h686l-163 834zM797 1741q0 29 11 54.5t30.5 44t45 29.5t52.5 11q41 0 64.5 -26.5t23.5 -67.5q0 -29 -11.5 -54.5t-30.5 -44t-45 -29.5t-52 -11q-41 0 -64.5 26.5t-23.5 67.5zM829 1747 q0 -29 17.5 -48.5t46.5 -19.5q33 0 66.5 29t33.5 72q0 31 -18 49t-47 18q-37 0 -68 -27.5t-31 -72.5z" />
<glyph unicode="&#xc6;" horiz-adv-x="1886" d="M-172 0l1219 1454h901l-11 -41h-847l-138 -649h744l-10 -41h-744l-143 -682h864l-8 -41h-907l110 520h-545l-434 -520h-51zM346 561h522l174 828z" />
<glyph unicode="&#xc7;" horiz-adv-x="1351" d="M100 600q0 147 61.5 301t172 279t261 203.5t329.5 78.5q92 0 165.5 -23.5t128 -65.5t90 -100.5t52.5 -127.5l-41 -12q-23 80 -66 135t-97 89t-118.5 49t-130.5 15q-166 0 -306 -74.5t-242.5 -193.5t-160 -265.5t-57.5 -287.5q0 -117 34 -220.5t95.5 -181t149.5 -123.5 t196 -46q68 0 144 18.5t150.5 55t144 95t127.5 138.5l37 -10q-51 -80 -122 -140.5t-150 -103.5t-162 -66.5t-160 -25.5l-80 -107q23 8 46 10.5t40 2.5q111 0 110 -86q0 -72 -50 -107t-136 -35q-51 0 -95 11.5t-79 27.5l27 37q29 -14 70.5 -25.5t90.5 -11.5q133 0 133 96 q0 33 -22.5 46.5t-56.5 13.5q-41 0 -88.5 -11.5t-75.5 -21.5l119 160q-115 4 -203 57t-149.5 137t-93.5 192.5t-32 223.5z" />
<glyph unicode="&#xc8;" d="M68 0l309 1454h889l-9 -41h-847l-140 -649h744l-8 -41h-744l-145 -682h866l-8 -41h-907zM754 1880h65l94 -149l-36 -25z" />
<glyph unicode="&#xc9;" d="M68 0l309 1454h889l-9 -41h-847l-140 -649h744l-8 -41h-744l-145 -682h866l-8 -41h-907zM788 1731l156 149h68l-197 -174z" />
<glyph unicode="&#xca;" d="M68 0l309 1454h889l-9 -41h-847l-140 -649h744l-8 -41h-744l-145 -682h866l-8 -41h-907zM692 1729l213 151h33l149 -151l-36 -25l-140 129l-192 -129z" />
<glyph unicode="&#xcb;" d="M68 0l309 1454h889l-9 -41h-847l-140 -649h744l-8 -41h-744l-145 -682h866l-8 -41h-907zM739 1722l33 158h41l-33 -158h-41zM967 1722l32 158h41l-32 -158h-41z" />
<glyph unicode="&#xcc;" horiz-adv-x="438" d="M68 0l309 1452h41l-309 -1452h-41zM326 1880h65l94 -149l-36 -25z" />
<glyph unicode="&#xcd;" horiz-adv-x="438" d="M68 0l309 1452h41l-309 -1452h-41zM401 1731l156 149h68l-197 -174z" />
<glyph unicode="&#xce;" horiz-adv-x="438" d="M68 0l309 1452h41l-309 -1452h-41zM258 1729l213 151h33l149 -151l-37 -25l-139 129l-192 -129z" />
<glyph unicode="&#xcf;" horiz-adv-x="438" d="M68 0l309 1452h41l-309 -1452h-41zM315 1722l33 158h41l-33 -158h-41zM543 1722l32 158h41l-32 -158h-41z" />
<glyph unicode="&#xd0;" horiz-adv-x="1415" d="M82 0l151 711h-137l8 41h138l149 702h445q133 0 230 -43t160.5 -117.5t94.5 -175t31 -217.5q0 -195 -61.5 -359.5t-172 -284.5t-262 -188.5t-330.5 -68.5h-444zM131 41h404q182 0 326.5 69.5t243.5 187.5t152.5 271.5t53.5 321.5q0 115 -31 211t-91.5 164.5t-151.5 107.5 t-210 39h-403l-141 -661h372l-8 -41h-375z" />
<glyph unicode="&#xd1;" horiz-adv-x="1521" d="M68 0l309 1454h31l757 -1395l295 1393h41l-309 -1452h-45l-746 1374l-292 -1374h-41zM748 1722q0 4 9 27t28.5 47.5t52 44t82.5 19.5q37 0 63.5 -12.5t50 -27t50 -26.5t63.5 -12q39 0 65.5 14t42 31.5t21.5 33t6 19.5h39q-2 -6 -11.5 -28.5t-31 -47t-56 -43t-87.5 -18.5 q-43 0 -73 12t-54.5 26.5t-47 27t-53.5 12.5t-53.5 -13.5t-36.5 -31t-21.5 -34t-9.5 -20.5h-38z" />
<glyph unicode="&#xd2;" horiz-adv-x="1486" d="M106 588q0 168 70 325.5t184.5 280.5t261 196.5t302.5 73.5q121 0 215 -51t158.5 -135t97 -192.5t32.5 -223.5q0 -166 -69.5 -323.5t-184 -279.5t-261 -195.5t-302.5 -73.5q-121 0 -215 49t-158.5 132t-97.5 191.5t-33 225.5zM147 594q0 -113 32 -215.5t93.5 -179 t149.5 -122.5t199 -46q154 0 293 73.5t243.5 192.5t166.5 266.5t62 294.5q0 113 -32.5 215.5t-94 180t-148.5 123.5t-196 46q-154 0 -293 -73.5t-244.5 -192.5t-168 -266.5t-62.5 -296.5zM870 1880h66l94 -149l-37 -25z" />
<glyph unicode="&#xd3;" horiz-adv-x="1486" d="M106 588q0 168 70 325.5t184.5 280.5t261 196.5t302.5 73.5q121 0 215 -51t158.5 -135t97 -192.5t32.5 -223.5q0 -166 -69.5 -323.5t-184 -279.5t-261 -195.5t-302.5 -73.5q-121 0 -215 49t-158.5 132t-97.5 191.5t-33 225.5zM147 594q0 -113 32 -215.5t93.5 -179 t149.5 -122.5t199 -46q154 0 293 73.5t243.5 192.5t166.5 266.5t62 294.5q0 113 -32.5 215.5t-94 180t-148.5 123.5t-196 46q-154 0 -293 -73.5t-244.5 -192.5t-168 -266.5t-62.5 -296.5zM928 1731l155 149h68l-197 -174z" />
<glyph unicode="&#xd4;" horiz-adv-x="1486" d="M106 588q0 168 70 325.5t184.5 280.5t261 196.5t302.5 73.5q121 0 215 -51t158.5 -135t97 -192.5t32.5 -223.5q0 -166 -69.5 -323.5t-184 -279.5t-261 -195.5t-302.5 -73.5q-121 0 -215 49t-158.5 132t-97.5 191.5t-33 225.5zM147 594q0 -113 32 -215.5t93.5 -179 t149.5 -122.5t199 -46q154 0 293 73.5t243.5 192.5t166.5 266.5t62 294.5q0 113 -32.5 215.5t-94 180t-148.5 123.5t-196 46q-154 0 -293 -73.5t-244.5 -192.5t-168 -266.5t-62.5 -296.5zM788 1729l213 151h33l150 -151l-37 -25l-139 129l-193 -129z" />
<glyph unicode="&#xd5;" horiz-adv-x="1486" d="M106 588q0 168 70 325.5t184.5 280.5t261 196.5t302.5 73.5q121 0 215 -51t158.5 -135t97 -192.5t32.5 -223.5q0 -166 -69.5 -323.5t-184 -279.5t-261 -195.5t-302.5 -73.5q-121 0 -215 49t-158.5 132t-97.5 191.5t-33 225.5zM147 594q0 -113 32 -215.5t93.5 -179 t149.5 -122.5t199 -46q154 0 293 73.5t243.5 192.5t166.5 266.5t62 294.5q0 113 -32.5 215.5t-94 180t-148.5 123.5t-196 46q-154 0 -293 -73.5t-244.5 -192.5t-168 -266.5t-62.5 -296.5zM709 1722q0 4 9 27t28.5 47.5t52 44t82.5 19.5q37 0 63.5 -12.5t50 -27t50 -26.5 t63.5 -12q39 0 65.5 14t42 31.5t21.5 33t6 19.5h39q-2 -6 -11 -28.5t-30.5 -47t-56.5 -43t-88 -18.5q-43 0 -73 12t-54.5 26.5t-47 27t-53.5 12.5t-53 -13.5t-36.5 -31t-21.5 -34t-9 -20.5h-39z" />
<glyph unicode="&#xd6;" horiz-adv-x="1486" d="M106 588q0 168 70 325.5t184.5 280.5t261 196.5t302.5 73.5q121 0 215 -51t158.5 -135t97 -192.5t32.5 -223.5q0 -166 -69.5 -323.5t-184 -279.5t-261 -195.5t-302.5 -73.5q-121 0 -215 49t-158.5 132t-97.5 191.5t-33 225.5zM147 594q0 -113 32 -215.5t93.5 -179 t149.5 -122.5t199 -46q154 0 293 73.5t243.5 192.5t166.5 266.5t62 294.5q0 113 -32.5 215.5t-94 180t-148.5 123.5t-196 46q-154 0 -293 -73.5t-244.5 -192.5t-168 -266.5t-62.5 -296.5zM844 1722l33 158h41l-33 -158h-41zM1071 1722l33 158h41l-33 -158h-41z" />
<glyph unicode="&#xd7;" horiz-adv-x="942" d="M147 831l31 29l277 -276l278 278l29 -31l-279 -278l279 -277l-31 -28l-276 276l-277 -276l-28 31l274 274z" />
<glyph unicode="&#xd8;" horiz-adv-x="1486" d="M106 588q0 168 70 325.5t184.5 280.5t261 196.5t302.5 73.5q98 0 179 -34.5t142 -94.5l96 119h52l-121 -147q76 -86 115.5 -202t39.5 -243q0 -166 -69.5 -323.5t-184 -279.5t-261 -195.5t-302.5 -73.5q-98 0 -179 32.5t-142 90.5l-92 -113h-52l117 141q-78 86 -117 202 t-39 245zM147 594q0 -123 36 -231.5t108 -186.5l926 1124q-59 57 -134 90t-168 33q-154 0 -293 -73.5t-244.5 -192.5t-168 -266t-62.5 -297zM317 147q59 -55 135.5 -85.5t168.5 -30.5q154 0 293 73.5t243.5 192.5t166.5 266.5t62 294.5q0 121 -36.5 228.5t-106.5 185.5z" />
<glyph unicode="&#xd9;" horiz-adv-x="1482" d="M170 463q0 63 8 129.5t23 134.5l153 727h41l-153 -727q-14 -66 -22.5 -131.5t-8.5 -126.5q0 -92 20.5 -172t67.5 -139.5t125 -93t192 -33.5q156 0 270.5 61.5t195.5 159.5t131.5 223t76.5 252l154 727h41l-154 -727q-31 -145 -88 -278.5t-144 -234.5t-208 -162.5 t-281 -61.5q-125 0 -209 36.5t-135 101.5t-73.5 151t-22.5 184zM874 1880h66l94 -149l-37 -25z" />
<glyph unicode="&#xda;" horiz-adv-x="1482" d="M170 463q0 63 8 129.5t23 134.5l153 727h41l-153 -727q-14 -66 -22.5 -131.5t-8.5 -126.5q0 -92 20.5 -172t67.5 -139.5t125 -93t192 -33.5q156 0 270.5 61.5t195.5 159.5t131.5 223t76.5 252l154 727h41l-154 -727q-31 -145 -88 -278.5t-144 -234.5t-208 -162.5 t-281 -61.5q-125 0 -209 36.5t-135 101.5t-73.5 151t-22.5 184zM885 1731l155 149h68l-197 -174z" />
<glyph unicode="&#xdb;" horiz-adv-x="1482" d="M170 463q0 63 8 129.5t23 134.5l153 727h41l-153 -727q-14 -66 -22.5 -131.5t-8.5 -126.5q0 -92 20.5 -172t67.5 -139.5t125 -93t192 -33.5q156 0 270.5 61.5t195.5 159.5t131.5 223t76.5 252l154 727h41l-154 -727q-31 -145 -88 -278.5t-144 -234.5t-208 -162.5 t-281 -61.5q-125 0 -209 36.5t-135 101.5t-73.5 151t-22.5 184zM784 1729l213 151h33l150 -151l-37 -25l-139 129l-193 -129z" />
<glyph unicode="&#xdc;" horiz-adv-x="1482" d="M170 463q0 63 8 129.5t23 134.5l153 727h41l-153 -727q-14 -66 -22.5 -131.5t-8.5 -126.5q0 -92 20.5 -172t67.5 -139.5t125 -93t192 -33.5q156 0 270.5 61.5t195.5 159.5t131.5 223t76.5 252l154 727h41l-154 -727q-31 -145 -88 -278.5t-144 -234.5t-208 -162.5 t-281 -61.5q-125 0 -209 36.5t-135 101.5t-73.5 151t-22.5 184zM840 1722l32 158h41l-32 -158h-41zM1067 1722l33 158h41l-33 -158h-41z" />
<glyph unicode="&#xdd;" horiz-adv-x="1216" d="M199 1454h47l352 -844l713 844h47l-750 -891l-121 -563h-41l121 567zM739 1731l156 149h68l-197 -174z" />
<glyph unicode="&#xde;" horiz-adv-x="1175" d="M68 0l309 1454h41l-66 -307h484q72 0 129 -31t96 -82t59.5 -115.5t20.5 -134.5q0 -94 -39 -187t-104.5 -167t-152.5 -120t-183 -46h-498l-55 -264h-41zM174 305h496q90 0 169 43t137 111.5t91 152.5t33 166q0 66 -19.5 125.5t-55.5 104.5t-87 71.5t-113 26.5h-481z" />
<glyph unicode="&#xdf;" horiz-adv-x="1071" d="M35 0l221 1042q20 94 62 172t101.5 133.5t132.5 85t153 29.5q66 0 119 -20.5t90.5 -56t58 -85t20.5 -106.5q0 -63 -26.5 -124.5t-69.5 -111t-98.5 -84t-112.5 -47.5q129 -29 194.5 -114.5t65.5 -210.5q0 -231 -162.5 -367.5t-466.5 -146.5l9 39q135 2 242.5 35.5t182 93 t113.5 144.5t39 192q0 141 -86 227t-239 86h-33l8 41h31q74 0 139 26.5t116.5 71.5t81 105.5t29.5 130.5q0 104 -69.5 172.5t-186.5 68.5q-72 0 -136 -26.5t-116.5 -76.5t-89.5 -120t-55 -156l-221 -1042h-41z" />
<glyph unicode="&#xe0;" horiz-adv-x="1187" d="M63 430q0 123 49.5 239.5t132.5 208t190.5 146.5t221.5 55q72 0 130.5 -21.5t102.5 -57t76.5 -84t51.5 -101.5l53 248h43l-209 -973q-4 -12 -4 -24q0 -25 25 -25l-8 -41q-12 0 -19 2q-39 12 -39 57q0 4 1 10.5t4 21.5t9.5 46t16.5 84q-43 -53 -96.5 -97t-111.5 -77 t-120 -50t-121 -17q-88 0 -158.5 37.5t-119.5 100t-75 144.5t-26 168zM104 430q0 -82 26 -155.5t72 -130t108 -90.5t136 -34q66 0 141 27t142.5 72t118.5 103.5t70 123.5l81 383q-8 61 -37.5 116.5t-76.5 98.5t-109.5 68.5t-134.5 25.5q-106 0 -203.5 -54t-171 -142 t-118 -196.5t-44.5 -215.5zM672 1495h65l94 -149l-36 -25z" />
<glyph unicode="&#xe1;" horiz-adv-x="1187" d="M63 430q0 123 49.5 239.5t132.5 208t190.5 146.5t221.5 55q72 0 130.5 -21.5t102.5 -57t76.5 -84t51.5 -101.5l53 248h43l-209 -973q-4 -12 -4 -24q0 -25 25 -25l-8 -41q-12 0 -19 2q-39 12 -39 57q0 4 1 10.5t4 21.5t9.5 46t16.5 84q-43 -53 -96.5 -97t-111.5 -77 t-120 -50t-121 -17q-88 0 -158.5 37.5t-119.5 100t-75 144.5t-26 168zM104 430q0 -82 26 -155.5t72 -130t108 -90.5t136 -34q66 0 141 27t142.5 72t118.5 103.5t70 123.5l81 383q-8 61 -37.5 116.5t-76.5 98.5t-109.5 68.5t-134.5 25.5q-106 0 -203.5 -54t-171 -142 t-118 -196.5t-44.5 -215.5zM672 1346l155 149h68l-197 -174z" />
<glyph unicode="&#xe2;" horiz-adv-x="1187" d="M63 430q0 123 49.5 239.5t132.5 208t190.5 146.5t221.5 55q72 0 130.5 -21.5t102.5 -57t76.5 -84t51.5 -101.5l53 248h43l-209 -973q-4 -12 -4 -24q0 -25 25 -25l-8 -41q-12 0 -19 2q-39 12 -39 57q0 4 1 10.5t4 21.5t9.5 46t16.5 84q-43 -53 -96.5 -97t-111.5 -77 t-120 -50t-121 -17q-88 0 -158.5 37.5t-119.5 100t-75 144.5t-26 168zM104 430q0 -82 26 -155.5t72 -130t108 -90.5t136 -34q66 0 141 27t142.5 72t118.5 103.5t70 123.5l81 383q-8 61 -37.5 116.5t-76.5 98.5t-109.5 68.5t-134.5 25.5q-106 0 -203.5 -54t-171 -142 t-118 -196.5t-44.5 -215.5zM551 1343l213 152h33l149 -152l-37 -24l-139 129l-192 -129z" />
<glyph unicode="&#xe3;" horiz-adv-x="1187" d="M63 430q0 123 49.5 239.5t132.5 208t190.5 146.5t221.5 55q72 0 130.5 -21.5t102.5 -57t76.5 -84t51.5 -101.5l53 248h43l-209 -973q-4 -12 -4 -24q0 -25 25 -25l-8 -41q-12 0 -19 2q-39 12 -39 57q0 4 1 10.5t4 21.5t9.5 46t16.5 84q-43 -53 -96.5 -97t-111.5 -77 t-120 -50t-121 -17q-88 0 -158.5 37.5t-119.5 100t-75 144.5t-26 168zM104 430q0 -82 26 -155.5t72 -130t108 -90.5t136 -34q66 0 141 27t142.5 72t118.5 103.5t70 123.5l81 383q-8 61 -37.5 116.5t-76.5 98.5t-109.5 68.5t-134.5 25.5q-106 0 -203.5 -54t-171 -142 t-118 -196.5t-44.5 -215.5zM467 1337q0 4 9 26.5t28.5 47.5t52.5 44.5t82 19.5q37 0 63.5 -12.5t50 -27t50 -26.5t63.5 -12q39 0 65.5 14t42 31.5t21.5 33t6 19.5h39q-2 -6 -11 -28.5t-30.5 -47t-56.5 -43t-88 -18.5q-43 0 -72.5 12t-54.5 26.5t-47.5 27t-52.5 12.5 q-31 0 -53.5 -13.5t-37 -31t-21.5 -34t-9 -20.5h-39z" />
<glyph unicode="&#xe4;" horiz-adv-x="1187" d="M63 430q0 123 49.5 239.5t132.5 208t190.5 146.5t221.5 55q72 0 130.5 -21.5t102.5 -57t76.5 -84t51.5 -101.5l53 248h43l-209 -973q-4 -12 -4 -24q0 -25 25 -25l-8 -41q-12 0 -19 2q-39 12 -39 57q0 4 1 10.5t4 21.5t9.5 46t16.5 84q-43 -53 -96.5 -97t-111.5 -77 t-120 -50t-121 -17q-88 0 -158.5 37.5t-119.5 100t-75 144.5t-26 168zM104 430q0 -82 26 -155.5t72 -130t108 -90.5t136 -34q66 0 141 27t142.5 72t118.5 103.5t70 123.5l81 383q-8 61 -37.5 116.5t-76.5 98.5t-109.5 68.5t-134.5 25.5q-106 0 -203.5 -54t-171 -142 t-118 -196.5t-44.5 -215.5zM604 1337l33 158h41l-33 -158h-41zM831 1337l33 158h41l-33 -158h-41z" />
<glyph unicode="&#xe5;" horiz-adv-x="1187" d="M63 430q0 123 49.5 239.5t132.5 208t190.5 146.5t221.5 55q72 0 130.5 -21.5t102.5 -57t76.5 -84t51.5 -101.5l53 248h43l-209 -973q-4 -12 -4 -24q0 -25 25 -25l-8 -41q-12 0 -19 2q-39 12 -39 57q0 4 1 10.5t4 21.5t9.5 46t16.5 84q-43 -53 -96.5 -97t-111.5 -77 t-120 -50t-121 -17q-88 0 -158.5 37.5t-119.5 100t-75 144.5t-26 168zM104 430q0 -82 26 -155.5t72 -130t108 -90.5t136 -34q66 0 141 27t142.5 72t118.5 103.5t70 123.5l81 383q-8 61 -37.5 116.5t-76.5 98.5t-109.5 68.5t-134.5 25.5q-106 0 -203.5 -54t-171 -142 t-118 -196.5t-44.5 -215.5zM633 1356q0 29 11 54.5t30.5 44t45 29.5t52.5 11q41 0 64.5 -26.5t23.5 -67.5q0 -29 -11 -54.5t-30.5 -44t-45 -29.5t-52.5 -11q-41 0 -64.5 26.5t-23.5 67.5zM666 1362q0 -29 17 -48.5t46 -19.5q33 0 66.5 29t33.5 72q0 31 -18 49t-47 18 q-37 0 -67.5 -27.5t-30.5 -72.5z" />
<glyph unicode="&#xe6;" horiz-adv-x="1808" d="M2 246q0 82 38 148.5t104.5 113.5t156.5 73.5t193 26.5q70 0 140.5 -11t129.5 -30q14 53 36.5 104.5t51.5 98.5q0 123 -67.5 195.5t-188.5 72.5q-80 0 -171 -33.5t-189 -97.5l-17 33q115 72 207 105.5t178 33.5q119 0 198 -64.5t89 -189.5q88 115 209 184.5t250 69.5 q84 0 155.5 -30.5t123.5 -85t82 -129t30 -162.5q0 -35 -5 -83t-22 -81h-921q-6 -47 -7 -86q0 -86 25 -160t71 -128t110.5 -84t144.5 -30q57 0 116.5 16.5t113.5 46.5t100 71t77 90l37 -11q-33 -55 -83 -101t-111.5 -80t-128 -53t-132.5 -19q-127 0 -218 67.5t-134 179.5 q-45 -68 -107.5 -114.5t-131 -76.5t-136 -43t-118.5 -13q-70 0 -122.5 21.5t-87 58t-52 85t-17.5 101.5zM43 254q0 -45 14.5 -87t45 -75t77.5 -52.5t113 -19.5q63 0 137 19.5t140.5 54.5t117.5 82t70 105q-16 61 -17 127q0 55 13 116q-61 23 -130 33t-135 10 q-98 0 -180 -22.5t-141 -63.5t-92 -98t-33 -129zM801 549h880q14 55 15 117q0 72 -21.5 139t-65.5 119.5t-110.5 83t-155.5 30.5q-90 0 -176 -36.5t-157.5 -102t-127 -156t-81.5 -194.5z" />
<glyph unicode="&#xe7;" horiz-adv-x="1052" d="M63 430q0 131 51.5 250t137.5 207t197.5 140t230.5 52q129 0 215 -62.5t115 -174.5l-45 -15q-29 98 -109 154.5t-190 56.5q-106 0 -208 -48t-179.5 -130t-126 -191.5t-48.5 -230.5q0 -86 26 -162.5t71 -133t108.5 -89.5t141.5 -33q59 0 121.5 18.5t117.5 49.5t99.5 72 t64.5 84l39 -13q-29 -53 -75 -97t-103.5 -77.5t-122 -54t-127.5 -22.5l-76 -99q23 8 46.5 10.5t39.5 2.5q111 0 111 -87q0 -72 -50.5 -106.5t-136.5 -34.5q-51 0 -95 11.5t-79 27.5l27 37q29 -14 71 -25.5t91 -11.5q133 0 133 96q0 33 -22.5 46.5t-57.5 13.5 q-41 0 -88 -11.5t-76 -21.5l115 154q-80 6 -145.5 42.5t-111.5 97t-72 139.5t-26 169z" />
<glyph unicode="&#xe8;" horiz-adv-x="1067" d="M63 430q0 121 47.5 237.5t130.5 208t195.5 147.5t245.5 56q51 0 107.5 -18.5t101.5 -53t74.5 -87t29.5 -121.5q0 -291 -536 -291q-78 0 -160 2t-186 8q-6 -43 -7 -86q0 -84 23 -158.5t68 -131t112.5 -89.5t155.5 -33q55 0 114.5 17.5t115 48.5t101.5 76t76 100l39 -12 q-35 -61 -85 -111.5t-110.5 -85.5t-127.5 -54t-137 -19q-92 0 -164 35.5t-121 97t-76 143.5t-27 174zM121 559q104 -6 185 -8t159 -2q135 0 228 18.5t150.5 52t83 79.5t25.5 102q0 61 -26.5 106t-67.5 75t-90 43t-94 13q-100 0 -190.5 -40t-163 -106.5t-125 -153.5 t-74.5 -179zM676 1495h65l95 -149l-37 -25z" />
<glyph unicode="&#xe9;" horiz-adv-x="1067" d="M63 430q0 121 47.5 237.5t130.5 208t195.5 147.5t245.5 56q51 0 107.5 -18.5t101.5 -53t74.5 -87t29.5 -121.5q0 -291 -536 -291q-78 0 -160 2t-186 8q-6 -43 -7 -86q0 -84 23 -158.5t68 -131t112.5 -89.5t155.5 -33q55 0 114.5 17.5t115 48.5t101.5 76t76 100l39 -12 q-35 -61 -85 -111.5t-110.5 -85.5t-127.5 -54t-137 -19q-92 0 -164 35.5t-121 97t-76 143.5t-27 174zM121 559q104 -6 185 -8t159 -2q135 0 228 18.5t150.5 52t83 79.5t25.5 102q0 61 -26.5 106t-67.5 75t-90 43t-94 13q-100 0 -190.5 -40t-163 -106.5t-125 -153.5 t-74.5 -179zM649 1346l156 149h67l-196 -174z" />
<glyph unicode="&#xea;" horiz-adv-x="1067" d="M63 430q0 121 47.5 237.5t130.5 208t195.5 147.5t245.5 56q51 0 107.5 -18.5t101.5 -53t74.5 -87t29.5 -121.5q0 -291 -536 -291q-78 0 -160 2t-186 8q-6 -43 -7 -86q0 -84 23 -158.5t68 -131t112.5 -89.5t155.5 -33q55 0 114.5 17.5t115 48.5t101.5 76t76 100l39 -12 q-35 -61 -85 -111.5t-110.5 -85.5t-127.5 -54t-137 -19q-92 0 -164 35.5t-121 97t-76 143.5t-27 174zM121 559q104 -6 185 -8t159 -2q135 0 228 18.5t150.5 52t83 79.5t25.5 102q0 61 -26.5 106t-67.5 75t-90 43t-94 13q-100 0 -190.5 -40t-163 -106.5t-125 -153.5 t-74.5 -179zM561 1343l213 152h33l149 -152l-36 -24l-140 129l-192 -129z" />
<glyph unicode="&#xeb;" horiz-adv-x="1067" d="M63 430q0 121 47.5 237.5t130.5 208t195.5 147.5t245.5 56q51 0 107.5 -18.5t101.5 -53t74.5 -87t29.5 -121.5q0 -291 -536 -291q-78 0 -160 2t-186 8q-6 -43 -7 -86q0 -84 23 -158.5t68 -131t112.5 -89.5t155.5 -33q55 0 114.5 17.5t115 48.5t101.5 76t76 100l39 -12 q-35 -61 -85 -111.5t-110.5 -85.5t-127.5 -54t-137 -19q-92 0 -164 35.5t-121 97t-76 143.5t-27 174zM121 559q104 -6 185 -8t159 -2q135 0 228 18.5t150.5 52t83 79.5t25.5 102q0 61 -26.5 106t-67.5 75t-90 43t-94 13q-100 0 -190.5 -40t-163 -106.5t-125 -153.5 t-74.5 -179zM604 1337l33 158h41l-33 -158h-41zM831 1337l33 158h41l-33 -158h-41z" />
<glyph unicode="&#xec;" horiz-adv-x="372" d="M35 0l225 1063h41l-225 -1063h-41zM188 1495h66l94 -149l-37 -25z" />
<glyph unicode="&#xed;" horiz-adv-x="372" d="M35 0l225 1063h41l-225 -1063h-41zM303 1346l156 149h67l-196 -174z" />
<glyph unicode="&#xee;" horiz-adv-x="372" d="M35 0l225 1063h41l-225 -1063h-41zM137 1343l213 152h33l149 -152l-36 -24l-140 129l-192 -129z" />
<glyph unicode="&#xef;" horiz-adv-x="372" d="M35 0l225 1063h41l-225 -1063h-41zM205 1337l33 158h41l-33 -158h-41zM432 1337l33 158h41l-33 -158h-41z" />
<glyph unicode="&#xf0;" horiz-adv-x="1163" d="M55 389q0 117 52.5 222.5t136.5 185.5t191.5 128t217.5 48q76 0 139.5 -21.5t112.5 -61.5t81 -94.5t44 -119.5q6 61 6 123q0 119 -37.5 240.5t-146.5 246.5l-274 -166l-15 29l266 162q-41 47 -94 92t-119 92h60q55 -41 100 -83t84 -85l219 133l15 -28l-213 -129 q111 -133 151.5 -272.5t40.5 -274.5q0 -180 -56 -324.5t-146.5 -245t-203 -153.5t-225.5 -53q-86 0 -157.5 32.5t-122.5 88t-79 130t-28 158.5zM96 393q0 -78 25.5 -145.5t72 -118.5t112 -80t143.5 -29q102 0 201.5 47.5t178 124t127 177t48.5 204.5q0 74 -27 139.5t-75 115 t-113.5 77t-143.5 27.5q-102 0 -200.5 -44t-175 -119t-125 -172.5t-48.5 -203.5z" />
<glyph unicode="&#xf1;" horiz-adv-x="1105" d="M35 0l225 1063h41l-57 -275q45 63 104.5 118t126 92.5t137 59t138.5 21.5q115 0 170 -62.5t55 -195.5q0 -49 -7 -106.5t-22 -122.5l-125 -592h-41l125 592q27 125 27 219q0 117 -46 172t-145 55q-72 0 -148.5 -27.5t-147 -76.5t-130 -116.5t-96.5 -145.5l-143 -672h-41z M461 1337q0 4 9 26.5t28.5 47.5t52.5 44.5t82 19.5q37 0 63.5 -12.5t50 -27t50 -26.5t63.5 -12q39 0 65.5 14t42 31.5t21.5 33t6 19.5h39q-2 -6 -11 -28.5t-30.5 -47t-56.5 -43t-88 -18.5q-43 0 -73 12t-54.5 26.5t-47 27t-52.5 12.5q-31 0 -53.5 -13.5t-37 -31t-21.5 -34 t-9 -20.5h-39z" />
<glyph unicode="&#xf2;" horiz-adv-x="1148" d="M61 424q0 129 53.5 248t140.5 210t196.5 144t222.5 53q84 0 153.5 -34.5t118.5 -96t77 -143.5t28 -174q0 -127 -53.5 -245t-139.5 -208t-195.5 -144t-222.5 -54q-86 0 -155.5 34.5t-119.5 95t-77 141.5t-27 173zM102 428q0 -84 25 -158.5t71 -130t108 -87.5t140 -32 q102 0 204 50.5t181.5 133.5t129 192.5t49.5 228.5q0 86 -26 160.5t-71 131t-108.5 89t-138.5 32.5q-102 0 -203 -50t-180.5 -135t-130 -195.5t-50.5 -229.5zM664 1495h65l94 -149l-37 -25z" />
<glyph unicode="&#xf3;" horiz-adv-x="1148" d="M61 424q0 129 53.5 248t140.5 210t196.5 144t222.5 53q84 0 153.5 -34.5t118.5 -96t77 -143.5t28 -174q0 -127 -53.5 -245t-139.5 -208t-195.5 -144t-222.5 -54q-86 0 -155.5 34.5t-119.5 95t-77 141.5t-27 173zM102 428q0 -84 25 -158.5t71 -130t108 -87.5t140 -32 q102 0 204 50.5t181.5 133.5t129 192.5t49.5 228.5q0 86 -26 160.5t-71 131t-108.5 89t-138.5 32.5q-102 0 -203 -50t-180.5 -135t-130 -195.5t-50.5 -229.5zM692 1346l156 149h67l-196 -174z" />
<glyph unicode="&#xf4;" horiz-adv-x="1148" d="M61 424q0 129 53.5 248t140.5 210t196.5 144t222.5 53q84 0 153.5 -34.5t118.5 -96t77 -143.5t28 -174q0 -127 -53.5 -245t-139.5 -208t-195.5 -144t-222.5 -54q-86 0 -155.5 34.5t-119.5 95t-77 141.5t-27 173zM102 428q0 -84 25 -158.5t71 -130t108 -87.5t140 -32 q102 0 204 50.5t181.5 133.5t129 192.5t49.5 228.5q0 86 -26 160.5t-71 131t-108.5 89t-138.5 32.5q-102 0 -203 -50t-180.5 -135t-130 -195.5t-50.5 -229.5zM541 1343l213 152h32l150 -152l-37 -24l-139 129l-193 -129z" />
<glyph unicode="&#xf5;" horiz-adv-x="1148" d="M61 424q0 129 53.5 248t140.5 210t196.5 144t222.5 53q84 0 153.5 -34.5t118.5 -96t77 -143.5t28 -174q0 -127 -53.5 -245t-139.5 -208t-195.5 -144t-222.5 -54q-86 0 -155.5 34.5t-119.5 95t-77 141.5t-27 173zM102 428q0 -84 25 -158.5t71 -130t108 -87.5t140 -32 q102 0 204 50.5t181.5 133.5t129 192.5t49.5 228.5q0 86 -26 160.5t-71 131t-108.5 89t-138.5 32.5q-102 0 -203 -50t-180.5 -135t-130 -195.5t-50.5 -229.5zM457 1337q0 4 9 26.5t28.5 47.5t52.5 44.5t82 19.5q37 0 63.5 -12.5t50 -27t50 -26.5t63.5 -12q39 0 65.5 14 t42 31.5t21.5 33t6 19.5h39q-2 -6 -11 -28.5t-30.5 -47t-56.5 -43t-88 -18.5q-43 0 -73 12t-54.5 26.5t-47 27t-53.5 12.5t-53 -13.5t-36.5 -31t-21.5 -34t-9 -20.5h-39z" />
<glyph unicode="&#xf6;" horiz-adv-x="1148" d="M61 424q0 129 53.5 248t140.5 210t196.5 144t222.5 53q84 0 153.5 -34.5t118.5 -96t77 -143.5t28 -174q0 -127 -53.5 -245t-139.5 -208t-195.5 -144t-222.5 -54q-86 0 -155.5 34.5t-119.5 95t-77 141.5t-27 173zM102 428q0 -84 25 -158.5t71 -130t108 -87.5t140 -32 q102 0 204 50.5t181.5 133.5t129 192.5t49.5 228.5q0 86 -26 160.5t-71 131t-108.5 89t-138.5 32.5q-102 0 -203 -50t-180.5 -135t-130 -195.5t-50.5 -229.5zM588 1337l33 158h41l-33 -158h-41zM815 1337l33 158h41l-33 -158h-41z" />
<glyph unicode="&#xf7;" horiz-adv-x="1122" d="M135 535v40h826v-40h-826zM526 188v131h41v-131h-41zM526 788v132h41v-132h-41z" />
<glyph unicode="&#xf8;" horiz-adv-x="1148" d="M61 424q0 129 53.5 248t140.5 210t196.5 144t222.5 53q66 0 123 -22.5t104 -63.5l55 70h52l-78 -98q57 -61 89 -147.5t32 -186.5q0 -127 -53.5 -245t-139.5 -208t-195.5 -144t-222.5 -54q-68 0 -125 21.5t-104 59.5l-49 -61h-49l69 90q-57 61 -89 147.5t-32 186.5z M102 428q0 -92 28 -170t81 -135l661 835q-86 80 -206 80q-102 0 -204 -50t-181.5 -135t-129 -195.5t-49.5 -229.5zM238 96q43 -35 95 -55.5t113 -20.5q102 0 204 50.5t181.5 133.5t129 192.5t49.5 228.5q0 92 -29 169.5t-80 135.5z" />
<glyph unicode="&#xf9;" horiz-adv-x="1128" d="M96 264q0 88 25 203l127 596h41l-127 -596q-25 -115 -25 -199q0 -248 215 -248q74 0 148.5 28t143.5 76t127 115.5t97 147.5l144 676h41l-197 -926q-4 -23 -9 -43t-5 -24q0 -29 26 -29l-10 -41q-55 0 -55 61q0 2 1 10.5t5 30t12 61.5t23 107q-47 -68 -105.5 -121 t-124 -91t-135 -58t-137.5 -20q-246 0 -246 284zM563 1495h66l94 -149l-37 -25z" />
<glyph unicode="&#xfa;" horiz-adv-x="1128" d="M96 264q0 88 25 203l127 596h41l-127 -596q-25 -115 -25 -199q0 -248 215 -248q74 0 148.5 28t143.5 76t127 115.5t97 147.5l144 676h41l-197 -926q-4 -23 -9 -43t-5 -24q0 -29 26 -29l-10 -41q-12 0 -24 4q-31 12 -31 55q0 2 1 8.5t4 27t11 61.5t25 114 q-47 -68 -105.5 -121t-124 -91t-135 -58t-137.5 -20q-246 0 -246 284zM618 1346l156 149h68l-197 -174z" />
<glyph unicode="&#xfb;" horiz-adv-x="1128" d="M96 264q0 88 25 203l127 596h41l-127 -596q-25 -115 -25 -199q0 -248 215 -248q74 0 148.5 28t143.5 76t127 115.5t97 147.5l144 676h41l-197 -926q-4 -23 -9 -43t-5 -24q0 -29 26 -29l-10 -41q-12 0 -24 4q-31 12 -31 55q0 2 1 8.5t4 27t11 61.5t25 114 q-47 -68 -105.5 -121t-124 -91t-135 -58t-137.5 -20q-246 0 -246 284zM502 1343l213 152h33l149 -152l-37 -24l-139 129l-193 -129z" />
<glyph unicode="&#xfc;" horiz-adv-x="1128" d="M96 264q0 88 25 203l127 596h41l-127 -596q-25 -115 -25 -199q0 -248 215 -248q74 0 148.5 28t143.5 76t127 115.5t97 147.5l144 676h41l-197 -926q-4 -23 -9 -43t-5 -24q0 -29 26 -29l-10 -41q-12 0 -24 4q-31 12 -31 55q0 2 1 8.5t4 27t11 61.5t25 114 q-47 -68 -105.5 -121t-124 -91t-135 -58t-137.5 -20q-246 0 -246 284zM561 1337l33 158h41l-33 -158h-41zM788 1337l33 158h41l-33 -158h-41z" />
<glyph unicode="&#xfd;" horiz-adv-x="942" d="M-76 -424q61 12 105.5 32.5t81 54.5t72.5 85t83 123l84 129l-244 1063h46l229 -1012l119 189q96 154 162.5 266t112.5 205.5t78 176.5t58 175h43q-29 -98 -59.5 -183t-77.5 -179.5t-115.5 -211t-171.5 -278.5l-168 -264q-74 -115 -126 -189.5t-100 -119t-96 -66 t-112 -31.5zM539 1346l155 149h68l-197 -174z" />
<glyph unicode="&#xfe;" horiz-adv-x="1179" d="M-57 -436l401 1890h41l-135 -639q102 117 218 190.5t251 73.5q92 0 159.5 -35.5t113.5 -94t68.5 -134.5t22.5 -158q0 -117 -44 -237.5t-123.5 -219t-190.5 -159.5t-242 -61q-139 0 -228 67.5t-132 173.5l-139 -657h-41zM145 315q0 -61 30 -115.5t79 -94t112.5 -62.5 t131.5 -23q100 0 197.5 49.5t174 135.5t123.5 199.5t47 242.5q0 84 -21.5 155.5t-63.5 124t-103 82t-141 29.5q-72 0 -139.5 -24.5t-128 -66.5t-115 -98t-97.5 -120l-81 -383q-4 -12 -4.5 -19.5t-0.5 -11.5z" />
<glyph unicode="&#xff;" horiz-adv-x="942" d="M-76 -424q61 12 105.5 32.5t81 54.5t72.5 85t83 123l84 129l-244 1063h46l229 -1012l119 189q96 154 162.5 266t112.5 205.5t78 176.5t58 175h43q-29 -98 -59.5 -183t-77.5 -179.5t-115.5 -211t-171.5 -278.5l-168 -264q-74 -115 -126 -189.5t-100 -119t-96 -66 t-112 -31.5zM467 1337l33 158h41l-33 -158h-41zM694 1337l33 158h41l-33 -158h-41z" />
<glyph unicode="&#x100;" horiz-adv-x="1325" d="M-80 0l911 1454h37l291 -1454h-45l-104 520h-719l-326 -520h-45zM315 561h686l-163 834zM641 1790l8 41h545l-8 -41h-545z" />
<glyph unicode="&#x101;" horiz-adv-x="1187" d="M63 430q0 123 49.5 239.5t132.5 208t190.5 146.5t221.5 55q72 0 130.5 -21.5t102.5 -57t76.5 -84t51.5 -101.5l53 248h43l-209 -973q-4 -12 -4 -24q0 -25 25 -25l-8 -41q-12 0 -19 2q-39 12 -39 57q0 4 1 10.5t4 21.5t9.5 46t16.5 84q-43 -53 -96.5 -97t-111.5 -77 t-120 -50t-121 -17q-88 0 -158.5 37.5t-119.5 100t-75 144.5t-26 168zM104 430q0 -82 26 -155.5t72 -130t108 -90.5t136 -34q66 0 141 27t142.5 72t118.5 103.5t70 123.5l81 383q-8 61 -37.5 116.5t-76.5 98.5t-109.5 68.5t-134.5 25.5q-106 0 -203.5 -54t-171 -142 t-118 -196.5t-44.5 -215.5zM483 1405l9 41h544l-8 -41h-545z" />
<glyph unicode="&#x102;" horiz-adv-x="1325" d="M-80 0l911 1454h37l291 -1454h-45l-104 520h-719l-326 -520h-45zM315 561h686l-163 834zM774 1849q0 10 4 31h39q-2 -8 -2 -22q0 -41 23.5 -71t58.5 -30q41 0 80 36t55 87h37q-6 -31 -24.5 -59.5t-43 -50t-53 -35t-57.5 -13.5q-51 0 -84 37t-33 90z" />
<glyph unicode="&#x103;" horiz-adv-x="1187" d="M63 430q0 123 49.5 239.5t132.5 208t190.5 146.5t221.5 55q72 0 130.5 -21.5t102.5 -57t76.5 -84t51.5 -101.5l53 248h43l-209 -973q-4 -12 -4 -24q0 -25 25 -25l-8 -41q-12 0 -19 2q-39 12 -39 57q0 4 1 10.5t4 21.5t9.5 46t16.5 84q-43 -53 -96.5 -97t-111.5 -77 t-120 -50t-121 -17q-88 0 -158.5 37.5t-119.5 100t-75 144.5t-26 168zM104 430q0 -82 26 -155.5t72 -130t108 -90.5t136 -34q66 0 141 27t142.5 72t118.5 103.5t70 123.5l81 383q-8 61 -37.5 116.5t-76.5 98.5t-109.5 68.5t-134.5 25.5q-106 0 -203.5 -54t-171 -142 t-118 -196.5t-44.5 -215.5zM612 1464q0 10 4 31h39q-2 -8 -2 -22q0 -41 23.5 -71t58.5 -30q41 0 80 36t55 87h37q-6 -31 -24.5 -59.5t-43 -50t-53 -35t-57.5 -13.5q-51 0 -84 37t-33 90z" />
<glyph unicode="&#x104;" horiz-adv-x="1325" d="M-80 0l911 1454h37l291 -1454q-59 -37 -99 -66.5t-62.5 -54t-32 -47t-9.5 -47.5q0 -59 70 -76l-33 -35q-39 10 -58.5 38t-19.5 63q0 57 43 109.5t154 123.5l-102 512h-719l-326 -520h-45zM315 561h686l-163 834z" />
<glyph unicode="&#x105;" horiz-adv-x="1187" d="M63 430q0 123 49.5 239.5t132.5 208t190.5 146.5t221.5 55q72 0 130.5 -21.5t102.5 -57t76.5 -84t51.5 -101.5l53 248h43l-209 -973q-4 -12 -4 -24q0 -25 25 -25l-8 -41q-59 -37 -99.5 -66.5t-63 -54t-31.5 -47t-9 -47.5q0 -59 69 -76l-32 -35q-39 10 -58.5 38t-19.5 63 q0 29 10 55.5t33.5 55t62.5 60t97 68.5q-16 14 -17 45q0 4 1 10.5t4 21.5t9.5 46t16.5 84q-43 -53 -96.5 -97t-111.5 -77t-119.5 -50t-121.5 -17q-88 0 -158.5 37.5t-119.5 100t-75 144.5t-26 168zM104 430q0 -82 26 -155.5t72 -130t108 -90.5t136 -34q66 0 141 27t142.5 72 t118.5 103.5t70 123.5l81 383q-8 61 -37.5 116.5t-76.5 98.5t-109.5 68.5t-134.5 25.5q-106 0 -203.5 -54t-171 -142t-118 -196.5t-44.5 -215.5z" />
<glyph unicode="&#x106;" horiz-adv-x="1357" d="M106 600q0 147 61.5 301t172.5 279t261.5 203.5t328.5 78.5q92 0 165.5 -23.5t128 -65.5t90.5 -100.5t52 -127.5l-41 -12q-23 80 -65.5 135t-97 89t-119 49t-130.5 15q-166 0 -306 -74.5t-242.5 -193.5t-160 -265.5t-57.5 -287.5q0 -117 34 -220.5t95.5 -181 t149.5 -123.5t197 -46q68 0 143.5 18.5t150 55t144 95t127.5 138.5l37 -10q-53 -82 -127 -145.5t-157 -106.5t-169 -64.5t-166 -21.5q-119 0 -212 51t-156.5 137t-97.5 196.5t-34 227.5zM944 1731l156 149h67l-196 -174z" />
<glyph unicode="&#x107;" horiz-adv-x="1052" d="M63 430q0 131 51.5 250t137.5 207t197.5 140t230.5 52q129 0 215 -62.5t115 -174.5l-45 -15q-29 98 -109 154.5t-190 56.5q-106 0 -208 -48t-179.5 -130t-126 -191.5t-48.5 -230.5q0 -86 26 -162.5t71 -133t108.5 -89.5t141.5 -33q59 0 121.5 18.5t117.5 49.5t99.5 72 t64.5 84l39 -13q-29 -53 -77 -99t-108.5 -80t-126.5 -53t-132 -19q-86 0 -157 34.5t-122 96t-79 143.5t-28 176zM647 1346l156 149h67l-196 -174z" />
<glyph unicode="&#x108;" horiz-adv-x="1357" d="M106 600q0 147 61.5 301t172.5 279t261.5 203.5t328.5 78.5q92 0 165.5 -23.5t128 -65.5t90.5 -100.5t52 -127.5l-41 -12q-23 80 -65.5 135t-97 89t-119 49t-130.5 15q-166 0 -306 -74.5t-242.5 -193.5t-160 -265.5t-57.5 -287.5q0 -117 34 -220.5t95.5 -181 t149.5 -123.5t197 -46q68 0 143.5 18.5t150 55t144 95t127.5 138.5l37 -10q-53 -82 -127 -145.5t-157 -106.5t-169 -64.5t-166 -21.5q-119 0 -212 51t-156.5 137t-97.5 196.5t-34 227.5zM803 1729l213 151h33l149 -151l-37 -25l-139 129l-193 -129z" />
<glyph unicode="&#x109;" horiz-adv-x="1052" d="M63 430q0 131 51.5 250t137.5 207t197.5 140t230.5 52q129 0 215 -62.5t115 -174.5l-45 -15q-29 98 -109 154.5t-190 56.5q-106 0 -208 -48t-179.5 -130t-126 -191.5t-48.5 -230.5q0 -86 26 -162.5t71 -133t108.5 -89.5t141.5 -33q59 0 121.5 18.5t117.5 49.5t99.5 72 t64.5 84l39 -13q-29 -53 -77 -99t-108.5 -80t-126.5 -53t-132 -19q-86 0 -157 34.5t-122 96t-79 143.5t-28 176zM555 1343l213 152h33l149 -152l-37 -24l-139 129l-192 -129z" />
<glyph unicode="&#x10a;" horiz-adv-x="1357" d="M106 600q0 147 61.5 301t172.5 279t261.5 203.5t328.5 78.5q92 0 165.5 -23.5t128 -65.5t90.5 -100.5t52 -127.5l-41 -12q-23 80 -65.5 135t-97 89t-119 49t-130.5 15q-166 0 -306 -74.5t-242.5 -193.5t-160 -265.5t-57.5 -287.5q0 -117 34 -220.5t95.5 -181 t149.5 -123.5t197 -46q68 0 143.5 18.5t150 55t144 95t127.5 138.5l37 -10q-53 -82 -127 -145.5t-157 -106.5t-169 -64.5t-166 -21.5q-119 0 -212 51t-156.5 137t-97.5 196.5t-34 227.5zM979 1722l33 158h41l-33 -158h-41z" />
<glyph unicode="&#x10b;" horiz-adv-x="1052" d="M63 430q0 131 51.5 250t137.5 207t197.5 140t230.5 52q129 0 215 -62.5t115 -174.5l-45 -15q-29 98 -109 154.5t-190 56.5q-106 0 -208 -48t-179.5 -130t-126 -191.5t-48.5 -230.5q0 -86 26 -162.5t71 -133t108.5 -89.5t141.5 -33q59 0 121.5 18.5t117.5 49.5t99.5 72 t64.5 84l39 -13q-29 -53 -77 -99t-108.5 -80t-126.5 -53t-132 -19q-86 0 -157 34.5t-122 96t-79 143.5t-28 176zM721 1337l33 158h41l-33 -158h-41z" />
<glyph unicode="&#x10c;" horiz-adv-x="1357" d="M106 600q0 147 61.5 301t172.5 279t261.5 203.5t328.5 78.5q92 0 165.5 -23.5t128 -65.5t90.5 -100.5t52 -127.5l-41 -12q-23 80 -65.5 135t-97 89t-119 49t-130.5 15q-166 0 -306 -74.5t-242.5 -193.5t-160 -265.5t-57.5 -287.5q0 -117 34 -220.5t95.5 -181 t149.5 -123.5t197 -46q68 0 143.5 18.5t150 55t144 95t127.5 138.5l37 -10q-53 -82 -127 -145.5t-157 -106.5t-169 -64.5t-166 -21.5q-119 0 -212 51t-156.5 137t-97.5 196.5t-34 227.5zM813 1855l37 25l139 -129l193 129l26 -25l-213 -151h-32z" />
<glyph unicode="&#x10d;" horiz-adv-x="1052" d="M63 430q0 131 51.5 250t137.5 207t197.5 140t230.5 52q129 0 215 -62.5t115 -174.5l-45 -15q-29 98 -109 154.5t-190 56.5q-106 0 -208 -48t-179.5 -130t-126 -191.5t-48.5 -230.5q0 -86 26 -162.5t71 -133t108.5 -89.5t141.5 -33q59 0 121.5 18.5t117.5 49.5t99.5 72 t64.5 84l39 -13q-29 -53 -77 -99t-108.5 -80t-126.5 -53t-132 -19q-86 0 -157 34.5t-122 96t-79 143.5t-28 176zM565 1470l37 25l139 -129l193 129l27 -25l-213 -151h-33z" />
<glyph unicode="&#x10e;" horiz-adv-x="1400" d="M68 0l309 1454h444q133 0 230.5 -43t161 -117.5t94 -175t30.5 -217.5q0 -195 -61.5 -359.5t-172 -284.5t-262 -188.5t-329.5 -68.5h-444zM117 41h403q182 0 326.5 69.5t244 187.5t152.5 271.5t53 321.5q0 115 -30.5 211t-91 164.5t-151.5 107.5t-210 39h-403zM745 1855 l37 25l140 -129l192 129l27 -25l-213 -151h-33z" />
<glyph unicode="&#x10f;" horiz-adv-x="1185" d="M63 432q0 123 49.5 238.5t132.5 207t191.5 146.5t225.5 55q70 0 127 -21.5t101 -57t76.5 -84t51.5 -101.5l143 680h43l-301 -1407q-2 -6 -2 -11v-9q0 -27 25 -27l-8 -41q-12 0 -25 4q-33 12 -33 57v7.5t3 20.5t9.5 46t18.5 86q-43 -53 -96.5 -97t-111.5 -77t-119 -50 t-118 -17q-90 0 -161.5 37.5t-120.5 100t-75 144.5t-26 170zM104 436q0 -84 25 -159.5t71 -132t110.5 -90.5t144.5 -34q59 0 131.5 27t140.5 71t120 103.5t71 124.5l81 383q-8 63 -39.5 119.5t-80 98.5t-106.5 66.5t-120 24.5q-113 0 -213 -54t-175 -140t-118 -193.5 t-43 -214.5zM1257 1346l156 149h68l-197 -174z" />
<glyph unicode="&#x110;" horiz-adv-x="1415" d="M82 0l151 711h-137l8 41h138l149 702h445q133 0 230 -43t160.5 -117.5t94.5 -175t31 -217.5q0 -195 -61.5 -359.5t-172 -284.5t-262 -188.5t-330.5 -68.5h-444zM131 41h404q182 0 326.5 69.5t243.5 187.5t152.5 271.5t53.5 321.5q0 115 -31 211t-91.5 164.5t-151.5 107.5 t-210 39h-403l-141 -661h372l-8 -41h-375z" />
<glyph unicode="&#x111;" horiz-adv-x="1185" d="M63 432q0 123 49.5 238.5t132.5 207t191.5 146.5t225.5 55q70 0 127 -21.5t101 -57t76.5 -84t51.5 -101.5l100 481h-239l8 41h239l35 158h43l-35 -158h148l-8 -41h-148l-258 -1214q-2 -4 -2 -14q0 -27 25 -27l-8 -41q-31 0 -44.5 17.5t-13.5 43.5q0 14 2 21l29 139 q-43 -53 -96.5 -97t-111.5 -77t-118.5 -50t-118.5 -17q-90 0 -161.5 37.5t-120.5 100t-75 144.5t-26 170zM104 436q0 -84 25 -159.5t71 -132t110.5 -90.5t144.5 -34q59 0 131.5 27t140.5 71t120 103.5t71 124.5l81 383q-8 63 -39.5 119.5t-80 98.5t-106.5 66.5t-120 24.5 q-113 0 -213 -54t-175 -140t-118 -193.5t-43 -214.5z" />
<glyph unicode="&#x112;" d="M68 0l309 1454h889l-9 -41h-847l-140 -649h744l-8 -41h-744l-145 -682h866l-8 -41h-907zM618 1790l9 41h544l-8 -41h-545z" />
<glyph unicode="&#x113;" horiz-adv-x="1067" d="M63 430q0 121 47.5 237.5t130.5 208t195.5 147.5t245.5 56q51 0 107.5 -18.5t101.5 -53t74.5 -87t29.5 -121.5q0 -291 -536 -291q-78 0 -160 2t-186 8q-6 -43 -7 -86q0 -84 23 -158.5t68 -131t112.5 -89.5t155.5 -33q55 0 114.5 17.5t115 48.5t101.5 76t76 100l39 -12 q-35 -61 -85 -111.5t-110.5 -85.5t-127.5 -54t-137 -19q-92 0 -164 35.5t-121 97t-76 143.5t-27 174zM121 559q104 -6 185 -8t159 -2q135 0 228 18.5t150.5 52t83 79.5t25.5 102q0 61 -26.5 106t-67.5 75t-90 43t-94 13q-100 0 -190.5 -40t-163 -106.5t-125 -153.5 t-74.5 -179zM487 1405l9 41h544l-8 -41h-545z" />
<glyph unicode="&#x114;" d="M68 0l309 1454h889l-9 -41h-847l-140 -649h744l-8 -41h-744l-145 -682h866l-8 -41h-907zM756 1849q0 10 4 31h39q-2 -8 -2 -22q0 -41 23.5 -71t58.5 -30q41 0 79.5 36t55.5 87h37q-6 -31 -24.5 -59.5t-43.5 -50t-53.5 -35t-57.5 -13.5q-51 0 -83.5 37t-32.5 90z" />
<glyph unicode="&#x115;" horiz-adv-x="1067" d="M63 430q0 121 47.5 237.5t130.5 208t195.5 147.5t245.5 56q51 0 107.5 -18.5t101.5 -53t74.5 -87t29.5 -121.5q0 -291 -536 -291q-78 0 -160 2t-186 8q-6 -43 -7 -86q0 -84 23 -158.5t68 -131t112.5 -89.5t155.5 -33q55 0 114.5 17.5t115 48.5t101.5 76t76 100l39 -12 q-35 -61 -85 -111.5t-110.5 -85.5t-127.5 -54t-137 -19q-92 0 -164 35.5t-121 97t-76 143.5t-27 174zM121 559q104 -6 185 -8t159 -2q135 0 228 18.5t150.5 52t83 79.5t25.5 102q0 61 -26.5 106t-67.5 75t-90 43t-94 13q-100 0 -190.5 -40t-163 -106.5t-125 -153.5 t-74.5 -179zM623 1464q0 10 4 31h39q-2 -8 -2 -22q0 -41 23 -71t58 -30q41 0 80 36t56 87h37q-6 -31 -25 -59.5t-43.5 -50t-53 -35t-57.5 -13.5q-51 0 -83.5 37t-32.5 90z" />
<glyph unicode="&#x116;" d="M68 0l309 1454h889l-9 -41h-847l-140 -649h744l-8 -41h-744l-145 -682h866l-8 -41h-907zM866 1722l33 158h41l-33 -158h-41z" />
<glyph unicode="&#x117;" horiz-adv-x="1067" d="M63 430q0 121 47.5 237.5t130.5 208t195.5 147.5t245.5 56q51 0 107.5 -18.5t101.5 -53t74.5 -87t29.5 -121.5q0 -291 -536 -291q-78 0 -160 2t-186 8q-6 -43 -7 -86q0 -84 23 -158.5t68 -131t112.5 -89.5t155.5 -33q55 0 114.5 17.5t115 48.5t101.5 76t76 100l39 -12 q-35 -61 -85 -111.5t-110.5 -85.5t-127.5 -54t-137 -19q-92 0 -164 35.5t-121 97t-76 143.5t-27 174zM121 559q104 -6 185 -8t159 -2q135 0 228 18.5t150.5 52t83 79.5t25.5 102q0 61 -26.5 106t-67.5 75t-90 43t-94 13q-100 0 -190.5 -40t-163 -106.5t-125 -153.5 t-74.5 -179zM723 1337l33 158h41l-33 -158h-41z" />
<glyph unicode="&#x118;" d="M68 0l309 1454h889l-9 -41h-847l-140 -649h744l-8 -41h-744l-145 -682h866l-8 -41h-406q-59 -37 -99 -66.5t-62.5 -54t-31.5 -47t-9 -47.5q0 -59 69 -76l-33 -35q-39 10 -58 38t-19 63q0 55 40 105t142 120h-440z" />
<glyph unicode="&#x119;" horiz-adv-x="1067" d="M63 430q0 121 47.5 237.5t130.5 208t195.5 147.5t245.5 56q51 0 107.5 -18.5t101.5 -53t74.5 -87t29.5 -121.5q0 -291 -536 -291q-78 0 -160 2t-186 8q-6 -43 -7 -86q0 -84 23 -158.5t68 -131t112.5 -89.5t155.5 -33q55 0 114.5 17.5t115 48.5t101.5 76t76 100l39 -12 q-63 -113 -174.5 -184.5t-238.5 -83.5q-59 -37 -99.5 -67t-63 -54.5t-31.5 -47t-9 -46.5q0 -59 70 -76l-33 -35q-39 10 -58.5 37.5t-19.5 62.5q0 53 39 103.5t139 120.5q-88 4 -156.5 40.5t-115.5 98t-72 141.5t-25 170zM121 559q104 -6 185 -8t159 -2q135 0 228 18.5 t150.5 52t83 79.5t25.5 102q0 61 -26.5 106t-67.5 75t-90 43t-94 13q-100 0 -190.5 -40t-163 -106.5t-125 -153.5t-74.5 -179z" />
<glyph unicode="&#x11a;" d="M68 0l309 1454h889l-9 -41h-847l-140 -649h744l-8 -41h-744l-145 -682h866l-8 -41h-907zM696 1855l37 25l139 -129l193 129l27 -25l-213 -151h-33z" />
<glyph unicode="&#x11b;" horiz-adv-x="1067" d="M63 430q0 121 47.5 237.5t130.5 208t195.5 147.5t245.5 56q51 0 107.5 -18.5t101.5 -53t74.5 -87t29.5 -121.5q0 -291 -536 -291q-78 0 -160 2t-186 8q-6 -43 -7 -86q0 -84 23 -158.5t68 -131t112.5 -89.5t155.5 -33q55 0 114.5 17.5t115 48.5t101.5 76t76 100l39 -12 q-35 -61 -85 -111.5t-110.5 -85.5t-127.5 -54t-137 -19q-92 0 -164 35.5t-121 97t-76 143.5t-27 174zM121 559q104 -6 185 -8t159 -2q135 0 228 18.5t150.5 52t83 79.5t25.5 102q0 61 -26.5 106t-67.5 75t-90 43t-94 13q-100 0 -190.5 -40t-163 -106.5t-125 -153.5 t-74.5 -179zM559 1470l37 25l139 -129l193 129l26 -25l-213 -151h-32z" />
<glyph unicode="&#x11c;" horiz-adv-x="1409" d="M106 598q0 158 67 313.5t177.5 278.5t256 198.5t302.5 75.5q106 0 185.5 -23.5t133.5 -65.5t88 -100t52 -128l-41 -12q-47 154 -156.5 221t-271.5 67q-156 0 -293 -74.5t-238.5 -193.5t-161 -265.5t-59.5 -289.5q0 -115 34 -218t96.5 -181t151.5 -124t198 -46 q135 0 271 65.5t284 208.5l73 346h-323l8 41h365l-148 -692h-41l53 248q-270 -258 -551 -258q-123 0 -218 52t-160.5 137t-99.5 194.5t-34 224.5zM768 1729l213 151h33l149 -151l-37 -25l-139 129l-192 -129z" />
<glyph unicode="&#x11d;" horiz-adv-x="1179" d="M-45 -203l41 13q18 -59 52 -102.5t80 -71t102.5 -40t117.5 -12.5q82 0 161 23.5t143.5 71t111.5 116t67 160.5l58 266q-43 -53 -96.5 -97t-111.5 -77t-119.5 -50t-119.5 -17q-90 0 -160.5 37.5t-119.5 100t-75 144.5t-26 170q0 119 49.5 234.5t131.5 208t190.5 148.5 t226.5 56q68 0 123.5 -20.5t98.5 -56t76.5 -84t58.5 -103.5l53 248h39l-236 -1108q-23 -104 -76 -182t-125.5 -129.5t-158.5 -76t-172 -24.5q-90 0 -155.5 18.5t-110.5 52.5t-74 80t-45 103zM102 436q0 -84 25 -159.5t71 -132t110.5 -90.5t144.5 -34q72 0 146.5 30t139 77 t112.5 104.5t64 114.5l82 383q-10 68 -40.5 124t-76.5 97t-105.5 64.5t-123.5 23.5q-117 0 -217 -56t-174 -144t-116 -194.5t-42 -207.5zM535 1343l213 152h32l150 -152l-37 -24l-139 129l-193 -129z" />
<glyph unicode="&#x11e;" horiz-adv-x="1409" d="M106 598q0 158 67 313.5t177.5 278.5t256 198.5t302.5 75.5q106 0 185.5 -23.5t133.5 -65.5t88 -100t52 -128l-41 -12q-47 154 -156.5 221t-271.5 67q-156 0 -293 -74.5t-238.5 -193.5t-161 -265.5t-59.5 -289.5q0 -115 34 -218t96.5 -181t151.5 -124t198 -46 q135 0 271 65.5t284 208.5l73 346h-323l8 41h365l-148 -692h-41l53 248q-270 -258 -551 -258q-123 0 -218 52t-160.5 137t-99.5 194.5t-34 224.5zM838 1849q0 10 4 31h39q-2 -8 -2 -22q0 -41 23.5 -71t58.5 -30q41 0 79.5 36t55.5 87h37q-6 -31 -24.5 -59.5t-43.5 -50 t-53.5 -35t-57.5 -13.5q-51 0 -83.5 37t-32.5 90z" />
<glyph unicode="&#x11f;" horiz-adv-x="1179" d="M-45 -203l41 13q18 -59 52 -102.5t80 -71t102.5 -40t117.5 -12.5q82 0 161 23.5t143.5 71t111.5 116t67 160.5l58 266q-43 -53 -96.5 -97t-111.5 -77t-119.5 -50t-119.5 -17q-90 0 -160.5 37.5t-119.5 100t-75 144.5t-26 170q0 119 49.5 234.5t131.5 208t190.5 148.5 t226.5 56q68 0 123.5 -20.5t98.5 -56t76.5 -84t58.5 -103.5l53 248h39l-236 -1108q-23 -104 -76 -182t-125.5 -129.5t-158.5 -76t-172 -24.5q-90 0 -155.5 18.5t-110.5 52.5t-74 80t-45 103zM102 436q0 -84 25 -159.5t71 -132t110.5 -90.5t144.5 -34q72 0 146.5 30t139 77 t112.5 104.5t64 114.5l82 383q-10 68 -40.5 124t-76.5 97t-105.5 64.5t-123.5 23.5q-117 0 -217 -56t-174 -144t-116 -194.5t-42 -207.5zM596 1464q0 10 4 31h39q-2 -8 -2 -22q0 -41 23.5 -71t58.5 -30q41 0 80 36t55 87h37q-6 -31 -24.5 -59.5t-43 -50t-53.5 -35t-57 -13.5 q-51 0 -84 37t-33 90z" />
<glyph unicode="&#x120;" horiz-adv-x="1409" d="M106 598q0 158 67 313.5t177.5 278.5t256 198.5t302.5 75.5q106 0 185.5 -23.5t133.5 -65.5t88 -100t52 -128l-41 -12q-47 154 -156.5 221t-271.5 67q-156 0 -293 -74.5t-238.5 -193.5t-161 -265.5t-59.5 -289.5q0 -115 34 -218t96.5 -181t151.5 -124t198 -46 q135 0 271 65.5t284 208.5l73 346h-323l8 41h365l-148 -692h-41l53 248q-270 -258 -551 -258q-123 0 -218 52t-160.5 137t-99.5 194.5t-34 224.5zM946 1722l33 158h41l-33 -158h-41z" />
<glyph unicode="&#x121;" horiz-adv-x="1179" d="M-45 -203l41 13q18 -59 52 -102.5t80 -71t102.5 -40t117.5 -12.5q82 0 161 23.5t143.5 71t111.5 116t67 160.5l58 266q-43 -53 -96.5 -97t-111.5 -77t-119.5 -50t-119.5 -17q-90 0 -160.5 37.5t-119.5 100t-75 144.5t-26 170q0 119 49.5 234.5t131.5 208t190.5 148.5 t226.5 56q68 0 123.5 -20.5t98.5 -56t76.5 -84t58.5 -103.5l53 248h39l-236 -1108q-23 -104 -76 -182t-125.5 -129.5t-158.5 -76t-172 -24.5q-90 0 -155.5 18.5t-110.5 52.5t-74 80t-45 103zM102 436q0 -84 25 -159.5t71 -132t110.5 -90.5t144.5 -34q72 0 146.5 30t139 77 t112.5 104.5t64 114.5l82 383q-10 68 -40.5 124t-76.5 97t-105.5 64.5t-123.5 23.5q-117 0 -217 -56t-174 -144t-116 -194.5t-42 -207.5zM702 1337l33 158h41l-33 -158h-41z" />
<glyph unicode="&#x122;" horiz-adv-x="1409" d="M106 598q0 158 67 313.5t177.5 278.5t256 198.5t302.5 75.5q106 0 185.5 -23.5t133.5 -65.5t88 -100t52 -128l-41 -12q-47 154 -156.5 221t-271.5 67q-156 0 -293 -74.5t-238.5 -193.5t-161 -265.5t-59.5 -289.5q0 -115 34 -218t96.5 -181t151.5 -124t198 -46 q135 0 271 65.5t284 208.5l73 346h-323l8 41h365l-148 -692h-41l53 248q-270 -258 -551 -258q-123 0 -218 52t-160.5 137t-99.5 194.5t-34 224.5zM500 -342l45 119h-19l27 121h51l-24 -121l-52 -119h-28z" />
<glyph unicode="&#x123;" horiz-adv-x="1179" d="M-45 -203l41 13q18 -59 52 -102.5t80 -71t102.5 -40t117.5 -12.5q82 0 161 23.5t143.5 71t111.5 116t67 160.5l58 266q-43 -53 -96.5 -97t-111.5 -77t-119.5 -50t-119.5 -17q-90 0 -160.5 37.5t-119.5 100t-75 144.5t-26 170q0 119 49.5 234.5t131.5 208t190.5 148.5 t226.5 56q68 0 123.5 -20.5t98.5 -56t76.5 -84t58.5 -103.5l53 248h39l-236 -1108q-23 -104 -76 -182t-125.5 -129.5t-158.5 -76t-172 -24.5q-90 0 -155.5 18.5t-110.5 52.5t-74 80t-45 103zM102 436q0 -84 25 -159.5t71 -132t110.5 -90.5t144.5 -34q72 0 146.5 30t139 77 t112.5 104.5t64 114.5l82 383q-10 68 -40.5 124t-76.5 97t-105.5 64.5t-123.5 23.5q-117 0 -217 -56t-174 -144t-116 -194.5t-42 -207.5zM676 1255l24 121l52 119h28l-45 -119h19l-27 -121h-51z" />
<glyph unicode="&#x124;" horiz-adv-x="1435" d="M68 0l309 1454h41l-148 -690h957l147 690h41l-309 -1454h-41l154 723h-957l-153 -723h-41zM758 1729l213 151h33l149 -151l-37 -25l-139 129l-193 -129z" />
<glyph unicode="&#x125;" horiz-adv-x="1105" d="M35 0l317 1495h41l-149 -707q45 66 102 120.5t120.5 92t130.5 58t132 20.5q242 0 242 -284q0 -90 -25 -203l-125 -592h-41l125 592q10 55 17.5 104t7.5 90q0 252 -209 252q-72 0 -144.5 -28.5t-140 -77.5t-124 -115.5t-93.5 -144.5l-143 -672h-41zM582 1343l213 152h32 l150 -152l-37 -24l-139 129l-193 -129z" />
<glyph unicode="&#x126;" horiz-adv-x="1452" d="M76 0l241 1135h-98l10 41h97l59 278h41l-59 -278h956l59 278h41l-59 -278h96l-8 -41h-96l-242 -1135h-41l154 723h-957l-153 -723h-41zM279 764h956l78 371h-957z" />
<glyph unicode="&#x127;" horiz-adv-x="1105" d="M35 0l274 1296h-141l8 41h141l35 158h41l-35 -158h246l-8 -41h-246l-106 -508q45 66 102 120.5t120.5 92t130.5 58t132 20.5q242 0 242 -284q0 -90 -25 -203l-125 -592h-41l125 592q25 111 25 194q0 252 -209 252q-72 0 -144.5 -28.5t-140 -77.5t-124 -115.5 t-93.5 -144.5l-143 -672h-41z" />
<glyph unicode="&#x128;" horiz-adv-x="438" d="M68 0l309 1452h41l-309 -1452h-41zM174 1722q0 4 9.5 27t28.5 47.5t52 44t82 19.5q37 0 63.5 -12.5t50 -27t50.5 -26.5t63 -12q39 0 66 14t42 31.5t21.5 33t6.5 19.5h39q-2 -6 -11.5 -28.5t-31 -47t-56.5 -43t-88 -18.5q-43 0 -72.5 12t-54 26.5t-47 27t-53.5 12.5 t-53.5 -13.5t-37 -31t-21.5 -34t-9 -20.5h-39z" />
<glyph unicode="&#x129;" horiz-adv-x="372" d="M35 0l225 1063h41l-225 -1063h-41zM49 1337q0 4 9.5 26.5t28.5 47.5t52 44.5t82 19.5q37 0 63.5 -12.5t50 -27t50.5 -26.5t64 -12q39 0 65.5 14t41.5 31.5t21.5 33t6.5 19.5h39q-2 -6 -11.5 -28.5t-31 -47t-56.5 -43t-88 -18.5q-43 0 -72.5 12t-54 26.5t-47 27 t-53.5 12.5t-53.5 -13.5t-37 -31t-21.5 -34t-9 -20.5h-39z" />
<glyph unicode="&#x12a;" horiz-adv-x="438" d="M68 0l309 1452h41l-309 -1452h-41zM195 1790l8 41h545l-9 -41h-544z" />
<glyph unicode="&#x12b;" horiz-adv-x="372" d="M35 0l225 1063h41l-225 -1063h-41zM61 1405l9 41h544l-8 -41h-545z" />
<glyph unicode="&#x12c;" horiz-adv-x="438" d="M68 0l309 1452h41l-309 -1452h-41zM319 1849q0 10 5 31h38q-2 -8 -2 -22q0 -41 23.5 -71t58.5 -30q41 0 80 36t56 87h36q-6 -31 -24.5 -59.5t-43 -50t-53 -35t-57.5 -13.5q-51 0 -84 37t-33 90z" />
<glyph unicode="&#x12d;" horiz-adv-x="372" d="M35 0l225 1063h41l-225 -1063h-41zM207 1464q0 10 4 31h39q-2 -8 -2 -22q0 -41 23.5 -71t58.5 -30q41 0 80 36t55 87h37q-6 -31 -24.5 -59.5t-43 -50t-53.5 -35t-57 -13.5q-51 0 -84 37t-33 90z" />
<glyph unicode="&#x12e;" horiz-adv-x="440" d="M-133 -225q0 29 11 56.5t36 56t63.5 60.5t96.5 70l305 1434h41l-309 -1452q-59 -37 -99.5 -66.5t-63 -54t-31.5 -47t-9 -47.5q0 -61 69 -76l-32 -35q-39 10 -58.5 38t-19.5 63z" />
<glyph unicode="&#x12f;" horiz-adv-x="374" d="M-166 -225q0 29 11.5 56.5t36 56t63.5 60.5t96 70l221 1045h41l-225 -1063q-59 -37 -99 -66.5t-62.5 -54t-32 -47t-9.5 -47.5q0 -59 70 -76l-33 -35q-39 10 -58.5 38t-19.5 63zM322 1337l32 158h41l-33 -158h-40z" />
<glyph unicode="&#x130;" horiz-adv-x="438" d="M68 0l309 1452h41l-309 -1452h-41zM432 1722l33 158h41l-33 -158h-41z" />
<glyph unicode="&#x131;" horiz-adv-x="372" d="M35 0l225 1063h41l-225 -1063h-41z" />
<glyph unicode="&#x132;" horiz-adv-x="1376" d="M68 0l309 1452h41l-309 -1452h-41zM373 68l28 32q94 -82 261 -82q123 0 206.5 48.5t140 137.5t95.5 218t74 293l157 737h41l-157 -737q-35 -166 -77 -302.5t-104.5 -232.5t-155 -149.5t-229.5 -53.5q-174 0 -280 91z" />
<glyph unicode="&#x133;" horiz-adv-x="761" d="M-49 -279l37 25q29 -33 68.5 -43t80.5 -10q39 0 83 18.5t82 49t66.5 73.5t39.5 92l241 1137h41l-241 -1137q-12 -59 -47 -109t-80.5 -87t-95.5 -57.5t-95 -20.5q-57 0 -104 14.5t-76 54.5zM35 0l225 1063h41l-225 -1063h-41zM319 1337l33 158h41l-33 -158h-41zM709 1337 l32 158h41l-32 -158h-41z" />
<glyph unicode="&#x134;" horiz-adv-x="937" d="M-66 68l29 32q94 -82 260 -82q123 0 207 48.5t140.5 137.5t95.5 218t73 293l158 737h41l-158 -737q-35 -166 -76.5 -302.5t-104 -232.5t-155 -149.5t-229.5 -53.5q-174 0 -281 91zM768 1729l213 151h33l149 -151l-37 -25l-139 129l-192 -129z" />
<glyph unicode="&#x135;" horiz-adv-x="372" d="M-438 -279l37 25q29 -33 68.5 -43t80.5 -10q39 0 83 18.5t82 49t66.5 73.5t38.5 92l242 1137h41l-242 -1137q-12 -59 -47 -109t-80 -87t-95 -57.5t-95 -20.5q-57 0 -104.5 14.5t-75.5 54.5zM131 1343l213 152h33l149 -152l-37 -24l-139 129l-192 -129z" />
<glyph unicode="&#x136;" horiz-adv-x="1210" d="M68 0l309 1452h41l-201 -942l1077 944h60l-725 -635l442 -819h-53l-426 791l-387 -338l-96 -453h-41zM381 -342l45 119h-18l26 121h51l-24 -121l-51 -119h-29z" />
<glyph unicode="&#x137;" horiz-adv-x="1067" d="M35 0l317 1495h41l-170 -799q133 197 277.5 294t287.5 97q123 0 191 -56t68 -159q0 -68 -33 -128t-92.5 -109t-145.5 -85t-192 -54l245 -496h-49l-254 522q231 45 353 133t122 211q0 86 -57 134.5t-162 48.5q-135 0 -273 -99.5t-298 -312.5l-135 -637h-41zM281 -342 l45 119h-19l27 121h51l-25 -121l-51 -119h-28z" />
<glyph unicode="&#x138;" horiz-adv-x="991" d="M35 0l225 1063h41l-139 -662l825 658h55l-528 -422l313 -637h-49l-301 608l-327 -262l-74 -346h-41z" />
<glyph unicode="&#x139;" horiz-adv-x="1130" d="M68 0l309 1454h41l-301 -1413h866l-8 -41h-907zM410 1731l155 149h68l-197 -174z" />
<glyph unicode="&#x13a;" horiz-adv-x="458" d="M74 115v20t4 23l284 1337h41l-284 -1337q-2 -10 -3 -17.5t-1 -15.5q0 -96 106 -96q23 0 53.5 5t57.5 13l6 -33q-29 -10 -70.5 -17t-70.5 -7q-57 0 -90 33.5t-33 91.5zM356 1620l156 149h68l-197 -174z" />
<glyph unicode="&#x13b;" horiz-adv-x="1130" d="M68 0l309 1454h41l-301 -1413h866l-8 -41h-907zM414 -342l45 119h-19l27 121h51l-24 -121l-52 -119h-28z" />
<glyph unicode="&#x13c;" horiz-adv-x="458" d="M74 115v20t4 23l284 1337h41l-284 -1337q-2 -10 -3 -17.5t-1 -15.5q0 -96 106 -96q23 0 53.5 5t57.5 13l6 -33q-29 -10 -70.5 -17t-70.5 -7q-57 0 -90 33.5t-33 91.5zM82 -342l45 119h-18l26 121h51l-24 -121l-51 -119h-29z" />
<glyph unicode="&#x13d;" horiz-adv-x="1130" d="M68 0l309 1454h41l-301 -1413h866l-8 -41h-907zM522 1346l156 149h67l-196 -174z" />
<glyph unicode="&#x13e;" horiz-adv-x="444" d="M74 115v20t4 23l284 1337h41l-284 -1337q-2 -10 -3 -17.5t-1 -15.5q0 -96 106 -96q23 0 53.5 5t57.5 13l6 -33q-29 -10 -70.5 -17t-70.5 -7q-57 0 -90 33.5t-33 91.5zM477 1346l156 149h67l-196 -174z" />
<glyph unicode="&#x13f;" horiz-adv-x="1130" d="M68 0l309 1454h41l-301 -1413h866l-8 -41h-907zM684 737l37 170h39l-35 -170h-41z" />
<glyph unicode="&#x140;" horiz-adv-x="489" d="M74 115v20t4 23l284 1337h41l-284 -1337q-2 -10 -3 -17.5t-1 -15.5q0 -96 106 -96q23 0 53.5 5t57.5 13l6 -33q-29 -10 -70.5 -17t-70.5 -7q-57 0 -90 33.5t-33 91.5zM399 512l37 170h39l-35 -170h-41z" />
<glyph unicode="&#x141;" horiz-adv-x="1146" d="M37 483l182 156l174 815h41l-164 -772l447 385l20 -31l-479 -411l-125 -584h866l-8 -41h-907l123 582l-150 -129z" />
<glyph unicode="&#x142;" horiz-adv-x="487" d="M43 651l207 178l143 666h41l-133 -623l219 189l25 -29l-256 -219l-139 -655l-3.5 -17.5t-1.5 -15.5q0 -96 107 -96q23 0 52.5 5t57.5 13l7 -33q-29 -10 -71 -17t-71 -7q-59 0 -91 32.5t-32 90.5v21t5 24l129 612l-172 -147z" />
<glyph unicode="&#x143;" horiz-adv-x="1521" d="M68 0l309 1454h31l757 -1395l295 1393h41l-309 -1452h-45l-746 1374l-292 -1374h-41zM952 1731l156 149h68l-197 -174z" />
<glyph unicode="&#x144;" horiz-adv-x="1105" d="M35 0l225 1063h41l-57 -275q45 63 104.5 118t126 92.5t137 59t138.5 21.5q115 0 170 -62.5t55 -195.5q0 -49 -7 -106.5t-22 -122.5l-125 -592h-41l125 592q27 125 27 219q0 117 -46 172t-145 55q-72 0 -148.5 -27.5t-147 -76.5t-130 -116.5t-96.5 -145.5l-143 -672h-41z M676 1346l155 149h68l-197 -174z" />
<glyph unicode="&#x145;" horiz-adv-x="1521" d="M68 0l309 1454h31l757 -1395l295 1393h41l-309 -1452h-45l-746 1374l-292 -1374h-41zM545 -342l45 119h-19l27 121h51l-24 -121l-52 -119h-28z" />
<glyph unicode="&#x146;" horiz-adv-x="1105" d="M35 0l225 1063h41l-57 -275q45 63 104.5 118t126 92.5t137 59t138.5 21.5q115 0 170 -62.5t55 -195.5q0 -49 -7 -106.5t-22 -122.5l-125 -592h-41l125 592q27 125 27 219q0 117 -46 172t-145 55q-72 0 -148.5 -27.5t-147 -76.5t-130 -116.5t-96.5 -145.5l-143 -672h-41z M342 -342l45 119h-18l26 121h51l-24 -121l-51 -119h-29z" />
<glyph unicode="&#x147;" horiz-adv-x="1521" d="M68 0l309 1454h31l757 -1395l295 1393h41l-309 -1452h-45l-746 1374l-292 -1374h-41zM834 1855l36 25l140 -129l192 129l27 -25l-213 -151h-33z" />
<glyph unicode="&#x148;" horiz-adv-x="1105" d="M35 0l225 1063h41l-57 -275q45 63 104.5 118t126 92.5t137 59t138.5 21.5q115 0 170 -62.5t55 -195.5q0 -49 -7 -106.5t-22 -122.5l-125 -592h-41l125 592q27 125 27 219q0 117 -46 172t-145 55q-72 0 -148.5 -27.5t-147 -76.5t-130 -116.5t-96.5 -145.5l-143 -672h-41z M543 1470l37 25l139 -129l192 129l27 -25l-213 -151h-33z" />
<glyph unicode="&#x149;" horiz-adv-x="1105" d="M-102 1346l100 96l16 53h107l-197 -174zM35 0l225 1063h41l-57 -275q45 63 104.5 118t126 92.5t137 59t138.5 21.5q115 0 170 -62.5t55 -195.5q0 -49 -7 -106.5t-22 -122.5l-125 -592h-41l125 592q27 125 27 219q0 117 -46 172t-145 55q-72 0 -148.5 -27.5t-147 -76.5 t-130 -116.5t-96.5 -145.5l-143 -672h-41z" />
<glyph unicode="&#x14a;" horiz-adv-x="1523" d="M68 0l309 1454h31l755 -1395l297 1393h41l-323 -1526q-12 -59 -47 -109t-80 -87t-96.5 -57.5t-96.5 -20.5q-57 0 -103 14.5t-77 54.5l37 25q29 -33 69.5 -43t81.5 -10q39 0 83 18.5t82 49t66.5 73.5t39.5 92l14 66l-750 1382l-292 -1374h-41z" />
<glyph unicode="&#x14b;" horiz-adv-x="1105" d="M35 0l225 1063h41l-57 -275q45 63 104.5 118t126 92.5t137 59t138.5 21.5q115 0 170 -62.5t55 -195.5q0 -49 -7 -106.5t-22 -122.5l-141 -666q-12 -59 -47 -109t-80 -87t-95.5 -57.5t-95.5 -20.5q-57 0 -104 14.5t-76 54.5l37 25q29 -33 69 -43t81 -10q39 0 83 18.5 t81.5 49t66.5 73.5t39 92l141 666q27 125 27 219q0 117 -46 172t-145 55q-72 0 -148.5 -27.5t-147 -76.5t-130 -116.5t-96.5 -145.5l-143 -672h-41z" />
<glyph unicode="&#x14c;" horiz-adv-x="1486" d="M106 588q0 168 70 325.5t184.5 280.5t261 196.5t302.5 73.5q121 0 215 -51t158.5 -135t97 -192.5t32.5 -223.5q0 -166 -69.5 -323.5t-184 -279.5t-261 -195.5t-302.5 -73.5q-121 0 -215 49t-158.5 132t-97.5 191.5t-33 225.5zM147 594q0 -113 32 -215.5t93.5 -179 t149.5 -122.5t199 -46q154 0 293 73.5t243.5 192.5t166.5 266.5t62 294.5q0 113 -32.5 215.5t-94 180t-148.5 123.5t-196 46q-154 0 -293 -73.5t-244.5 -192.5t-168 -266.5t-62.5 -296.5zM715 1790l8 41h545l-8 -41h-545z" />
<glyph unicode="&#x14d;" horiz-adv-x="1148" d="M61 424q0 129 53.5 248t140.5 210t196.5 144t222.5 53q84 0 153.5 -34.5t118.5 -96t77 -143.5t28 -174q0 -127 -53.5 -245t-139.5 -208t-195.5 -144t-222.5 -54q-86 0 -155.5 34.5t-119.5 95t-77 141.5t-27 173zM102 428q0 -84 25 -158.5t71 -130t108 -87.5t140 -32 q102 0 204 50.5t181.5 133.5t129 192.5t49.5 228.5q0 86 -26 160.5t-71 131t-108.5 89t-138.5 32.5q-102 0 -203 -50t-180.5 -135t-130 -195.5t-50.5 -229.5zM469 1405l8 41h545l-8 -41h-545z" />
<glyph unicode="&#x14e;" horiz-adv-x="1486" d="M106 588q0 168 70 325.5t184.5 280.5t261 196.5t302.5 73.5q121 0 215 -51t158.5 -135t97 -192.5t32.5 -223.5q0 -166 -69.5 -323.5t-184 -279.5t-261 -195.5t-302.5 -73.5q-121 0 -215 49t-158.5 132t-97.5 191.5t-33 225.5zM147 594q0 -113 32 -215.5t93.5 -179 t149.5 -122.5t199 -46q154 0 293 73.5t243.5 192.5t166.5 266.5t62 294.5q0 113 -32.5 215.5t-94 180t-148.5 123.5t-196 46q-154 0 -293 -73.5t-244.5 -192.5t-168 -266.5t-62.5 -296.5zM850 1849q0 10 4 31h39q-2 -8 -2 -22q0 -41 23.5 -71t58.5 -30q41 0 80 36t55 87h37 q-6 -31 -24.5 -59.5t-43 -50t-53.5 -35t-57 -13.5q-51 0 -84 37t-33 90z" />
<glyph unicode="&#x14f;" horiz-adv-x="1148" d="M61 424q0 129 53.5 248t140.5 210t196.5 144t222.5 53q84 0 153.5 -34.5t118.5 -96t77 -143.5t28 -174q0 -127 -53.5 -245t-139.5 -208t-195.5 -144t-222.5 -54q-86 0 -155.5 34.5t-119.5 95t-77 141.5t-27 173zM102 428q0 -84 25 -158.5t71 -130t108 -87.5t140 -32 q102 0 204 50.5t181.5 133.5t129 192.5t49.5 228.5q0 86 -26 160.5t-71 131t-108.5 89t-138.5 32.5q-102 0 -203 -50t-180.5 -135t-130 -195.5t-50.5 -229.5zM602 1464q0 10 4 31h39q-2 -8 -2 -22q0 -41 23.5 -71t58.5 -30q41 0 80 36t55 87h37q-6 -31 -24.5 -59.5t-43 -50 t-53 -35t-57.5 -13.5q-51 0 -84 37t-33 90z" />
<glyph unicode="&#x150;" horiz-adv-x="1486" d="M106 588q0 168 70 325.5t184.5 280.5t261 196.5t302.5 73.5q121 0 215 -51t158.5 -135t97 -192.5t32.5 -223.5q0 -166 -69.5 -323.5t-184 -279.5t-261 -195.5t-302.5 -73.5q-121 0 -215 49t-158.5 132t-97.5 191.5t-33 225.5zM147 594q0 -113 32 -215.5t93.5 -179 t149.5 -122.5t199 -46q154 0 293 73.5t243.5 192.5t166.5 266.5t62 294.5q0 113 -32.5 215.5t-94 180t-148.5 123.5t-196 46q-154 0 -293 -73.5t-244.5 -192.5t-168 -266.5t-62.5 -296.5zM786 1731l156 149h68l-197 -174zM983 1731l156 149h67l-196 -174z" />
<glyph unicode="&#x151;" horiz-adv-x="1148" d="M61 424q0 129 53.5 248t140.5 210t196.5 144t222.5 53q84 0 153.5 -34.5t118.5 -96t77 -143.5t28 -174q0 -127 -53.5 -245t-139.5 -208t-195.5 -144t-222.5 -54q-86 0 -155.5 34.5t-119.5 95t-77 141.5t-27 173zM102 428q0 -84 25 -158.5t71 -130t108 -87.5t140 -32 q102 0 204 50.5t181.5 133.5t129 192.5t49.5 228.5q0 86 -26 160.5t-71 131t-108.5 89t-138.5 32.5q-102 0 -203 -50t-180.5 -135t-130 -195.5t-50.5 -229.5zM535 1346l155 149h68l-197 -174zM731 1346l156 149h67l-196 -174z" />
<glyph unicode="&#x152;" horiz-adv-x="2353" d="M106 590q0 166 70 323.5t184.5 280.5t262 196.5t303.5 73.5q111 0 197.5 -39t149 -106.5t100.5 -156.5t48 -189l103 481h891l-11 -41h-848l-137 -649h744l-11 -41h-743l-143 -682h864l-8 -41h-908l103 479q-55 -102 -132 -192t-169 -155.5t-194 -103.5t-206 -38 q-123 0 -217 50t-159.5 133t-99.5 191.5t-34 225.5zM147 594q0 -113 32 -215.5t93.5 -179t149.5 -122.5t199 -46q154 0 293 73.5t243.5 192.5t166.5 266.5t62 294.5q0 113 -32.5 215.5t-93 180t-147.5 123.5t-195 46q-154 0 -293.5 -73.5t-246 -192.5t-169 -266.5 t-62.5 -296.5z" />
<glyph unicode="&#x153;" horiz-adv-x="2048" d="M61 418q0 133 53.5 253t139.5 211t196.5 144t227.5 53q80 0 146.5 -28.5t115.5 -80.5t76.5 -126t30.5 -164q39 92 97 166t130 126t152.5 79.5t166.5 27.5q180 0 277.5 -121.5t97.5 -332.5q0 -63 -4 -85t-8 -32h-922q-6 -43 -6 -82q0 -86 26.5 -161t76 -129t117 -85 t149.5 -31q61 0 121.5 16.5t114 46.5t98.5 71t75 90l37 -11q-35 -55 -86 -102t-112.5 -81t-128 -52t-132.5 -18q-82 0 -152.5 29.5t-123.5 82.5t-85 127t-38 160q-43 -90 -103.5 -164t-133 -126t-152.5 -80.5t-160 -28.5q-84 0 -153.5 33.5t-118.5 93t-76 139.5t-27 172z M102 424q0 -86 25 -160t70 -128t108 -85t141 -31q104 0 206 49.5t181.5 133.5t128 193.5t48.5 232.5q0 86 -24.5 160.5t-70 130t-109 87t-138.5 31.5q-104 0 -206 -50t-181.5 -135t-129 -195.5t-49.5 -233.5zM1042 549h881q4 25 6 49.5t2 48.5q0 86 -24.5 159t-69.5 124 t-109.5 79.5t-142.5 28.5q-90 0 -176 -36.5t-157.5 -102t-127 -156t-82.5 -194.5z" />
<glyph unicode="&#x154;" horiz-adv-x="1261" d="M68 0l309 1454h563q72 0 129 -30.5t96 -82t59.5 -116t20.5 -133.5q0 -94 -37 -184.5t-98 -163t-144 -119.5t-175 -54l227 -571h-49l-228 571h-512l-120 -571h-41zM240 612h534q90 0 168 43t136.5 111t92 151.5t33.5 167.5q0 66 -19.5 125.5t-55 104.5t-87 71.5 t-112.5 26.5h-520zM778 1737l156 149h67l-196 -174z" />
<glyph unicode="&#x155;" horiz-adv-x="649" d="M35 0l225 1063h41l-57 -275q84 125 192.5 194t218.5 79q10 2 19.5 2h19.5l-8 -41q-145 -6 -269 -98.5t-198 -251.5l-143 -672h-41zM430 1346l156 149h67l-196 -174z" />
<glyph unicode="&#x156;" horiz-adv-x="1261" d="M68 0l309 1454h563q72 0 129 -30.5t96 -82t59.5 -116t20.5 -133.5q0 -94 -37 -184.5t-98 -163t-144 -119.5t-175 -54l227 -571h-49l-228 571h-512l-120 -571h-41zM240 612h534q90 0 168 43t136.5 111t92 151.5t33.5 167.5q0 66 -19.5 125.5t-55 104.5t-87 71.5 t-112.5 26.5h-520zM408 -342l45 119h-19l27 121h51l-25 -121l-51 -119h-28z" />
<glyph unicode="&#x157;" horiz-adv-x="649" d="M-51 -342l45 119h-19l27 121h51l-24 -121l-52 -119h-28zM35 0l225 1063h41l-57 -275q84 125 192.5 194t218.5 79q10 2 19.5 2h19.5l-8 -41q-145 -6 -269 -98.5t-198 -251.5l-143 -672h-41z" />
<glyph unicode="&#x158;" horiz-adv-x="1261" d="M68 0l309 1454h563q72 0 129 -30.5t96 -82t59.5 -116t20.5 -133.5q0 -94 -37 -184.5t-98 -163t-144 -119.5t-175 -54l227 -571h-49l-228 571h-512l-120 -571h-41zM240 612h534q90 0 168 43t136.5 111t92 151.5t33.5 167.5q0 66 -19.5 125.5t-55 104.5t-87 71.5 t-112.5 26.5h-520zM700 1862l37 24l140 -129l192 129l27 -24l-213 -152h-33z" />
<glyph unicode="&#x159;" horiz-adv-x="649" d="M35 0l225 1063h41l-57 -275q84 125 192.5 194t218.5 79q10 2 19.5 2h19.5l-8 -41q-145 -6 -269 -98.5t-198 -251.5l-143 -672h-41zM326 1470l36 25l140 -129l192 129l27 -25l-213 -151h-33z" />
<glyph unicode="&#x15a;" horiz-adv-x="1185" d="M-2 215l35 27q82 -115 193.5 -166t271.5 -51q119 0 215 25.5t163.5 74.5t104.5 121.5t37 169.5q0 61 -24.5 107t-74 80t-123 58.5t-171.5 47.5q-96 20 -172 42.5t-128.5 55.5t-80 81t-27.5 118q0 106 42 191t119 144.5t182.5 91t232.5 31.5q133 0 223 -40t151 -134 l-32 -28q-61 96 -142.5 129.5t-204.5 33.5q-141 0 -241.5 -31.5t-164 -88t-93 -131t-29.5 -160.5q0 -59 22.5 -100.5t68.5 -71t117 -52t165 -42.5q96 -23 175 -47.5t135 -60.5t87 -88t31 -126q0 -102 -41 -183t-116 -137.5t-181.5 -86t-235.5 -29.5q-166 0 -284.5 54 t-204.5 171zM776 1776l156 149h67l-196 -174z" />
<glyph unicode="&#x15b;" horiz-adv-x="921" d="M-25 152l35 26q61 -80 138 -119t186 -39q84 0 155.5 21.5t125 59.5t84 93.5t30.5 122.5q0 45 -20.5 77t-59.5 54.5t-95 41t-128 36.5q-68 16 -119 32.5t-87 38t-54.5 53.5t-18.5 79q0 88 36 154.5t96.5 109.5t137.5 64.5t158 21.5q123 0 200 -44t97 -109l-38 -17 q-23 63 -101 96t-174 33q-72 0 -138.5 -17t-117.5 -54t-82 -93.5t-31 -132.5q0 -39 15.5 -65.5t46.5 -45t77 -32.5t107 -31q76 -20 138.5 -38.5t106.5 -45t67.5 -62.5t23.5 -89q0 -78 -33.5 -142.5t-93 -111.5t-141.5 -72.5t-178 -25.5q-117 0 -205 41.5t-146 130.5z M569 1346l156 149h68l-197 -174z" />
<glyph unicode="&#x15c;" horiz-adv-x="1185" d="M-2 215l35 27q82 -115 193.5 -166t271.5 -51q119 0 215 25.5t163.5 74.5t104.5 121.5t37 169.5q0 61 -24.5 107t-74 80t-123 58.5t-171.5 47.5q-96 20 -172 42.5t-128.5 55.5t-80 81t-27.5 118q0 106 42 191t119 144.5t182.5 91t232.5 31.5q133 0 223 -40t151 -134 l-32 -28q-61 96 -142.5 129.5t-204.5 33.5q-141 0 -241.5 -31.5t-164 -88t-93 -131t-29.5 -160.5q0 -59 22.5 -100.5t68.5 -71t117 -52t165 -42.5q96 -23 175 -47.5t135 -60.5t87 -88t31 -126q0 -102 -41 -183t-116 -137.5t-181.5 -86t-235.5 -29.5q-166 0 -284.5 54 t-204.5 171zM668 1774l213 151h32l150 -151l-37 -25l-139 129l-193 -129z" />
<glyph unicode="&#x15d;" horiz-adv-x="921" d="M-25 152l35 26q61 -80 138 -119t186 -39q84 0 155.5 21.5t125 59.5t84 93.5t30.5 122.5q0 45 -20.5 77t-59.5 54.5t-95 41t-128 36.5q-68 16 -119 32.5t-87 38t-54.5 53.5t-18.5 79q0 88 36 154.5t96.5 109.5t137.5 64.5t158 21.5q123 0 200 -44t97 -109l-38 -17 q-23 63 -101 96t-174 33q-72 0 -138.5 -17t-117.5 -54t-82 -93.5t-31 -132.5q0 -39 15.5 -65.5t46.5 -45t77 -32.5t107 -31q76 -20 138.5 -38.5t106.5 -45t67.5 -62.5t23.5 -89q0 -78 -33.5 -142.5t-93 -111.5t-141.5 -72.5t-178 -25.5q-117 0 -205 41.5t-146 130.5z M442 1343l213 152h33l150 -152l-37 -24l-139 129l-193 -129z" />
<glyph unicode="&#x15e;" horiz-adv-x="1189" d="M2 215l35 27q82 -115 193.5 -166t271.5 -51q119 0 215 25.5t163.5 74.5t104.5 121.5t37 169.5q0 61 -24.5 107t-74 80t-123 58.5t-171.5 47.5q-96 20 -172 42.5t-128.5 55.5t-80 81t-27.5 118q0 106 42 191t119 144.5t182.5 91t232.5 31.5q133 0 223 -40t151 -134 l-32 -28q-61 96 -142.5 129.5t-203.5 33.5q-141 0 -241.5 -31.5t-164 -88t-93.5 -131t-30 -160.5q0 -59 22.5 -100.5t68.5 -71t117 -52t165 -42.5q96 -23 175 -47.5t135.5 -60.5t87 -88t30.5 -126q0 -98 -38 -178t-108.5 -135.5t-170 -87t-222.5 -35.5l-82 -107 q23 8 46.5 10.5t39.5 2.5q111 0 111 -86q0 -72 -50 -107t-136 -35q-51 0 -95.5 11.5t-78.5 27.5l26 37q29 -14 71 -25.5t91 -11.5q133 0 133 96q0 33 -22.5 46.5t-57.5 13.5q-41 0 -88 -11.5t-76 -21.5l121 160q-162 4 -276.5 57t-200.5 168z" />
<glyph unicode="&#x15f;" horiz-adv-x="921" d="M-25 152l35 26q61 -80 138 -119t186 -39q84 0 155.5 21.5t125 59.5t84 93.5t30.5 122.5q0 45 -20.5 77t-59.5 54.5t-95 41t-128 36.5q-68 16 -119 32.5t-87 38t-54.5 53.5t-18.5 79q0 88 36 154.5t96.5 109.5t137.5 64.5t158 21.5q123 0 200 -44t97 -109l-38 -17 q-23 63 -101 96t-174 33q-72 0 -138.5 -17t-117.5 -54t-82 -93.5t-31 -132.5q0 -39 15.5 -65.5t46.5 -45t77 -32.5t107 -31q76 -20 138.5 -38.5t106.5 -45t67.5 -62.5t23.5 -89q0 -76 -32.5 -139.5t-89 -109.5t-135.5 -73.5t-171 -29.5l-82 -107q23 8 46.5 10t39.5 2 q111 0 111 -86q0 -72 -50.5 -106.5t-136.5 -34.5q-51 0 -95 11.5t-79 27.5l27 37q29 -14 71 -25.5t91 -11.5q133 0 133 96q0 33 -22.5 46.5t-57.5 13.5q-41 0 -88 -11.5t-76 -21.5l121 162q-106 4 -187 45t-135 125z" />
<glyph unicode="&#x160;" horiz-adv-x="1185" d="M-2 215l35 27q82 -115 193.5 -166t271.5 -51q119 0 215 25.5t163.5 74.5t104.5 121.5t37 169.5q0 61 -24.5 107t-74 80t-123 58.5t-171.5 47.5q-96 20 -172 42.5t-128.5 55.5t-80 81t-27.5 118q0 106 42 191t119 144.5t182.5 91t232.5 31.5q133 0 223 -40t151 -134 l-32 -28q-61 96 -142.5 129.5t-204.5 33.5q-141 0 -241.5 -31.5t-164 -88t-93 -131t-29.5 -160.5q0 -59 22.5 -100.5t68.5 -71t117 -52t165 -42.5q96 -23 175 -47.5t135 -60.5t87 -88t31 -126q0 -102 -41 -183t-116 -137.5t-181.5 -86t-235.5 -29.5q-166 0 -284.5 54 t-204.5 171zM688 1901l37 24l139 -129l193 129l26 -24l-213 -152h-32z" />
<glyph unicode="&#x161;" horiz-adv-x="921" d="M-25 152l35 26q61 -80 138 -119t186 -39q84 0 155.5 21.5t125 59.5t84 93.5t30.5 122.5q0 45 -20.5 77t-59.5 54.5t-95 41t-128 36.5q-68 16 -119 32.5t-87 38t-54.5 53.5t-18.5 79q0 88 36 154.5t96.5 109.5t137.5 64.5t158 21.5q123 0 200 -44t97 -109l-38 -17 q-23 63 -101 96t-174 33q-72 0 -138.5 -17t-117.5 -54t-82 -93.5t-31 -132.5q0 -39 15.5 -65.5t46.5 -45t77 -32.5t107 -31q76 -20 138.5 -38.5t106.5 -45t67.5 -62.5t23.5 -89q0 -78 -33.5 -142.5t-93 -111.5t-141.5 -72.5t-178 -25.5q-117 0 -205 41.5t-146 130.5z M449 1470l36 25l140 -129l192 129l27 -25l-213 -151h-33z" />
<glyph unicode="&#x162;" horiz-adv-x="1173" d="M199 1413l8 41h1098l-9 -41h-528l-301 -1413l-90 -117q23 8 46 10.5t40 2.5q111 0 110 -86q0 -72 -50 -107t-136 -35q-51 0 -95 11.5t-79 27.5l27 37q29 -14 70.5 -25.5t90.5 -11.5q133 0 134 96q0 33 -23 46.5t-57 13.5q-41 0 -88.5 -11.5t-75.5 -21.5l137 182l299 1401 h-528z" />
<glyph unicode="&#x163;" horiz-adv-x="575" d="M16 -293l27 37q29 -14 71 -25.5t91 -11.5q133 0 133 96q0 33 -22.5 46.5t-57.5 13.5q-41 0 -88 -11.5t-76 -21.5l121 162q-53 8 -85 41t-32 86q0 8 1 16t3 19l185 868h-146l9 41h147l78 371h41l-78 -371h242l-9 -41h-243l-164 -764q-12 -57 -17.5 -82.5t-5.5 -40.5 q0 -51 33 -77.5t80 -26.5q33 0 63.5 7t54 16t39 17.5t17.5 10.5l14 -33l-14 -9t-38.5 -19.5t-57.5 -19.5t-70 -11l-82 -107q23 8 46.5 10.5t39.5 2.5q111 0 111 -86q0 -72 -50.5 -107t-136.5 -35q-51 0 -95 11.5t-79 27.5z" />
<glyph unicode="&#x164;" horiz-adv-x="1175" d="M201 1413l8 41h1098l-9 -41h-528l-301 -1413h-41l301 1413h-528zM631 1855l37 25l139 -129l192 129l27 -25l-213 -151h-33z" />
<glyph unicode="&#x165;" horiz-adv-x="575" d="M98 119q0 8 1 16t3 19l185 868h-146l9 41h147l78 371h41l-78 -371h242l-9 -41h-243l-164 -764q-12 -57 -17.5 -82.5t-5.5 -40.5q0 -51 33 -77.5t80 -26.5q33 0 63.5 7t54 16t39 17.5t17.5 10.5l14 -33l-16 -10t-44 -20.5t-63.5 -19.5t-74.5 -9q-63 0 -104.5 34.5 t-41.5 94.5zM543 1346l155 149h68l-197 -174z" />
<glyph unicode="&#x166;" horiz-adv-x="1261" d="M180 827l8 41h469l117 545h-528l8 41h1100l-11 -41h-528l-117 -545h471l-8 -41h-471l-174 -827h-41l174 827h-469z" />
<glyph unicode="&#x167;" horiz-adv-x="579" d="M74 694l8 41h145l62 287h-146l9 41h145l80 371h41l-80 -371h244l-9 -41h-243l-62 -287h244l-8 -41h-246l-96 -456q-8 -37 -13.5 -62.5t-5.5 -42.5q0 -51 33 -76.5t80 -25.5q33 0 63.5 7t54 16t39 17.5t17.5 10.5l14 -33q-2 -2 -18 -11t-43 -20.5t-62.5 -19.5t-74.5 -8 q-63 0 -104.5 34.5t-41.5 94.5q0 8 1 16t3 19l115 540h-145z" />
<glyph unicode="&#x168;" horiz-adv-x="1482" d="M170 463q0 63 8 129.5t23 134.5l153 727h41l-153 -727q-14 -66 -22.5 -131.5t-8.5 -126.5q0 -92 20.5 -172t67.5 -139.5t125 -93t192 -33.5q156 0 270.5 61.5t195.5 159.5t131.5 223t76.5 252l154 727h41l-154 -727q-31 -145 -88 -278.5t-144 -234.5t-208 -162.5 t-281 -61.5q-125 0 -209 36.5t-135 101.5t-73.5 151t-22.5 184zM705 1722q0 4 9 27t28.5 47.5t52 44t82.5 19.5q37 0 63.5 -12.5t50 -27t50 -26.5t63.5 -12q39 0 65.5 14t42 31.5t21.5 33t6 19.5h39q-2 -6 -11.5 -28.5t-31 -47t-56 -43t-87.5 -18.5q-43 0 -73 12t-54.5 26.5 t-47 27t-53.5 12.5t-53.5 -13.5t-36.5 -31t-21.5 -34t-9.5 -20.5h-38z" />
<glyph unicode="&#x169;" horiz-adv-x="1128" d="M96 264q0 88 25 203l127 596h41l-127 -596q-25 -115 -25 -199q0 -248 215 -248q74 0 148.5 28t143.5 76t127 115.5t97 147.5l144 676h41l-197 -926q-4 -23 -9 -43t-5 -24q0 -29 26 -29l-10 -41q-12 0 -24 4q-31 12 -31 55q0 2 1 8.5t4 27t11 61.5t25 114 q-47 -68 -105.5 -121t-124 -91t-135 -58t-137.5 -20q-246 0 -246 284zM424 1337q0 4 9 26.5t28.5 47.5t52.5 44.5t82 19.5q37 0 63.5 -12.5t50 -27t50 -26.5t63.5 -12q39 0 65.5 14t42 31.5t21.5 33t6 19.5h39q-2 -6 -11 -28.5t-30.5 -47t-56.5 -43t-88 -18.5 q-43 0 -72.5 12t-54.5 26.5t-47.5 27t-52.5 12.5q-31 0 -53.5 -13.5t-37 -31t-21.5 -34t-9 -20.5h-39z" />
<glyph unicode="&#x16a;" horiz-adv-x="1482" d="M170 463q0 63 8 129.5t23 134.5l153 727h41l-153 -727q-14 -66 -22.5 -131.5t-8.5 -126.5q0 -92 20.5 -172t67.5 -139.5t125 -93t192 -33.5q156 0 270.5 61.5t195.5 159.5t131.5 223t76.5 252l154 727h41l-154 -727q-31 -145 -88 -278.5t-144 -234.5t-208 -162.5 t-281 -61.5q-125 0 -209 36.5t-135 101.5t-73.5 151t-22.5 184zM711 1790l8 41h545l-9 -41h-544z" />
<glyph unicode="&#x16b;" horiz-adv-x="1128" d="M96 264q0 88 25 203l127 596h41l-127 -596q-25 -115 -25 -199q0 -248 215 -248q74 0 148.5 28t143.5 76t127 115.5t97 147.5l144 676h41l-197 -926q-4 -23 -9 -43t-5 -24q0 -29 26 -29l-10 -41q-12 0 -24 4q-31 12 -31 55q0 2 1 8.5t4 27t11 61.5t25 114 q-47 -68 -105.5 -121t-124 -91t-135 -58t-137.5 -20q-246 0 -246 284zM426 1405l8 41h545l-8 -41h-545z" />
<glyph unicode="&#x16c;" horiz-adv-x="1482" d="M170 463q0 63 8 129.5t23 134.5l153 727h41l-153 -727q-14 -66 -22.5 -131.5t-8.5 -126.5q0 -92 20.5 -172t67.5 -139.5t125 -93t192 -33.5q156 0 270.5 61.5t195.5 159.5t131.5 223t76.5 252l154 727h41l-154 -727q-31 -145 -88 -278.5t-144 -234.5t-208 -162.5 t-281 -61.5q-125 0 -209 36.5t-135 101.5t-73.5 151t-22.5 184zM848 1849q0 10 4 31h39q-2 -8 -2 -22q0 -41 23.5 -71t58.5 -30q41 0 80 36t55 87h37q-6 -31 -24.5 -59.5t-43 -50t-53.5 -35t-57 -13.5q-51 0 -84 37t-33 90z" />
<glyph unicode="&#x16d;" horiz-adv-x="1128" d="M96 264q0 88 25 203l127 596h41l-127 -596q-25 -115 -25 -199q0 -248 215 -248q74 0 148.5 28t143.5 76t127 115.5t97 147.5l144 676h41l-197 -926q-4 -23 -9 -43t-5 -24q0 -29 26 -29l-10 -41q-12 0 -24 4q-31 12 -31 55q0 2 1 8.5t4 27t11 61.5t25 114 q-47 -68 -105.5 -121t-124 -91t-135 -58t-137.5 -20q-246 0 -246 284zM557 1464q0 10 4 31h39q-2 -8 -2 -22q0 -41 23.5 -71t58.5 -30q41 0 80 36t55 87h37q-6 -31 -24.5 -59.5t-43 -50t-53.5 -35t-57 -13.5q-51 0 -84 37t-33 90z" />
<glyph unicode="&#x16e;" horiz-adv-x="1482" d="M170 463q0 63 8 129.5t23 134.5l153 727h41l-153 -727q-14 -66 -22.5 -131.5t-8.5 -126.5q0 -92 20.5 -172t67.5 -139.5t125 -93t192 -33.5q156 0 270.5 61.5t195.5 159.5t131.5 223t76.5 252l154 727h41l-154 -727q-31 -145 -88 -278.5t-144 -234.5t-208 -162.5 t-281 -61.5q-125 0 -209 36.5t-135 101.5t-73.5 151t-22.5 184zM868 1741q0 29 11.5 54.5t31 44t45 29.5t52.5 11q41 0 64.5 -26.5t23.5 -67.5q0 -29 -11.5 -54.5t-31 -44t-45 -29.5t-52.5 -11q-41 0 -64.5 26.5t-23.5 67.5zM901 1747q0 -29 17.5 -48.5t46.5 -19.5 q33 0 66.5 29t33.5 72q0 31 -18.5 49t-47.5 18q-37 0 -67.5 -27.5t-30.5 -72.5z" />
<glyph unicode="&#x16f;" horiz-adv-x="1128" d="M96 264q0 88 25 203l127 596h41l-127 -596q-25 -115 -25 -199q0 -248 215 -248q74 0 148.5 28t143.5 76t127 115.5t97 147.5l144 676h41l-197 -926q-4 -23 -9 -43t-5 -24q0 -29 26 -29l-10 -41q-12 0 -24 4q-31 12 -31 55q0 2 1 8.5t4 27t11 61.5t25 114 q-47 -68 -105.5 -121t-124 -91t-135 -58t-137.5 -20q-246 0 -246 284zM586 1356q0 29 11 54.5t30.5 44t45 29.5t52.5 11q41 0 64.5 -26.5t23.5 -67.5q0 -29 -11 -54.5t-30.5 -44t-45.5 -29.5t-52 -11q-41 0 -64.5 26.5t-23.5 67.5zM618 1362q0 -29 17.5 -48.5t46.5 -19.5 q33 0 66.5 29t33.5 72q0 31 -18 49t-47 18q-37 0 -68 -27.5t-31 -72.5z" />
<glyph unicode="&#x170;" horiz-adv-x="1482" d="M170 463q0 63 8 129.5t23 134.5l153 727h41l-153 -727q-14 -66 -22.5 -131.5t-8.5 -126.5q0 -92 20.5 -172t67.5 -139.5t125 -93t192 -33.5q156 0 270.5 61.5t195.5 159.5t131.5 223t76.5 252l154 727h41l-154 -727q-31 -145 -88 -278.5t-144 -234.5t-208 -162.5 t-281 -61.5q-125 0 -209 36.5t-135 101.5t-73.5 151t-22.5 184zM793 1731l155 149h68l-197 -174zM989 1731l156 149h67l-196 -174z" />
<glyph unicode="&#x171;" horiz-adv-x="1128" d="M96 264q0 88 25 203l127 596h41l-127 -596q-25 -115 -25 -199q0 -248 215 -248q74 0 148.5 28t143.5 76t127 115.5t97 147.5l144 676h41l-197 -926q-4 -23 -9 -43t-5 -24q0 -29 26 -29l-10 -41q-12 0 -24 4q-31 12 -31 55q0 2 1 8.5t4 27t11 61.5t25 114 q-47 -68 -105.5 -121t-124 -91t-135 -58t-137.5 -20q-246 0 -246 284zM500 1346l155 149h68l-197 -174zM696 1346l156 149h68l-197 -174z" />
<glyph unicode="&#x172;" horiz-adv-x="1482" d="M170 463q0 63 8 129.5t23 134.5l153 727h41l-153 -727q-14 -66 -22.5 -131.5t-8.5 -126.5q0 -92 20.5 -172t67.5 -139.5t125 -93t192 -33.5q156 0 270.5 61.5t195.5 159.5t131.5 223t76.5 252l154 727h41l-154 -727q-31 -141 -86 -272t-139 -232.5t-201 -164t-270 -66.5 q-59 -37 -98 -66.5t-61.5 -54.5t-32 -47.5t-9.5 -46.5q0 -61 70 -76l-33 -35q-39 10 -58.5 38t-19.5 63q0 53 39 104t141 121q-115 6 -191.5 45t-123.5 102.5t-67.5 146.5t-20.5 177z" />
<glyph unicode="&#x173;" horiz-adv-x="1128" d="M96 264q0 88 25 203l127 596h41l-127 -596q-25 -115 -25 -199q0 -248 215 -248q74 0 148.5 28t143.5 76t127 115.5t97 147.5l144 676h41l-197 -926q-4 -23 -9 -43t-5 -24q0 -29 26 -29l-10 -41q-59 -37 -99 -66.5t-62.5 -54t-32 -47t-9.5 -47.5q0 -61 70 -76l-33 -35 q-39 10 -58.5 38t-19.5 63q0 55 44 110.5t159 128.5q-14 14 -14 47q0 2 1 10.5t5 30t12 61.5t23 107q-47 -68 -105.5 -121t-124 -91t-135 -58t-137.5 -20q-246 0 -246 284z" />
<glyph unicode="&#x174;" horiz-adv-x="2019" d="M207 1454h45l280 -1403l496 797l-121 594h45l107 -545l342 545h45l-375 -594l162 -797l874 1403h45l-909 -1454h-45l-158 797l-497 -797h-45zM1040 1729l213 151h33l150 -151l-37 -25l-139 129l-193 -129z" />
<glyph unicode="&#x175;" horiz-adv-x="1480" d="M125 1063h43l180 -1006q119 129 215 275.5t172 294.5l-78 436h43l66 -373q47 98 85 192.5t67 180.5h40q-35 -111 -79.5 -221.5t-100.5 -220.5l103 -564q104 113 192 242t160 261t126 260t91 243h41q-86 -268 -230.5 -538.5t-375.5 -524.5h-37l-100 559 q-78 -143 -175.5 -283.5t-220.5 -275.5h-37zM707 1343l213 152h32l150 -152l-37 -24l-139 129l-193 -129z" />
<glyph unicode="&#x176;" horiz-adv-x="1216" d="M199 1454h47l352 -844l713 844h47l-750 -891l-121 -563h-41l121 567zM643 1729l213 151h33l149 -151l-37 -25l-139 129l-192 -129z" />
<glyph unicode="&#x177;" horiz-adv-x="942" d="M-76 -424q61 12 105.5 32.5t81 54.5t72.5 85t83 123l84 129l-244 1063h46l229 -1012l119 189q96 154 162.5 266t112.5 205.5t78 176.5t58 175h43q-29 -98 -59.5 -183t-77.5 -179.5t-115.5 -211t-171.5 -278.5l-168 -264q-74 -115 -126 -189.5t-100 -119t-96 -66 t-112 -31.5zM408 1343l213 152h32l150 -152l-37 -24l-139 129l-193 -129z" />
<glyph unicode="&#x178;" horiz-adv-x="1216" d="M199 1454h47l352 -844l713 844h47l-750 -891l-121 -563h-41l121 567zM692 1722l33 158h41l-33 -158h-41zM920 1722l32 158h41l-32 -158h-41z" />
<glyph unicode="&#x179;" horiz-adv-x="1202" d="M-82 0l8 41l1344 1372h-1043l11 41h1093l-10 -41l-1344 -1372h1045l-8 -41h-1096zM741 1731l156 149h68l-197 -174z" />
<glyph unicode="&#x17a;" horiz-adv-x="935" d="M-74 0l8 41l977 981h-757l8 41h809l-8 -41l-975 -981h760l-11 -41h-811zM539 1346l155 149h68l-197 -174z" />
<glyph unicode="&#x17b;" horiz-adv-x="1202" d="M-82 0l8 41l1344 1372h-1043l11 41h1093l-10 -41l-1344 -1372h1045l-8 -41h-1096zM817 1722l33 158h41l-33 -158h-41z" />
<glyph unicode="&#x17c;" horiz-adv-x="935" d="M-74 0l8 41l977 981h-757l8 41h809l-8 -41l-975 -981h760l-11 -41h-811zM610 1337l33 158h41l-33 -158h-41z" />
<glyph unicode="&#x17d;" horiz-adv-x="1202" d="M-82 0l8 41l1344 1372h-1043l11 41h1093l-10 -41l-1344 -1372h1045l-8 -41h-1096zM659 1855l37 25l140 -129l192 129l27 -25l-213 -151h-33z" />
<glyph unicode="&#x17e;" horiz-adv-x="935" d="M-74 0l8 41l977 981h-757l8 41h809l-8 -41l-975 -981h760l-11 -41h-811zM453 1470l36 25l140 -129l192 129l27 -25l-213 -151h-33z" />
<glyph unicode="&#x18f;" horiz-adv-x="1447" d="M66 537q0 100 26 204h1235q4 35 7 67t3 66q0 119 -33.5 219.5t-95 173t-148.5 113.5t-192 41q-78 0 -157.5 -22.5t-153.5 -64.5t-137.5 -100t-106.5 -130l-37 18q43 74 110 136.5t147.5 108.5t169 71.5t174.5 25.5q115 0 209 -47t160.5 -130t102 -193.5t35.5 -235.5 q0 -178 -69.5 -338t-183 -279.5t-259 -190t-297.5 -70.5q-115 0 -209 40.5t-160.5 114.5t-103 176.5t-36.5 225.5zM113 545q0 -98 26.5 -191.5t84 -166t144 -117.5t207.5 -45q129 0 250 51t221.5 142t171 214t99.5 264h-1188q-16 -78 -16 -151z" />
<glyph unicode="&#x192;" horiz-adv-x="997" d="M-127 -279l37 25q29 -33 68.5 -43t80.5 -10q39 0 83 18.5t82 49t66.5 73.5t39.5 92l207 971h-146l8 41h148l35 168q41 195 134 302.5t220 107.5q55 0 102 -19.5t68 -50.5l-37 -25q-18 25 -56 40.5t-83 15.5q-111 0 -191 -95.5t-116 -275.5l-35 -168h299l-8 -41h-301 l-207 -971q-12 -59 -47 -109t-80 -87t-95.5 -57.5t-95.5 -20.5q-57 0 -104 14.5t-76 54.5z" />
<glyph unicode="&#x1c4;" horiz-adv-x="2603" d="M68 0l309 1454h444q133 0 230.5 -43t161 -117.5t94 -175t30.5 -217.5q0 -195 -61.5 -359.5t-172 -284.5t-262 -188.5t-329.5 -68.5h-444zM117 41h403q182 0 326.5 69.5t244 187.5t152.5 271.5t53 321.5q0 115 -30.5 211t-91 164.5t-151.5 107.5t-210 39h-403zM1319 0 l8 41l1344 1372h-1043l10 41h1094l-10 -41l-1344 -1372h1045l-8 -41h-1096zM2060 1855l37 25l139 -129l193 129l27 -25l-213 -151h-33z" />
<glyph unicode="&#x1c5;" horiz-adv-x="2336" d="M68 0l309 1454h444q133 0 230.5 -43t161 -117.5t94 -175t30.5 -217.5q0 -195 -61.5 -359.5t-172 -284.5t-262 -188.5t-329.5 -68.5h-444zM117 41h403q182 0 326.5 69.5t244 187.5t152.5 271.5t53 321.5q0 115 -30.5 211t-91 164.5t-151.5 107.5t-210 39h-403zM1327 0 l8 41l977 981h-758l9 41h809l-9 -41l-974 -981h759l-10 -41h-811zM1853 1470l37 25l140 -129l192 129l27 -25l-213 -151h-33z" />
<glyph unicode="&#x1c6;" horiz-adv-x="2121" d="M63 432q0 123 49.5 238.5t132.5 207t191.5 146.5t225.5 55q70 0 127 -21.5t101 -57t76.5 -84t51.5 -101.5l143 680h43l-301 -1407q-2 -6 -2 -11v-9q0 -27 25 -27l-8 -41q-12 0 -25 4q-33 12 -33 57v7.5t3 20.5t9.5 46t18.5 86q-43 -53 -96.5 -97t-111.5 -77t-119 -50 t-118 -17q-90 0 -161.5 37.5t-120.5 100t-75 144.5t-26 170zM104 436q0 -84 25 -159.5t71 -132t110.5 -90.5t144.5 -34q59 0 131.5 27t140.5 71t120 103.5t71 124.5l81 383q-8 63 -39.5 119.5t-80 98.5t-106.5 66.5t-120 24.5q-113 0 -213 -54t-175 -140t-118 -193.5 t-43 -214.5zM1112 0l8 41l977 981h-758l9 41h809l-9 -41l-974 -981h759l-10 -41h-811zM1638 1470l37 25l140 -129l192 129l27 -25l-213 -151h-33z" />
<glyph unicode="&#x1c7;" horiz-adv-x="2068" d="M68 0l309 1454h41l-301 -1413h866l-8 -41h-907zM1065 68l29 32q94 -82 260 -82q123 0 207 48.5t140 137.5t95 218t74 293l158 737h40l-157 -737q-35 -166 -77 -302.5t-104.5 -232.5t-154.5 -149.5t-229 -53.5q-174 0 -281 91z" />
<glyph unicode="&#x1c8;" horiz-adv-x="1519" d="M68 0l309 1454h41l-301 -1413h866l-8 -41h-907zM709 -279l36 25q29 -33 69 -43t81 -10q39 0 83 18.5t82 49t66.5 73.5t38.5 92l242 1137h41l-242 -1137q-12 -59 -47 -109t-80 -87t-95 -57.5t-95 -20.5q-57 0 -104.5 14.5t-75.5 54.5zM1466 1337l33 158h41l-33 -158h-41z " />
<glyph unicode="&#x1c9;" horiz-adv-x="847" d="M37 -279l37 25q29 -33 68.5 -43t80.5 -10q39 0 83 18.5t82 49t66.5 73.5t39.5 92l241 1137h41l-241 -1137q-12 -59 -47 -109t-80.5 -87t-95.5 -57.5t-95 -20.5q-57 0 -104 14.5t-76 54.5zM74 115v20t4 23l284 1337h41l-284 -1337q-2 -10 -3 -17.5t-1 -15.5q0 -96 106 -96 q23 0 53.5 5t57.5 13l6 -33q-29 -10 -70.5 -17t-70.5 -7q-57 0 -90 33.5t-33 91.5zM795 1337l32 158h41l-32 -158h-41z" />
<glyph unicode="&#x1ca;" horiz-adv-x="2459" d="M68 0l309 1454h31l757 -1395l295 1393h41l-309 -1452h-45l-746 1374l-292 -1374h-41zM1456 68l29 32q94 -82 260 -82q123 0 207 48.5t140 137.5t95 218t74 293l158 737h41l-158 -737q-35 -166 -77 -302.5t-104.5 -232.5t-154.5 -149.5t-229 -53.5q-174 0 -281 91z" />
<glyph unicode="&#x1cb;" horiz-adv-x="1910" d="M68 0l309 1454h31l757 -1395l295 1393h41l-309 -1452h-45l-746 1374l-292 -1374h-41zM1100 -279l37 25q29 -33 68.5 -43t80.5 -10q39 0 83 18.5t82 49t66.5 73.5t38.5 92l242 1137h41l-242 -1137q-12 -59 -46.5 -109t-80 -87t-95.5 -57.5t-95 -20.5q-57 0 -104.5 14.5 t-75.5 54.5zM1858 1337l32 158h41l-33 -158h-40z" />
<glyph unicode="&#x1cc;" horiz-adv-x="1495" d="M35 0l225 1063h41l-57 -275q45 63 104.5 118t126 92.5t137 59t138.5 21.5q115 0 170 -62.5t55 -195.5q0 -49 -7 -106.5t-22 -122.5l-125 -592h-41l125 592q27 125 27 219q0 117 -46 172t-145 55q-72 0 -148.5 -27.5t-147 -76.5t-130 -116.5t-96.5 -145.5l-143 -672h-41z M684 -279l37 25q29 -33 68.5 -43t80.5 -10q39 0 83 18.5t82 49t66.5 73.5t39.5 92l241 1137h41l-241 -1137q-12 -59 -47 -109t-80 -87t-95.5 -57.5t-95.5 -20.5q-57 0 -104 14.5t-76 54.5zM1442 1337l33 158h41l-33 -158h-41z" />
<glyph unicode="&#x1ea;" horiz-adv-x="1486" d="M106 588q0 168 70 325.5t184.5 280.5t261 196.5t302.5 73.5q121 0 215 -51t158.5 -135t97 -192.5t32.5 -223.5q0 -164 -66.5 -317.5t-176 -274t-251.5 -196.5t-294 -82q-59 -37 -98 -66.5t-61.5 -54.5t-32 -47.5t-9.5 -46.5q0 -59 70 -76l-33 -35q-39 10 -58.5 38 t-19.5 63q0 55 39 105t142 120q-115 6 -202 57t-147.5 133t-91.5 187.5t-31 218.5zM147 594q0 -113 32 -215.5t93.5 -179t149.5 -122.5t199 -46q154 0 293 73.5t243.5 192.5t166.5 266.5t62 294.5q0 113 -32.5 215.5t-94 180t-148.5 123.5t-196 46q-154 0 -293 -73.5 t-244.5 -192.5t-168 -266.5t-62.5 -296.5z" />
<glyph unicode="&#x1eb;" horiz-adv-x="1148" d="M61 424q0 129 53.5 248t140.5 210t196.5 144t222.5 53q84 0 153.5 -34.5t118.5 -96t77 -143.5t28 -174q0 -121 -48.5 -233.5t-127 -202t-181 -146.5t-209.5 -67q-59 -37 -99 -67t-62.5 -54.5t-31.5 -47t-9 -46.5q0 -59 69 -76l-33 -35q-39 10 -58 37.5t-19 62.5 q0 53 38.5 103.5t139.5 120.5q-82 4 -147.5 40.5t-112.5 96t-73 138.5t-26 169zM102 428q0 -84 25 -158.5t71 -130t108 -87.5t140 -32q102 0 204 50.5t181.5 133.5t129 192.5t49.5 228.5q0 86 -26 160.5t-71 131t-108.5 89t-138.5 32.5q-102 0 -203 -50t-180.5 -135 t-130 -195.5t-50.5 -229.5z" />
<glyph unicode="&#x1f1;" horiz-adv-x="2578" d="M68 0l309 1454h444q133 0 230.5 -43t161 -117.5t94 -175t30.5 -217.5q0 -195 -61.5 -359.5t-172 -284.5t-262 -188.5t-329.5 -68.5h-444zM117 41h403q182 0 326.5 69.5t244 187.5t152.5 271.5t53 321.5q0 115 -30.5 211t-91 164.5t-151.5 107.5t-210 39h-403zM1294 0 l9 41l1343 1372h-1042l10 41h1093l-10 -41l-1343 -1372h1044l-8 -41h-1096z" />
<glyph unicode="&#x1f2;" horiz-adv-x="2336" d="M68 0l309 1454h444q133 0 230.5 -43t161 -117.5t94 -175t30.5 -217.5q0 -195 -61.5 -359.5t-172 -284.5t-262 -188.5t-329.5 -68.5h-444zM117 41h403q182 0 326.5 69.5t244 187.5t152.5 271.5t53 321.5q0 115 -30.5 211t-91 164.5t-151.5 107.5t-210 39h-403zM1327 0 l8 41l977 981h-758l9 41h809l-9 -41l-974 -981h759l-10 -41h-811z" />
<glyph unicode="&#x1f3;" horiz-adv-x="2121" d="M63 432q0 123 49.5 238.5t132.5 207t191.5 146.5t225.5 55q70 0 127 -21.5t101 -57t76.5 -84t51.5 -101.5l143 680h43l-301 -1407q-2 -6 -2 -11v-9q0 -27 25 -27l-8 -41q-12 0 -25 4q-33 12 -33 57v7.5t3 20.5t9.5 46t18.5 86q-43 -53 -96.5 -97t-111.5 -77t-119 -50 t-118 -17q-90 0 -161.5 37.5t-120.5 100t-75 144.5t-26 170zM104 436q0 -84 25 -159.5t71 -132t110.5 -90.5t144.5 -34q59 0 131.5 27t140.5 71t120 103.5t71 124.5l81 383q-8 63 -39.5 119.5t-80 98.5t-106.5 66.5t-120 24.5q-113 0 -213 -54t-175 -140t-118 -193.5 t-43 -214.5zM1112 0l8 41l977 981h-758l9 41h809l-9 -41l-974 -981h759l-10 -41h-811z" />
<glyph unicode="&#x1f4;" horiz-adv-x="1409" d="M106 598q0 158 67 313.5t177.5 278.5t256 198.5t302.5 75.5q106 0 185.5 -23.5t133.5 -65.5t88 -100t52 -128l-41 -12q-47 154 -156.5 221t-271.5 67q-156 0 -293 -74.5t-238.5 -193.5t-161 -265.5t-59.5 -289.5q0 -115 34 -218t96.5 -181t151.5 -124t198 -46 q135 0 271 65.5t284 208.5l73 346h-323l8 41h365l-148 -692h-41l53 248q-270 -258 -551 -258q-123 0 -218 52t-160.5 137t-99.5 194.5t-34 224.5zM909 1731l156 149h68l-197 -174z" />
<glyph unicode="&#x1f5;" horiz-adv-x="1179" d="M-45 -203l41 13q18 -59 52 -102.5t80 -71t102.5 -40t117.5 -12.5q82 0 161 23.5t143.5 71t111.5 116t67 160.5l58 266q-43 -53 -96.5 -97t-111.5 -77t-119.5 -50t-119.5 -17q-90 0 -160.5 37.5t-119.5 100t-75 144.5t-26 170q0 119 49.5 234.5t131.5 208t190.5 148.5 t226.5 56q68 0 123.5 -20.5t98.5 -56t76.5 -84t58.5 -103.5l53 248h39l-236 -1108q-23 -104 -76 -182t-125.5 -129.5t-158.5 -76t-172 -24.5q-90 0 -155.5 18.5t-110.5 52.5t-74 80t-45 103zM102 436q0 -84 25 -159.5t71 -132t110.5 -90.5t144.5 -34q72 0 146.5 30t139 77 t112.5 104.5t64 114.5l82 383q-10 68 -40.5 124t-76.5 97t-105.5 64.5t-123.5 23.5q-117 0 -217 -56t-174 -144t-116 -194.5t-42 -207.5zM627 1346l155 149h68l-197 -174z" />
<glyph unicode="&#x1fa;" horiz-adv-x="1327" d="M-80 0l893 1425q-57 21 -57 91q0 29 11 54t30.5 43.5t45 30t52.5 11.5q41 0 64.5 -26.5t23.5 -67.5q0 -49 -31.5 -87t-77.5 -49l285 -1425h-45l-104 520h-719l-326 -520h-45zM315 561h686l-163 834zM788 1522q0 -29 17.5 -48.5t46.5 -19.5q33 0 66.5 28.5t33.5 71.5 q0 31 -18 49.5t-47 18.5q-37 0 -68 -27.5t-31 -72.5zM936 1731l156 149h67l-196 -174z" />
<glyph unicode="&#x1fb;" horiz-adv-x="1187" d="M63 430q0 123 49.5 239.5t132.5 208t190.5 146.5t221.5 55q72 0 130.5 -21.5t102.5 -57t76.5 -84t51.5 -101.5l53 248h43l-209 -973q-4 -12 -4 -24q0 -25 25 -25l-8 -41q-12 0 -19 2q-39 12 -39 57q0 4 1 10.5t4 21.5t9.5 46t16.5 84q-43 -53 -96.5 -97t-111.5 -77 t-120 -50t-121 -17q-88 0 -158.5 37.5t-119.5 100t-75 144.5t-26 168zM104 430q0 -82 26 -155.5t72 -130t108 -90.5t136 -34q66 0 141 27t142.5 72t118.5 103.5t70 123.5l81 383q-8 61 -37.5 116.5t-76.5 98.5t-109.5 68.5t-134.5 25.5q-106 0 -203.5 -54t-171 -142 t-118 -196.5t-44.5 -215.5zM635 1356q0 29 11 54.5t30.5 44t45.5 29.5t52 11q41 0 64.5 -26.5t23.5 -67.5q0 -29 -11 -54.5t-30.5 -44t-45 -29.5t-52.5 -11q-41 0 -64.5 26.5t-23.5 67.5zM668 1362q0 -29 17 -48.5t46 -19.5q33 0 66.5 29t33.5 72q0 31 -18 49t-47 18 q-37 0 -67.5 -27.5t-30.5 -72.5zM709 1622l155 150h68l-197 -175z" />
<glyph unicode="&#x1fc;" horiz-adv-x="1886" d="M-172 0l1219 1454h901l-11 -41h-847l-138 -649h744l-10 -41h-744l-143 -682h864l-8 -41h-907l110 520h-545l-434 -520h-51zM346 561h522l174 828zM1063 1731l156 149h67l-196 -174z" />
<glyph unicode="&#x1fd;" horiz-adv-x="1810" d="M4 246q0 82 38 148.5t104.5 113.5t156.5 73.5t193 26.5q70 0 140.5 -11t129.5 -30q14 53 36.5 104.5t51.5 98.5q0 123 -67.5 195.5t-188.5 72.5q-80 0 -171 -33.5t-189 -97.5l-17 33q115 72 207 105.5t178 33.5q119 0 198 -64.5t89 -189.5q88 115 209 184.5t250 69.5 q84 0 155.5 -30.5t123.5 -85t82 -129t30 -162.5q0 -35 -5 -83t-22 -81h-921q-6 -47 -7 -86q0 -86 25 -160t71 -128t110.5 -84t144.5 -30q57 0 116.5 16.5t113.5 46.5t100.5 71t76.5 90l37 -11q-33 -55 -83 -101t-111.5 -80t-128 -53t-132.5 -19q-127 0 -218 67.5t-134 179.5 q-45 -68 -107.5 -114.5t-131 -76.5t-136 -43t-118.5 -13q-70 0 -122 21.5t-87 58t-52.5 85t-17.5 101.5zM45 254q0 -45 14.5 -87t45 -75t77.5 -52.5t113 -19.5q63 0 137 19.5t140.5 54.5t117.5 82t70 105q-16 61 -17 127q0 55 13 116q-61 23 -130 33t-134 10 q-98 0 -180.5 -22.5t-141.5 -63.5t-92 -98t-33 -129zM803 549h880q14 55 15 117q0 72 -21.5 139t-65.5 119.5t-110.5 83t-154.5 30.5q-90 0 -176.5 -36.5t-158 -102t-127 -156t-81.5 -194.5zM936 1346l156 149h67l-196 -174z" />
<glyph unicode="&#x1fe;" horiz-adv-x="1486" d="M106 588q0 168 70 325.5t184.5 280.5t261 196.5t302.5 73.5q98 0 179 -34.5t142 -94.5l96 119h52l-121 -147q76 -86 115.5 -202t39.5 -243q0 -166 -69.5 -323.5t-184 -279.5t-261 -195.5t-302.5 -73.5q-98 0 -179 32.5t-142 90.5l-92 -113h-52l117 141q-78 86 -117 202 t-39 245zM147 594q0 -123 36 -231.5t108 -186.5l926 1124q-59 57 -134 90t-168 33q-154 0 -293 -73.5t-244.5 -192.5t-168 -266t-62.5 -297zM317 147q59 -55 135.5 -85.5t168.5 -30.5q154 0 293 73.5t243.5 192.5t166.5 266.5t62 294.5q0 121 -36.5 228.5t-106.5 185.5z M903 1731l156 149h67l-196 -174z" />
<glyph unicode="&#x1ff;" horiz-adv-x="1148" d="M61 424q0 129 53.5 248t140.5 210t196.5 144t222.5 53q66 0 123 -22.5t104 -63.5l55 70h52l-78 -98q57 -61 89 -147.5t32 -186.5q0 -127 -53.5 -245t-139.5 -208t-195.5 -144t-222.5 -54q-68 0 -125 21.5t-104 59.5l-49 -61h-49l69 90q-57 61 -89 147.5t-32 186.5z M102 428q0 -92 28 -170t81 -135l661 835q-86 80 -206 80q-102 0 -204 -50t-181.5 -135t-129 -195.5t-49.5 -229.5zM238 96q43 -35 95 -55.5t113 -20.5q102 0 204 50.5t181.5 133.5t129 192.5t49.5 228.5q0 92 -29 169.5t-80 135.5zM692 1346l156 149h67l-196 -174z" />
<glyph unicode="&#x200;" horiz-adv-x="1325" d="M-80 0l911 1454h37l291 -1454h-45l-104 520h-719l-326 -520h-45zM315 561h686l-163 834zM713 1880h67l92 -149l-36 -25zM909 1880h66l94 -149l-39 -25z" />
<glyph unicode="&#x201;" horiz-adv-x="1187" d="M63 430q0 123 49.5 239.5t132.5 208t190.5 146.5t221.5 55q72 0 130.5 -21.5t102.5 -57t76.5 -84t51.5 -101.5l53 248h43l-209 -973q-4 -12 -4 -24q0 -25 25 -25l-8 -41q-12 0 -19 2q-39 12 -39 57q0 4 1 10.5t4 21.5t9.5 46t16.5 84q-43 -53 -96.5 -97t-111.5 -77 t-120 -50t-121 -17q-88 0 -158.5 37.5t-119.5 100t-75 144.5t-26 168zM104 430q0 -82 26 -155.5t72 -130t108 -90.5t136 -34q66 0 141 27t142.5 72t118.5 103.5t70 123.5l81 383q-8 61 -37.5 116.5t-76.5 98.5t-109.5 68.5t-134.5 25.5q-106 0 -203.5 -54t-171 -142 t-118 -196.5t-44.5 -215.5zM543 1495h67l92 -149l-36 -25zM739 1495h66l94 -149l-39 -25z" />
<glyph unicode="&#x202;" horiz-adv-x="1325" d="M-80 0l911 1454h37l291 -1454h-45l-104 520h-719l-326 -520h-45zM315 561h686l-163 834zM774 1722q6 31 22.5 58.5t39 50t52.5 36t62 13.5q59 0 88 -39t29 -88q0 -20 -2 -31h-37q0 6 1 12.5t1 12.5q0 98 -82 98q-53 0 -89 -38t-46 -85h-39z" />
<glyph unicode="&#x203;" horiz-adv-x="1187" d="M63 430q0 123 49.5 239.5t132.5 208t190.5 146.5t221.5 55q72 0 130.5 -21.5t102.5 -57t76.5 -84t51.5 -101.5l53 248h43l-209 -973q-4 -12 -4 -24q0 -25 25 -25l-8 -41q-12 0 -19 2q-39 12 -39 57q0 4 1 10.5t4 21.5t9.5 46t16.5 84q-43 -53 -96.5 -97t-111.5 -77 t-120 -50t-121 -17q-88 0 -158.5 37.5t-119.5 100t-75 144.5t-26 168zM104 430q0 -82 26 -155.5t72 -130t108 -90.5t136 -34q66 0 141 27t142.5 72t118.5 103.5t70 123.5l81 383q-8 61 -37.5 116.5t-76.5 98.5t-109.5 68.5t-134.5 25.5q-106 0 -203.5 -54t-171 -142 t-118 -196.5t-44.5 -215.5zM596 1337q6 31 22.5 58.5t39 50t52 36t62.5 13.5q59 0 88 -39t29 -88q0 -20 -2 -31h-37q0 6 1 12.5t1 12.5q0 98 -82 98q-53 0 -89 -38t-46 -85h-39z" />
<glyph unicode="&#x204;" d="M68 0l309 1454h889l-9 -41h-847l-140 -649h744l-8 -41h-744l-145 -682h866l-8 -41h-907zM647 1880h68l92 -149l-37 -25zM844 1880h65l95 -149l-39 -25z" />
<glyph unicode="&#x205;" horiz-adv-x="1067" d="M63 430q0 121 47.5 237.5t130.5 208t195.5 147.5t245.5 56q51 0 107.5 -18.5t101.5 -53t74.5 -87t29.5 -121.5q0 -291 -536 -291q-78 0 -160 2t-186 8q-6 -43 -7 -86q0 -84 23 -158.5t68 -131t112.5 -89.5t155.5 -33q55 0 114.5 17.5t115 48.5t101.5 76t76 100l39 -12 q-35 -61 -85 -111.5t-110.5 -85.5t-127.5 -54t-137 -19q-92 0 -164 35.5t-121 97t-76 143.5t-27 174zM121 559q104 -6 185 -8t159 -2q135 0 228 18.5t150.5 52t83 79.5t25.5 102q0 61 -26.5 106t-67.5 75t-90 43t-94 13q-100 0 -190.5 -40t-163 -106.5t-125 -153.5 t-74.5 -179zM504 1495h67l93 -149l-37 -25zM700 1495h66l94 -149l-39 -25z" />
<glyph unicode="&#x206;" d="M68 0l309 1454h889l-9 -41h-847l-140 -649h744l-8 -41h-744l-145 -682h866l-8 -41h-907zM739 1722q6 31 22.5 58.5t39 50t52.5 36t62 13.5q59 0 88 -39t29 -88q0 -20 -2 -31h-37q0 6 1 12.5t1 12.5q0 98 -82 98q-53 0 -89 -38t-46 -85h-39z" />
<glyph unicode="&#x207;" horiz-adv-x="1067" d="M63 430q0 121 47.5 237.5t130.5 208t195.5 147.5t245.5 56q51 0 107.5 -18.5t101.5 -53t74.5 -87t29.5 -121.5q0 -291 -536 -291q-78 0 -160 2t-186 8q-6 -43 -7 -86q0 -84 23 -158.5t68 -131t112.5 -89.5t155.5 -33q55 0 114.5 17.5t115 48.5t101.5 76t76 100l39 -12 q-35 -61 -85 -111.5t-110.5 -85.5t-127.5 -54t-137 -19q-92 0 -164 35.5t-121 97t-76 143.5t-27 174zM121 559q104 -6 185 -8t159 -2q135 0 228 18.5t150.5 52t83 79.5t25.5 102q0 61 -26.5 106t-67.5 75t-90 43t-94 13q-100 0 -190.5 -40t-163 -106.5t-125 -153.5 t-74.5 -179zM596 1337q6 31 22.5 58.5t39 50t52 36t62.5 13.5q59 0 88 -39t29 -88q0 -20 -2 -31h-37q0 6 1 12.5t1 12.5q0 98 -82 98q-53 0 -89 -38t-46 -85h-39z" />
<glyph unicode="&#x208;" horiz-adv-x="438" d="M68 0l309 1452h41l-309 -1452h-41zM258 1880h68l92 -149l-37 -25zM455 1880h65l94 -149l-39 -25z" />
<glyph unicode="&#x209;" horiz-adv-x="372" d="M35 0l225 1063h41l-225 -1063h-41zM115 1495h67l92 -149l-36 -25zM311 1495h66l94 -149l-39 -25z" />
<glyph unicode="&#x20a;" horiz-adv-x="438" d="M68 0l309 1452h41l-309 -1452h-41zM319 1722q6 31 22.5 58.5t39 50t52.5 36t63 13.5q59 0 87.5 -39t28.5 -88q0 -20 -2 -31h-37q0 6 1 12.5t1 12.5q0 98 -81 98q-53 0 -89 -38t-47 -85h-39z" />
<glyph unicode="&#x20b;" horiz-adv-x="372" d="M35 0l225 1063h41l-225 -1063h-41zM201 1337q6 31 22.5 58.5t39 50t52 36t62.5 13.5q59 0 88 -39t29 -88q0 -20 -2 -31h-37q0 6 1 12.5t1 12.5q0 98 -82 98q-53 0 -89 -38t-46 -85h-39z" />
<glyph unicode="&#x20c;" horiz-adv-x="1486" d="M106 588q0 168 70 325.5t184.5 280.5t261 196.5t302.5 73.5q121 0 215 -51t158.5 -135t97 -192.5t32.5 -223.5q0 -166 -69.5 -323.5t-184 -279.5t-261 -195.5t-302.5 -73.5q-121 0 -215 49t-158.5 132t-97.5 191.5t-33 225.5zM147 594q0 -113 32 -215.5t93.5 -179 t149.5 -122.5t199 -46q154 0 293 73.5t243.5 192.5t166.5 266.5t62 294.5q0 113 -32.5 215.5t-94 180t-148.5 123.5t-196 46q-154 0 -293 -73.5t-244.5 -192.5t-168 -266.5t-62.5 -296.5zM795 1880h67l92 -149l-36 -25zM991 1880h66l94 -149l-39 -25z" />
<glyph unicode="&#x20d;" horiz-adv-x="1148" d="M61 424q0 129 53.5 248t140.5 210t196.5 144t222.5 53q84 0 153.5 -34.5t118.5 -96t77 -143.5t28 -174q0 -127 -53.5 -245t-139.5 -208t-195.5 -144t-222.5 -54q-86 0 -155.5 34.5t-119.5 95t-77 141.5t-27 173zM102 428q0 -84 25 -158.5t71 -130t108 -87.5t140 -32 q102 0 204 50.5t181.5 133.5t129 192.5t49.5 228.5q0 86 -26 160.5t-71 131t-108.5 89t-138.5 32.5q-102 0 -203 -50t-180.5 -135t-130 -195.5t-50.5 -229.5zM563 1495h68l92 -149l-37 -25zM760 1495h65l95 -149l-39 -25z" />
<glyph unicode="&#x20e;" horiz-adv-x="1486" d="M106 588q0 168 70 325.5t184.5 280.5t261 196.5t302.5 73.5q121 0 215 -51t158.5 -135t97 -192.5t32.5 -223.5q0 -166 -69.5 -323.5t-184 -279.5t-261 -195.5t-302.5 -73.5q-121 0 -215 49t-158.5 132t-97.5 191.5t-33 225.5zM147 594q0 -113 32 -215.5t93.5 -179 t149.5 -122.5t199 -46q154 0 293 73.5t243.5 192.5t166.5 266.5t62 294.5q0 113 -32.5 215.5t-94 180t-148.5 123.5t-196 46q-154 0 -293 -73.5t-244.5 -192.5t-168 -266.5t-62.5 -296.5zM842 1722q6 31 22.5 58.5t39 50t52 36t62.5 13.5q59 0 88 -39t29 -88q0 -20 -2 -31 h-37q0 6 1 12.5t1 12.5q0 98 -82 98q-53 0 -89 -38t-46 -85h-39z" />
<glyph unicode="&#x20f;" horiz-adv-x="1148" d="M61 424q0 129 53.5 248t140.5 210t196.5 144t222.5 53q84 0 153.5 -34.5t118.5 -96t77 -143.5t28 -174q0 -127 -53.5 -245t-139.5 -208t-195.5 -144t-222.5 -54q-86 0 -155.5 34.5t-119.5 95t-77 141.5t-27 173zM102 428q0 -84 25 -158.5t71 -130t108 -87.5t140 -32 q102 0 204 50.5t181.5 133.5t129 192.5t49.5 228.5q0 86 -26 160.5t-71 131t-108.5 89t-138.5 32.5q-102 0 -203 -50t-180.5 -135t-130 -195.5t-50.5 -229.5zM590 1337q6 31 22.5 58.5t39 50t52 36t62.5 13.5q59 0 88 -39t29 -88q0 -20 -2 -31h-37q0 6 1 12.5t1 12.5 q0 98 -82 98q-53 0 -89 -38t-46 -85h-39z" />
<glyph unicode="&#x210;" horiz-adv-x="1261" d="M68 0l309 1454h563q72 0 129 -30.5t96 -82t59.5 -116t20.5 -133.5q0 -94 -37 -184.5t-98 -163t-144 -119.5t-175 -54l227 -571h-49l-228 571h-512l-120 -571h-41zM240 612h534q90 0 168 43t136.5 111t92 151.5t33.5 167.5q0 66 -19.5 125.5t-55 104.5t-87 71.5 t-112.5 26.5h-520zM672 1880h67l92 -149l-36 -25zM868 1880h66l94 -149l-39 -25z" />
<glyph unicode="&#x211;" horiz-adv-x="649" d="M35 0l225 1063h41l-57 -275q84 125 192.5 194t218.5 79q10 2 19.5 2h19.5l-8 -41q-145 -6 -269 -98.5t-198 -251.5l-143 -672h-41zM303 1495h68l92 -149l-37 -25zM500 1495h65l94 -149l-38 -25z" />
<glyph unicode="&#x212;" horiz-adv-x="1261" d="M68 0l309 1454h563q72 0 129 -30.5t96 -82t59.5 -116t20.5 -133.5q0 -94 -37 -184.5t-98 -163t-144 -119.5t-175 -54l227 -571h-49l-228 571h-512l-120 -571h-41zM240 612h534q90 0 168 43t136.5 111t92 151.5t33.5 167.5q0 66 -19.5 125.5t-55 104.5t-87 71.5 t-112.5 26.5h-520zM737 1722q6 31 22.5 58.5t39 50t52.5 36t62 13.5q59 0 88 -39t29 -88q0 -20 -2 -31h-37q0 6 1 12.5t1 12.5q0 98 -82 98q-53 0 -89 -38t-46 -85h-39z" />
<glyph unicode="&#x213;" horiz-adv-x="649" d="M35 0l225 1063h41l-57 -275q84 125 192.5 194t218.5 79q10 2 19.5 2h19.5l-8 -41q-145 -6 -269 -98.5t-198 -251.5l-143 -672h-41zM362 1346q6 31 22.5 58.5t39 50t52.5 35.5t63 13q59 0 87.5 -39t28.5 -88q0 -20 -2 -30h-37q0 6 1 12t1 12q0 98 -81 98q-53 0 -89 -37.5 t-47 -84.5h-39z" />
<glyph unicode="&#x214;" horiz-adv-x="1482" d="M170 463q0 63 8 129.5t23 134.5l153 727h41l-153 -727q-14 -66 -22.5 -131.5t-8.5 -126.5q0 -92 20.5 -172t67.5 -139.5t125 -93t192 -33.5q156 0 270.5 61.5t195.5 159.5t131.5 223t76.5 252l154 727h41l-154 -727q-31 -145 -88 -278.5t-144 -234.5t-208 -162.5 t-281 -61.5q-125 0 -209 36.5t-135 101.5t-73.5 151t-22.5 184zM784 1880h68l92 -149l-37 -25zM981 1880h66l94 -149l-39 -25z" />
<glyph unicode="&#x215;" horiz-adv-x="1128" d="M96 264q0 88 25 203l127 596h41l-127 -596q-25 -115 -25 -199q0 -248 215 -248q74 0 148.5 28t143.5 76t127 115.5t97 147.5l144 676h41l-197 -926q-4 -23 -9 -43t-5 -24q0 -29 26 -29l-10 -41q-12 0 -24 4q-31 12 -31 55q0 2 1 8.5t4 27t11 61.5t25 114 q-47 -68 -105.5 -121t-124 -91t-135 -58t-137.5 -20q-246 0 -246 284zM520 1495h68l92 -149l-37 -25zM717 1495h65l95 -149l-39 -25z" />
<glyph unicode="&#x216;" horiz-adv-x="1482" d="M170 463q0 63 8 129.5t23 134.5l153 727h41l-153 -727q-14 -66 -22.5 -131.5t-8.5 -126.5q0 -92 20.5 -172t67.5 -139.5t125 -93t192 -33.5q156 0 270.5 61.5t195.5 159.5t131.5 223t76.5 252l154 727h41l-154 -727q-31 -145 -88 -278.5t-144 -234.5t-208 -162.5 t-281 -61.5q-125 0 -209 36.5t-135 101.5t-73.5 151t-22.5 184zM836 1722q6 31 22 58.5t39 50t52.5 36t62.5 13.5q59 0 87.5 -39t28.5 -88q0 -20 -2 -31h-36q0 6 1 12.5t1 12.5q0 98 -82 98q-53 0 -89 -38t-47 -85h-38z" />
<glyph unicode="&#x217;" horiz-adv-x="1128" d="M96 264q0 88 25 203l127 596h41l-127 -596q-25 -115 -25 -199q0 -248 215 -248q74 0 148.5 28t143.5 76t127 115.5t97 147.5l144 676h41l-197 -926q-4 -23 -9 -43t-5 -24q0 -29 26 -29l-10 -41q-12 0 -24 4q-31 12 -31 55q0 2 1 8.5t4 27t11 61.5t25 114 q-47 -68 -105.5 -121t-124 -91t-135 -58t-137.5 -20q-246 0 -246 284zM563 1337q6 31 22.5 58.5t39 50t52.5 36t62 13.5q59 0 88 -39t29 -88q0 -20 -2 -31h-37q0 6 1 12.5t1 12.5q0 98 -82 98q-53 0 -89 -38t-46 -85h-39z" />
<glyph unicode="&#x218;" horiz-adv-x="1185" d="M-2 215l35 27q82 -115 193.5 -166t271.5 -51q119 0 215 25.5t163.5 74.5t104.5 121.5t37 169.5q0 61 -24.5 107t-74 80t-123 58.5t-171.5 47.5q-96 20 -172 42.5t-128.5 55.5t-80 81t-27.5 118q0 106 42 191t119 144.5t182.5 91t232.5 31.5q133 0 223 -40t151 -134 l-32 -28q-61 96 -142.5 129.5t-204.5 33.5q-141 0 -241.5 -31.5t-164 -88t-93 -131t-29.5 -160.5q0 -59 22.5 -100.5t68.5 -71t117 -52t165 -42.5q96 -23 175 -47.5t135 -60.5t87 -88t31 -126q0 -102 -41 -183t-116 -137.5t-181.5 -86t-235.5 -29.5q-166 0 -284.5 54 t-204.5 171zM387 -342l45 119h-18l26 121h52l-25 -121l-51 -119h-29z" />
<glyph unicode="&#x219;" horiz-adv-x="921" d="M-25 152l35 26q61 -80 138 -119t186 -39q84 0 155.5 21.5t125 59.5t84 93.5t30.5 122.5q0 45 -20.5 77t-59.5 54.5t-95 41t-128 36.5q-68 16 -119 32.5t-87 38t-54.5 53.5t-18.5 79q0 88 36 154.5t96.5 109.5t137.5 64.5t158 21.5q123 0 200 -44t97 -109l-38 -17 q-23 63 -101 96t-174 33q-72 0 -138.5 -17t-117.5 -54t-82 -93.5t-31 -132.5q0 -39 15.5 -65.5t46.5 -45t77 -32.5t107 -31q76 -20 138.5 -38.5t106.5 -45t67.5 -62.5t23.5 -89q0 -78 -33.5 -142.5t-93 -111.5t-141.5 -72.5t-178 -25.5q-117 0 -205 41.5t-146 130.5z M244 -342l45 119h-19l27 121h51l-24 -121l-52 -119h-28z" />
<glyph unicode="&#x21a;" horiz-adv-x="1175" d="M201 1413l8 41h1098l-9 -41h-528l-301 -1413h-41l301 1413h-528zM344 -342l45 119h-18l26 121h52l-25 -121l-51 -119h-29z" />
<glyph unicode="&#x21b;" horiz-adv-x="575" d="M98 119q0 8 1 16t3 19l185 868h-146l9 41h147l78 371h41l-78 -371h242l-9 -41h-243l-164 -764q-12 -57 -17.5 -82.5t-5.5 -40.5q0 -51 33 -77.5t80 -26.5q33 0 63.5 7t54 16t39 17.5t17.5 10.5l14 -33l-16 -10t-44 -20.5t-63.5 -19.5t-74.5 -9q-63 0 -104.5 34.5 t-41.5 94.5zM141 -342l45 119h-18l27 121h51l-25 -121l-51 -119h-29z" />
<glyph unicode="&#x2c6;" horiz-adv-x="589" d="M98 1343l213 152h33l150 -152l-37 -24l-140 129l-192 -129z" />
<glyph unicode="&#x2c7;" horiz-adv-x="589" d="M98 1470l37 25l139 -129l193 129l27 -25l-213 -151h-33z" />
<glyph unicode="&#x2d8;" horiz-adv-x="483" d="M94 1464q0 10 4 31h39q-2 -8 -2 -22q0 -41 23.5 -71t58.5 -30q41 0 80 36t55 87h37q-6 -31 -24.5 -59.5t-43 -50t-53 -35t-57.5 -13.5q-51 0 -84 37t-33 90z" />
<glyph unicode="&#x2d9;" horiz-adv-x="233" d="M80 1337l33 158h41l-33 -158h-41z" />
<glyph unicode="&#x2da;" horiz-adv-x="462" d="M119 1356q0 29 11 54.5t30.5 44t45 29.5t52.5 11q41 0 64.5 -26.5t23.5 -67.5q0 -29 -11 -54.5t-30.5 -44t-45.5 -29.5t-52 -11q-41 0 -64.5 26.5t-23.5 67.5zM152 1362q0 -29 17 -48.5t46 -19.5q33 0 66.5 29t33.5 72q0 31 -18 49t-47 18q-37 0 -67.5 -27.5t-30.5 -72.5 z" />
<glyph unicode="&#x2db;" horiz-adv-x="395" d="M47 -225q0 59 49 115.5t176 138.5l19 -29q-59 -37 -99 -66.5t-63 -54t-32 -47t-9 -47.5q0 -61 70 -76l-33 -35q-39 10 -58.5 38t-19.5 63z" />
<glyph unicode="&#x2dc;" horiz-adv-x="745" d="M86 1337q0 4 9 26.5t28.5 47.5t52.5 44.5t82 19.5q37 0 63.5 -12.5t50 -27t50.5 -26.5t63 -12q39 0 66 14t42 31.5t21.5 33t6.5 19.5h38q-2 -6 -11 -28.5t-30.5 -47t-56.5 -43t-88 -18.5q-43 0 -72.5 12t-54 26.5t-47.5 27t-53 12.5q-31 0 -53.5 -13.5t-37 -31t-21.5 -34 t-9 -20.5h-39z" />
<glyph unicode="&#x2dd;" horiz-adv-x="581" d="M82 1346l156 149h67l-196 -174zM279 1346l155 149h68l-197 -174z" />
<glyph unicode="&#x394;" horiz-adv-x="1261" d="M-49 0v41l596 1413h37l594 -1413v-41h-1227zM-4 41h1137l-568 1354z" />
<glyph unicode="&#x3a9;" horiz-adv-x="1677" d="M129 0v43h449q-102 45 -184.5 119t-138.5 166t-86 199.5t-30 220.5q0 141 51.5 271t141.5 228.5t214 157.5t271 59t271 -59t214.5 -157.5t141.5 -228.5t51 -271q0 -113 -29.5 -220.5t-86 -199.5t-138.5 -166t-184 -119h448v-43h-592v43q131 27 232.5 98.5t169 170 t102.5 212t35 224.5q0 125 -44 245.5t-126 215t-199.5 152.5t-265.5 58q-147 0 -265 -58t-200 -152.5t-126 -215.5t-44 -245q0 -111 35 -224.5t102.5 -212t168 -170t233.5 -98.5v-43h-592z" />
<glyph unicode="&#x3bc;" horiz-adv-x="1140" d="M-57 -434l317 1497h43l-127 -596q-25 -115 -24 -199q0 -248 213 -248q74 0 148.5 28t143 76t127 115.5t97.5 147.5l143 676h43l-209 -981q-2 -2 -2 -14q0 -27 25 -27l-11 -41q-55 0 -55 61q0 16 2 21l41 188q-47 -68 -106.5 -121t-125 -91t-134 -58t-136.5 -20 q-211 0 -239 213l-133 -627h-41z" />
<glyph unicode="&#x3c0;" horiz-adv-x="1273" d="M111 1022v41h974v-41h-225v-864q0 -59 37 -94t98 -35q23 0 54.5 5t58.5 13l14 -33q-29 -10 -70.5 -17t-70.5 -7q-72 0 -117 46t-45 122v864h-504v-1022h-41v1022h-163z" />
<glyph unicode="&#x1e0c;" horiz-adv-x="1400" d="M68 0l309 1454h444q133 0 230.5 -43t161 -117.5t94 -175t30.5 -217.5q0 -195 -61.5 -359.5t-172 -284.5t-262 -188.5t-329.5 -68.5h-444zM117 41h403q182 0 326.5 69.5t244 187.5t152.5 271.5t53 321.5q0 115 -30.5 211t-91 164.5t-151.5 107.5t-210 39h-403zM459 -260 l33 158h40l-32 -158h-41z" />
<glyph unicode="&#x1e0d;" horiz-adv-x="1185" d="M63 432q0 123 49.5 238.5t132.5 207t191.5 146.5t225.5 55q70 0 127 -21.5t101 -57t76.5 -84t51.5 -101.5l143 680h43l-301 -1407q-2 -6 -2 -11v-9q0 -27 25 -27l-8 -41q-12 0 -25 4q-33 12 -33 57v7.5t3 20.5t9.5 46t18.5 86q-43 -53 -96.5 -97t-111.5 -77t-119 -50 t-118 -17q-90 0 -161.5 37.5t-120.5 100t-75 144.5t-26 170zM104 436q0 -84 25 -159.5t71 -132t110.5 -90.5t144.5 -34q59 0 131.5 27t140.5 71t120 103.5t71 124.5l81 383q-8 63 -39.5 119.5t-80 98.5t-106.5 66.5t-120 24.5q-113 0 -213 -54t-175 -140t-118 -193.5 t-43 -214.5zM379 -260l33 158h41l-33 -158h-41z" />
<glyph unicode="&#x1e24;" horiz-adv-x="1435" d="M68 0l309 1454h41l-148 -690h957l147 690h41l-309 -1454h-41l154 723h-957l-153 -723h-41zM512 -260l33 158h41l-33 -158h-41z" />
<glyph unicode="&#x1e25;" horiz-adv-x="1105" d="M35 0l317 1495h41l-149 -707q45 66 102 120.5t120.5 92t130.5 58t132 20.5q242 0 242 -284q0 -90 -25 -203l-125 -592h-41l125 592q10 55 17.5 104t7.5 90q0 252 -209 252q-72 0 -144.5 -28.5t-140 -77.5t-124 -115.5t-93.5 -144.5l-143 -672h-41zM377 -260l33 158h41 l-33 -158h-41z" />
<glyph unicode="&#x1e44;" horiz-adv-x="1521" d="M68 0l309 1454h31l757 -1395l295 1393h41l-309 -1452h-45l-746 1374l-292 -1374h-41zM997 1722l33 158h41l-33 -158h-41z" />
<glyph unicode="&#x1e45;" horiz-adv-x="1105" d="M35 0l225 1063h41l-57 -275q45 63 104.5 118t126 92.5t137 59t138.5 21.5q115 0 170 -62.5t55 -195.5q0 -49 -7 -106.5t-22 -122.5l-125 -592h-41l125 592q27 125 27 219q0 117 -46 172t-145 55q-72 0 -148.5 -27.5t-147 -76.5t-130 -116.5t-96.5 -145.5l-143 -672h-41z M707 1337l32 158h41l-32 -158h-41z" />
<glyph unicode="&#x1e5a;" horiz-adv-x="1261" d="M68 0l309 1454h563q72 0 129 -30.5t96 -82t59.5 -116t20.5 -133.5q0 -94 -37 -184.5t-98 -163t-144 -119.5t-175 -54l227 -571h-49l-228 571h-512l-120 -571h-41zM240 612h534q90 0 168 43t136.5 111t92 151.5t33.5 167.5q0 66 -19.5 125.5t-55 104.5t-87 71.5 t-112.5 26.5h-520zM436 -260l33 158h41l-33 -158h-41z" />
<glyph unicode="&#x1e5b;" horiz-adv-x="649" d="M-20 -260l32 158h41l-33 -158h-40zM35 0l225 1063h41l-57 -275q84 125 192.5 194t218.5 79q10 2 19.5 2h19.5l-8 -41q-145 -6 -269 -98.5t-198 -251.5l-143 -672h-41z" />
<glyph unicode="&#x1e62;" horiz-adv-x="1185" d="M-2 215l35 27q82 -115 193.5 -166t271.5 -51q119 0 215 25.5t163.5 74.5t104.5 121.5t37 169.5q0 61 -24.5 107t-74 80t-123 58.5t-171.5 47.5q-96 20 -172 42.5t-128.5 55.5t-80 81t-27.5 118q0 106 42 191t119 144.5t182.5 91t232.5 31.5q133 0 223 -40t151 -134 l-32 -28q-61 96 -142.5 129.5t-204.5 33.5q-141 0 -241.5 -31.5t-164 -88t-93 -131t-29.5 -160.5q0 -59 22.5 -100.5t68.5 -71t117 -52t165 -42.5q96 -23 175 -47.5t135 -60.5t87 -88t31 -126q0 -102 -41 -183t-116 -137.5t-181.5 -86t-235.5 -29.5q-166 0 -284.5 54 t-204.5 171zM414 -260l32 158h41l-32 -158h-41z" />
<glyph unicode="&#x1e63;" horiz-adv-x="921" d="M-25 152l35 26q61 -80 138 -119t186 -39q84 0 155.5 21.5t125 59.5t84 93.5t30.5 122.5q0 45 -20.5 77t-59.5 54.5t-95 41t-128 36.5q-68 16 -119 32.5t-87 38t-54.5 53.5t-18.5 79q0 88 36 154.5t96.5 109.5t137.5 64.5t158 21.5q123 0 200 -44t97 -109l-38 -17 q-23 63 -101 96t-174 33q-72 0 -138.5 -17t-117.5 -54t-82 -93.5t-31 -132.5q0 -39 15.5 -65.5t46.5 -45t77 -32.5t107 -31q76 -20 138.5 -38.5t106.5 -45t67.5 -62.5t23.5 -89q0 -78 -33.5 -142.5t-93 -111.5t-141.5 -72.5t-178 -25.5q-117 0 -205 41.5t-146 130.5z M270 -260l33 158h41l-33 -158h-41z" />
<glyph unicode="&#x1e6c;" horiz-adv-x="1175" d="M201 1413l8 41h1098l-9 -41h-528l-301 -1413h-41l301 1413h-528zM375 -260l33 158h41l-33 -158h-41z" />
<glyph unicode="&#x1e6d;" horiz-adv-x="575" d="M98 119q0 8 1 16t3 19l185 868h-146l9 41h147l78 371h41l-78 -371h242l-9 -41h-243l-164 -764q-12 -57 -17.5 -82.5t-5.5 -40.5q0 -51 33 -77.5t80 -26.5q33 0 63.5 7t54 16t39 17.5t17.5 10.5l14 -33l-16 -10t-44 -20.5t-63.5 -19.5t-74.5 -9q-63 0 -104.5 34.5 t-41.5 94.5zM158 -260l32 158h41l-32 -158h-41z" />
<glyph unicode="&#x1e80;" horiz-adv-x="2019" d="M207 1454h45l280 -1403l496 797l-121 594h45l107 -545l342 545h45l-375 -594l162 -797l874 1403h45l-909 -1454h-45l-158 797l-497 -797h-45zM1161 1880h66l94 -149l-37 -25z" />
<glyph unicode="&#x1e81;" horiz-adv-x="1480" d="M125 1063h43l180 -1006q119 129 215 275.5t172 294.5l-78 436h43l66 -373q47 98 85 192.5t67 180.5h40q-35 -111 -79.5 -221.5t-100.5 -220.5l103 -564q104 113 192 242t160 261t126 260t91 243h41q-86 -268 -230.5 -538.5t-375.5 -524.5h-37l-100 559 q-78 -143 -175.5 -283.5t-220.5 -275.5h-37zM811 1495h66l94 -149l-37 -25z" />
<glyph unicode="&#x1e82;" horiz-adv-x="2019" d="M207 1454h45l280 -1403l496 797l-121 594h45l107 -545l342 545h45l-375 -594l162 -797l874 1403h45l-909 -1454h-45l-158 797l-497 -797h-45zM1176 1731l155 149h68l-197 -174z" />
<glyph unicode="&#x1e83;" horiz-adv-x="1480" d="M125 1063h43l180 -1006q119 129 215 275.5t172 294.5l-78 436h43l66 -373q47 98 85 192.5t67 180.5h40q-35 -111 -79.5 -221.5t-100.5 -220.5l103 -564q104 113 192 242t160 261t126 260t91 243h41q-86 -268 -230.5 -538.5t-375.5 -524.5h-37l-100 559 q-78 -143 -175.5 -283.5t-220.5 -275.5h-37zM825 1346l156 149h68l-197 -174z" />
<glyph unicode="&#x1e84;" horiz-adv-x="2019" d="M207 1454h45l280 -1403l496 797l-121 594h45l107 -545l342 545h45l-375 -594l162 -797l874 1403h45l-909 -1454h-45l-158 797l-497 -797h-45zM1092 1722l32 158h41l-32 -158h-41zM1319 1722l33 158h41l-33 -158h-41z" />
<glyph unicode="&#x1e85;" horiz-adv-x="1480" d="M125 1063h43l180 -1006q119 129 215 275.5t172 294.5l-78 436h43l66 -373q47 98 85 192.5t67 180.5h40q-35 -111 -79.5 -221.5t-100.5 -220.5l103 -564q104 113 192 242t160 261t126 260t91 243h41q-86 -268 -230.5 -538.5t-375.5 -524.5h-37l-100 559 q-78 -143 -175.5 -283.5t-220.5 -275.5h-37zM743 1337l33 158h41l-33 -158h-41zM971 1337l33 158h40l-32 -158h-41z" />
<glyph unicode="&#x1e92;" horiz-adv-x="1202" d="M-82 0l8 41l1344 1372h-1043l11 41h1093l-10 -41l-1344 -1372h1045l-8 -41h-1096zM397 -260l33 158h41l-33 -158h-41z" />
<glyph unicode="&#x1e93;" horiz-adv-x="935" d="M-74 0l8 41l977 981h-757l8 41h809l-8 -41l-975 -981h760l-11 -41h-811zM268 -260l33 158h41l-33 -158h-41z" />
<glyph unicode="&#x1eb8;" d="M68 0l309 1454h889l-9 -41h-847l-140 -649h744l-8 -41h-744l-145 -682h866l-8 -41h-907zM442 -260l33 158h41l-33 -158h-41z" />
<glyph unicode="&#x1eb9;" horiz-adv-x="1067" d="M63 430q0 121 47.5 237.5t130.5 208t195.5 147.5t245.5 56q51 0 107.5 -18.5t101.5 -53t74.5 -87t29.5 -121.5q0 -291 -536 -291q-78 0 -160 2t-186 8q-6 -43 -7 -86q0 -84 23 -158.5t68 -131t112.5 -89.5t155.5 -33q55 0 114.5 17.5t115 48.5t101.5 76t76 100l39 -12 q-35 -61 -85 -111.5t-110.5 -85.5t-127.5 -54t-137 -19q-92 0 -164 35.5t-121 97t-76 143.5t-27 174zM121 559q104 -6 185 -8t159 -2q135 0 228 18.5t150.5 52t83 79.5t25.5 102q0 61 -26.5 106t-67.5 75t-90 43t-94 13q-100 0 -190.5 -40t-163 -106.5t-125 -153.5 t-74.5 -179zM371 -260l32 158h41l-32 -158h-41z" />
<glyph unicode="&#x1ebc;" d="M68 0l309 1454h889l-9 -41h-847l-140 -649h744l-8 -41h-744l-145 -682h866l-8 -41h-907zM592 1722q0 4 9 27t28.5 47.5t52.5 44t82 19.5q37 0 63.5 -12.5t50 -27t50 -26.5t63.5 -12q39 0 65.5 14t42 31.5t21.5 33t6 19.5h39q-2 -6 -11 -28.5t-30.5 -47t-56.5 -43 t-88 -18.5q-43 0 -72.5 12t-54.5 26.5t-47.5 27t-52.5 12.5q-31 0 -53.5 -13.5t-37 -31t-21.5 -34t-9 -20.5h-39z" />
<glyph unicode="&#x1ebd;" horiz-adv-x="1067" d="M63 430q0 121 47.5 237.5t130.5 208t195.5 147.5t245.5 56q51 0 107.5 -18.5t101.5 -53t74.5 -87t29.5 -121.5q0 -291 -536 -291q-78 0 -160 2t-186 8q-6 -43 -7 -86q0 -84 23 -158.5t68 -131t112.5 -89.5t155.5 -33q55 0 114.5 17.5t115 48.5t101.5 76t76 100l39 -12 q-35 -61 -85 -111.5t-110.5 -85.5t-127.5 -54t-137 -19q-92 0 -164 35.5t-121 97t-76 143.5t-27 174zM121 559q104 -6 185 -8t159 -2q135 0 228 18.5t150.5 52t83 79.5t25.5 102q0 61 -26.5 106t-67.5 75t-90 43t-94 13q-100 0 -190.5 -40t-163 -106.5t-125 -153.5 t-74.5 -179zM463 1337q0 4 9 26.5t28.5 47.5t52.5 44.5t82 19.5q37 0 63.5 -12.5t50 -27t50 -26.5t63.5 -12q39 0 65.5 14t42 31.5t21.5 33t6 19.5h39q-2 -6 -11 -28.5t-30.5 -47t-56.5 -43t-88 -18.5q-43 0 -72.5 12t-54.5 26.5t-47.5 27t-52.5 12.5q-31 0 -53.5 -13.5 t-37 -31t-21.5 -34t-9 -20.5h-39z" />
<glyph unicode="&#x1eca;" horiz-adv-x="438" d="M12 -260l33 158h41l-33 -158h-41zM68 0l309 1452h41l-309 -1452h-41z" />
<glyph unicode="&#x1ecb;" horiz-adv-x="372" d="M-20 -260l32 158h41l-33 -158h-40zM35 0l225 1063h41l-225 -1063h-41zM319 1337l33 158h41l-33 -158h-41z" />
<glyph unicode="&#x1ecc;" horiz-adv-x="1486" d="M106 588q0 168 70 325.5t184.5 280.5t261 196.5t302.5 73.5q121 0 215 -51t158.5 -135t97 -192.5t32.5 -223.5q0 -166 -69.5 -323.5t-184 -279.5t-261 -195.5t-302.5 -73.5q-121 0 -215 49t-158.5 132t-97.5 191.5t-33 225.5zM147 594q0 -113 32 -215.5t93.5 -179 t149.5 -122.5t199 -46q154 0 293 73.5t243.5 192.5t166.5 266.5t62 294.5q0 113 -32.5 215.5t-94 180t-148.5 123.5t-196 46q-154 0 -293 -73.5t-244.5 -192.5t-168 -266.5t-62.5 -296.5zM537 -260l32 158h41l-32 -158h-41z" />
<glyph unicode="&#x1ecd;" horiz-adv-x="1148" d="M61 424q0 129 53.5 248t140.5 210t196.5 144t222.5 53q84 0 153.5 -34.5t118.5 -96t77 -143.5t28 -174q0 -127 -53.5 -245t-139.5 -208t-195.5 -144t-222.5 -54q-86 0 -155.5 34.5t-119.5 95t-77 141.5t-27 173zM102 428q0 -84 25 -158.5t71 -130t108 -87.5t140 -32 q102 0 204 50.5t181.5 133.5t129 192.5t49.5 228.5q0 86 -26 160.5t-71 131t-108.5 89t-138.5 32.5q-102 0 -203 -50t-180.5 -135t-130 -195.5t-50.5 -229.5zM367 -260l32 158h41l-32 -158h-41z" />
<glyph unicode="&#x1ee4;" horiz-adv-x="1482" d="M170 463q0 63 8 129.5t23 134.5l153 727h41l-153 -727q-14 -66 -22.5 -131.5t-8.5 -126.5q0 -92 20.5 -172t67.5 -139.5t125 -93t192 -33.5q156 0 270.5 61.5t195.5 159.5t131.5 223t76.5 252l154 727h41l-154 -727q-31 -145 -88 -278.5t-144 -234.5t-208 -162.5 t-281 -61.5q-125 0 -209 36.5t-135 101.5t-73.5 151t-22.5 184zM537 -260l32 158h41l-32 -158h-41z" />
<glyph unicode="&#x1ee5;" horiz-adv-x="1128" d="M96 264q0 88 25 203l127 596h41l-127 -596q-25 -115 -25 -199q0 -248 215 -248q74 0 148.5 28t143.5 76t127 115.5t97 147.5l144 676h41l-197 -926q-4 -23 -9 -43t-5 -24q0 -29 26 -29l-10 -41q-12 0 -24 4q-31 12 -31 55q0 2 1 8.5t4 27t11 61.5t25 114 q-47 -68 -105.5 -121t-124 -91t-135 -58t-137.5 -20q-246 0 -246 284zM336 -260l33 158h41l-33 -158h-41z" />
<glyph unicode="&#x1ef2;" horiz-adv-x="1216" d="M199 1454h47l352 -844l713 844h47l-750 -891l-121 -563h-41l121 567zM721 1880h65l95 -149l-37 -25z" />
<glyph unicode="&#x1ef3;" horiz-adv-x="942" d="M-76 -424q61 12 105.5 32.5t81 54.5t72.5 85t83 123l84 129l-244 1063h46l229 -1012l119 189q96 154 162.5 266t112.5 205.5t78 176.5t58 175h43q-29 -98 -59.5 -183t-77.5 -179.5t-115.5 -211t-171.5 -278.5l-168 -264q-74 -115 -126 -189.5t-100 -119t-96 -66 t-112 -31.5zM504 1495h65l95 -149l-37 -25z" />
<glyph unicode="&#x1ef8;" horiz-adv-x="1216" d="M199 1454h47l352 -844l713 844h47l-750 -891l-121 -563h-41l121 567zM532 1722q0 4 9.5 27t29 47.5t52 44t82.5 19.5q37 0 63.5 -12.5t50 -27t50 -26.5t63.5 -12q39 0 65.5 14t42 31.5t21.5 33t6 19.5h39q-2 -6 -11.5 -28.5t-31 -47t-56 -43t-87.5 -18.5q-43 0 -73 12 t-54.5 26.5t-47 27t-53.5 12.5t-53.5 -13.5t-36.5 -31t-21.5 -34t-9.5 -20.5h-39z" />
<glyph unicode="&#x1ef9;" horiz-adv-x="942" d="M-76 -424q61 12 105.5 32.5t81 54.5t72.5 85t83 123l84 129l-244 1063h46l229 -1012l119 189q96 154 162.5 266t112.5 205.5t78 176.5t58 175h43q-29 -98 -59.5 -183t-77.5 -179.5t-115.5 -211t-171.5 -278.5l-168 -264q-74 -115 -126 -189.5t-100 -119t-96 -66 t-112 -31.5zM330 1337q0 4 9 26.5t28.5 47.5t52.5 44.5t82 19.5q37 0 63.5 -12.5t50 -27t50 -26.5t63.5 -12q39 0 65.5 14t42 31.5t21.5 33t6 19.5h39q-2 -6 -11 -28.5t-30.5 -47t-56.5 -43t-88 -18.5q-43 0 -73 12t-54.5 26.5t-47 27t-53.5 12.5t-53 -13.5t-36.5 -31 t-21.5 -34t-9 -20.5h-39z" />
<glyph unicode="&#x2000;" horiz-adv-x="962" />
<glyph unicode="&#x2001;" horiz-adv-x="1925" />
<glyph unicode="&#x2002;" horiz-adv-x="1095" />
<glyph unicode="&#x2003;" horiz-adv-x="1763" />
<glyph unicode="&#x2004;" horiz-adv-x="641" />
<glyph unicode="&#x2005;" horiz-adv-x="481" />
<glyph unicode="&#x2006;" horiz-adv-x="320" />
<glyph unicode="&#x2007;" horiz-adv-x="320" />
<glyph unicode="&#x2008;" horiz-adv-x="240" />
<glyph unicode="&#x2009;" horiz-adv-x="385" />
<glyph unicode="&#x200a;" horiz-adv-x="106" />
<glyph unicode="&#x2010;" horiz-adv-x="827" d="M121 535l8 40h551l-8 -40h-551z" />
<glyph unicode="&#x2011;" horiz-adv-x="827" d="M121 535l8 40h551l-8 -40h-551z" />
<glyph unicode="&#x2012;" horiz-adv-x="827" d="M121 535l8 40h551l-8 -40h-551z" />
<glyph unicode="&#x2013;" horiz-adv-x="1062" d="M121 535l8 40h786l-8 -40h-786z" />
<glyph unicode="&#x2014;" horiz-adv-x="1716" d="M121 535l8 40h1440l-8 -40h-1440z" />
<glyph unicode="&#x2018;" horiz-adv-x="331" d="M252 1167l33 152l63 176h27l-58 -176h19l-31 -152h-53z" />
<glyph unicode="&#x2019;" horiz-adv-x="325" d="M254 1167l57 176h-18l31 152h53l-33 -152l-63 -176h-27z" />
<glyph unicode="&#x201a;" horiz-adv-x="526" d="M68 -156l53 156h-19l33 152h51l-32 -152l-58 -156h-28z" />
<glyph unicode="&#x201c;" horiz-adv-x="487" d="M252 1167l33 152l63 176h27l-58 -176h19l-31 -152h-53zM408 1167l32 152l64 176h26l-57 -176h19l-31 -152h-53z" />
<glyph unicode="&#x201d;" horiz-adv-x="481" d="M254 1167l57 176h-18l31 152h53l-33 -152l-63 -176h-27zM410 1167l57 176h-18l30 152h53l-32 -152l-64 -176h-26z" />
<glyph unicode="&#x201e;" horiz-adv-x="665" d="M68 -156l53 156h-19l33 152h51l-32 -152l-58 -156h-28zM207 -156l51 156h-18l32 152h54l-33 -152l-60 -156h-26z" />
<glyph unicode="&#x2020;" horiz-adv-x="733" d="M74 535l8 40h258l215 1012h41l-215 -1012h254l-8 -40h-256l-170 -801h-41l170 801h-256z" />
<glyph unicode="&#x2021;" horiz-adv-x="749" d="M55 412l8 41h259l47 225h-256l8 41h256l184 868h41l-184 -868h256l-10 -41h-254l-48 -225h254l-8 -41h-256l-143 -678h-41l143 678h-256z" />
<glyph unicode="&#x2022;" horiz-adv-x="677" d="M199 674q0 37 16 71.5t44 60t62.5 41t69.5 15.5q55 0 88 -39t33 -92q0 -39 -16.5 -73.5t-42 -60.5t-60.5 -41t-71 -15q-53 0 -88 37.5t-35 95.5z" />
<glyph unicode="&#x2026;" horiz-adv-x="700" d="M16 0l29 131h39l-27 -131h-41zM203 0l28 131h39l-26 -131h-41zM389 0l29 131h41l-29 -131h-41z" />
<glyph unicode="&#x202f;" horiz-adv-x="385" />
<glyph unicode="&#x2030;" horiz-adv-x="1945" d="M-14 23l1390 1433l27 -24l-1391 -1434zM227 1139q0 68 29 128t76 106t106.5 74t120.5 28q100 0 159.5 -66t59.5 -164q0 -68 -28.5 -129t-75.5 -107t-107 -73t-121 -27q-100 0 -159.5 65.5t-59.5 164.5zM268 1145q0 -82 51.5 -138.5t135.5 -56.5q53 0 103 23.5t90 63.5 t64.5 92.5t24.5 107.5q0 84 -53 140.5t-135 56.5q-53 0 -103.5 -25t-89.5 -64.5t-63.5 -92t-24.5 -107.5zM612 209q0 68 29 128t76 106t106.5 74t120.5 28q100 0 159.5 -66.5t59.5 -165.5q0 -68 -28.5 -128t-75.5 -106t-107 -72.5t-121 -26.5q-100 0 -159.5 65.5 t-59.5 163.5zM653 215q0 -82 50.5 -138.5t136.5 -56.5q53 0 103 24t90 63.5t64.5 92t24.5 107.5q0 82 -51 139.5t-135 57.5q-53 0 -103.5 -24.5t-90.5 -64.5t-64.5 -92.5t-24.5 -107.5zM1257 209q0 68 29 128t76 106t106.5 74t120.5 28q100 0 159.5 -66.5t59.5 -165.5 q0 -68 -28.5 -128t-75.5 -106t-106.5 -72.5t-120.5 -26.5q-98 0 -159 65.5t-61 163.5zM1298 215q0 -82 50.5 -138.5t136.5 -56.5q53 0 103 24t90 63.5t64.5 91t24.5 106.5q0 84 -52 141.5t-136 57.5q-53 0 -103.5 -24.5t-89 -64.5t-63.5 -92.5t-25 -107.5z" />
<glyph unicode="&#x2039;" horiz-adv-x="684" d="M66 512l8 37l534 346l-10 -45l-489 -320l354 -321l-10 -45z" />
<glyph unicode="&#x203a;" horiz-adv-x="684" d="M39 164l10 45l492 321l-357 320l11 45l387 -346l-7 -37z" />
<glyph unicode="&#x2044;" horiz-adv-x="245" d="M-563 23l1390 1433l27 -24l-1391 -1434z" />
<glyph unicode="&#x205f;" horiz-adv-x="481" />
<glyph unicode="&#x20a1;" horiz-adv-x="1052" d="M61 430q0 115 39 219.5t106.5 188.5t157 142t189.5 83l55 258h39l-53 -250q18 4 39.5 6t44.5 2q14 0 26.5 -1t24.5 -3l53 246h41l-53 -252q92 -20 153.5 -77.5t84.5 -149.5l-45 -15q-29 98 -109 154.5t-190 56.5q-106 0 -208 -48t-179.5 -130t-126 -191.5t-48.5 -230.5 q0 -86 26 -162.5t71 -133t108.5 -89.5t141.5 -33q59 0 121.5 18.5t117.5 49.5t99 72t65 84l39 -13q-25 -45 -61.5 -83.5t-83 -70.5t-98.5 -54.5t-107 -32.5l-52 -236h-38l47 230q-12 -2 -25.5 -3t-26.5 -1q-23 0 -42 3t-39 7l-52 -236h-39l52 246q-61 20 -109.5 61 t-83.5 98.5t-53.5 126t-18.5 144.5z" />
<glyph unicode="&#x20a3;" horiz-adv-x="1218" d="M-6 309l8 41h182l236 1104h889l-9 -41h-847l-138 -647h723l-8 -41h-725l-80 -375h328l-8 -41h-328l-65 -309h-41l65 309h-182z" />
<glyph unicode="&#x20a4;" horiz-adv-x="897" d="M-18 20q115 104 186.5 176t112.5 127.5t56 104.5t19 107h-198l8 40h192q0 37 -4 70t-12 64h-229l8 41h211q-23 84 -50.5 158.5t-27.5 156.5q0 80 35 152.5t90 127t127 87t145 32.5q98 0 170 -58t101 -157l-39 -24q-29 92 -93.5 145t-150.5 53q-63 0 -123.5 -27.5 t-109 -75.5t-78 -111.5t-29.5 -133.5q0 -82 28.5 -159.5t51.5 -165.5h340l-10 -41h-322q6 -29 10 -61t4 -73h318l-8 -40h-312q-4 -53 -18 -103.5t-51 -107t-101.5 -126t-165.5 -161.5q33 6 70 10t72 4q45 0 79.5 -6t66.5 -14t63.5 -14.5t68.5 -6.5q41 0 88 10.5t113 32.5 l4 -39q-115 -45 -215 -45q-43 0 -78 6.5t-67.5 14.5t-67.5 14t-78 6q-41 0 -93 -7t-95 -17z" />
<glyph unicode="&#x20a6;" horiz-adv-x="1597" d="M72 586l8 41h158l30 143h-157l8 41h157l138 643h30l349 -643h567l137 641h41l-137 -641h160l-9 -41h-159l-31 -143h160l-9 -41h-159l-123 -586h-47l-318 586h-596l-125 -586h-41l125 586h-157zM279 627h565l-78 143h-457zM317 811h426l-305 563zM815 770l78 -143h428 l31 143h-537zM915 586l287 -527l111 527h-398z" />
<glyph unicode="&#x20a9;" horiz-adv-x="2088" d="M104 715l9 41h270l-29 143h-211l9 41h194l-102 514h45l102 -514h656l-103 502h45l107 -545l340 545h45l-316 -502h658l321 514h45l-321 -514h194l-10 -41h-211l-88 -143h268l-8 -41h-287l-446 -715h-45l-158 797l-497 -797h-45l-144 715h-287zM399 899l29 -143h580l57 92 l-10 51h-656zM436 715l131 -664l414 664h-545zM1108 848l18 -92h582l88 143h-657zM1135 715l133 -664l413 664h-546z" />
<glyph unicode="&#x20ac;" horiz-adv-x="1589" d="M61 596l29 41h209q2 35 7 70.5t16 72.5h-144l29 41h125q37 123 110.5 239t176 205t230.5 143t273 54q92 0 166 -23.5t128 -65.5t90 -100.5t53 -127.5l-41 -12q-23 80 -66 135t-97.5 89t-119 49t-129.5 15q-135 0 -253 -50t-213 -133t-163.5 -191.5t-103.5 -225.5h772 l-29 -41h-754q-10 -37 -15 -72.5t-7 -70.5h688l-29 -41h-659q0 -115 34 -218.5t96 -181t149.5 -122.5t195.5 -45q68 0 143.5 18.5t150.5 55t145.5 95t127.5 138.5l35 -10q-53 -82 -126.5 -145.5t-156.5 -106.5t-169 -64.5t-166 -21.5q-119 0 -212 51t-156.5 135t-97.5 194.5 t-34 227.5h-238z" />
<glyph unicode="&#x20b9;" horiz-adv-x="806" d="M170 612h51q90 0 168 43t136.5 111t91 151.5t32.5 167.5q0 39 -7 74t-19 70h-410l8 41h383q-33 61 -88 102t-127 41h-137l8 41h635l-8 -41h-355q82 -49 123 -143h201l-8 -41h-178q23 -68 22 -137q0 -94 -37 -184.5t-99 -163t-145 -119.5t-175 -54l229 -571h-49z" />
<glyph unicode="&#x2122;" horiz-adv-x="1271" d="M283 1417l8 41h409l-8 -41h-184l-113 -530h-41l113 530h-184zM670 887l121 567h43l110 -428l295 428h45l-121 -567h-39l103 489l-275 -403h-34l-105 403l-104 -489h-39z" />
<glyph unicode="&#x2202;" horiz-adv-x="1167" d="M74 399q0 98 41 186.5t109.5 156t160.5 107.5t197 40q76 0 146.5 -23.5t126.5 -69.5t95 -113t56 -155q6 27 10 66t7 84t5 89t2 81q0 160 -29.5 270.5t-83 178t-129 97t-167.5 29.5q-121 0 -218.5 -41t-150.5 -104l-27 25q68 84 173.5 122.5t222.5 38.5 q223 0 336.5 -151.5t113.5 -495.5q0 -207 -40 -363.5t-112.5 -262t-173 -158.5t-223.5 -53q-98 0 -180 32.5t-142.5 89t-93 133t-32.5 164.5zM115 399q0 -78 29.5 -146.5t83 -119.5t127 -80.5t163.5 -29.5q113 0 199 45t142 113.5t85 148.5t29 149q0 74 -31 140.5t-84 116.5 t-124.5 81t-155.5 31q-92 0 -175.5 -36t-148 -97.5t-102 -143.5t-37.5 -172z" />
<glyph unicode="&#x2206;" horiz-adv-x="1314" d="M-23 0v41l596 1413h37l594 -1413v-41h-1227zM23 41h1136l-567 1354z" />
<glyph unicode="&#x220f;" horiz-adv-x="1363" d="M150 1413v41h1128v-41h-164v-1597h-41v1597h-698v-1597h-41v1597h-184z" />
<glyph unicode="&#x2211;" horiz-adv-x="1150" d="M158 0v47l477 713l-471 649v45h823v-41h-774v-8l473 -649l-473 -697v-8h805v-51h-860z" />
<glyph unicode="&#x221a;" horiz-adv-x="770" d="M49 707v41h199l190 -693l271 1563h43l-279 -1618h-63l-199 707h-162z" />
<glyph unicode="&#x221e;" horiz-adv-x="1437" d="M123 721q0 70 23.5 131t64.5 107.5t97 73t122 26.5q61 0 108.5 -22.5t83 -59.5t63.5 -86t52 -103q25 53 52.5 102.5t63.5 86.5t83 59.5t108 22.5q70 0 126.5 -26.5t96.5 -73t61.5 -109t21.5 -131.5q0 -70 -23.5 -131.5t-64.5 -107.5t-97.5 -72.5t-122.5 -26.5 q-59 0 -105 22.5t-82 60.5t-63.5 87t-50.5 102q-23 -53 -50 -102t-64 -87t-85 -60.5t-112 -22.5q-66 0 -122 26.5t-97 72.5t-64.5 108.5t-23.5 132.5zM164 721q0 -72 23.5 -128t61.5 -94t86 -57.5t95 -19.5q55 0 98 23.5t77 63.5t61.5 94t52.5 114q-25 61 -52.5 115.5 t-61.5 96.5t-77 65.5t-98 23.5q-47 0 -95 -18.5t-86 -55.5t-61.5 -93t-23.5 -130zM760 709q25 -59 51.5 -110.5t60 -91.5t75.5 -62.5t97 -22.5q47 0 94.5 19.5t85.5 57.5t61.5 94t23.5 128q0 74 -23.5 129t-61.5 92t-85 55.5t-95 18.5q-57 0 -100 -24.5t-76.5 -66.5 t-59.5 -98.5t-48 -117.5z" />
<glyph unicode="&#x222b;" horiz-adv-x="534" d="M33 -299l12 35q33 -16 72 -28.5t67 -12.5q53 0 86 43t33 129v21.5t-4 62.5l-80 1448q-4 47 -4 59v19q0 86 42 144t114 58q35 0 78 -12t77 -31l-14 -34q-14 8 -32.5 15t-39 13t-38 9t-29.5 3q-55 0 -87 -45t-32 -129v-16t4 -57l78 -1450q4 -53 4 -66.5v-19.5 q0 -96 -41 -148.5t-113 -52.5q-35 0 -76.5 12.5t-76.5 30.5z" />
<glyph unicode="&#x2248;" horiz-adv-x="907" d="M147 522q20 16 51 27.5t68 11.5q47 0 90 -13t84 -28.5t83 -29t89 -13.5q29 0 52.5 3t44.5 20l24 -33q-25 -14 -54.5 -22.5t-66.5 -8.5q-55 0 -102 13.5t-89 29t-80 28.5t-75 13q-51 0 -92 -31zM147 664q20 16 51 27t68 11q47 0 90 -13t84 -28.5t83 -29t89 -13.5 q29 0 52.5 3.5t44.5 19.5l24 -33q-25 -14 -54.5 -22t-66.5 -8q-55 0 -102 13t-89 28.5t-80 29t-75 13.5q-51 0 -92 -31z" />
<glyph unicode="&#x2260;" horiz-adv-x="929" d="M152 473v41h235l64 102h-299v41h325l133 209h54l-134 -209h222v-41h-248l-66 -102h314v-41h-340l-133 -211h-52l133 211h-208z" />
<glyph unicode="&#x2264;" horiz-adv-x="935" d="M131 174v41h614v-41h-614zM131 711v37l594 305v-45l-535 -279l535 -280v-46z" />
<glyph unicode="&#x2265;" horiz-adv-x="962" d="M150 174v41h614v-41h-614zM150 1053l614 -305v-37l-594 -308v46l535 280l-535 279z" />
<glyph unicode="&#x25ca;" horiz-adv-x="952" d="M98 750l381 745h49l381 -745l-381 -750h-49zM156 768l356 -717l340 674l-358 729z" />
<glyph unicode="&#x25fc;" horiz-adv-x="1064" d="M0 0v1065h1065v-1065h-1065z" />
</font>
</defs>
</svg>
